{
.appVersion = "3306";
.formatVersion = 3;
DisplayStrings = (
"/p.fina",
"(/a.init la) (/aacute.init la /adieresis.init la /agrave.init la /ae.init la /c.init la /ccedilla.init la /d.init la /g.init la /o.init la /oacute.init la /odieresis.init la /ograve.init la /oe.init la /q.init la"
);
classes = (
{
automatic = 1;

glyphs = (
{
color = 9;
glyphname = A;
kernLeft = A;
kernRight = A;
lastChange = "2024-07-10 17:21:47 +0000";
layers = (
{
anchors = (
{
name = bottom;
pos = (374,0);
},
{
name = ogonek;
pos = (613,-5);
},
{
name = top;
pos = (382,754);
}
);
background = {
shapes = (
{
closed = 0;
nodes = (
(494,0,l),
(529,700,l)
);
}
);
};
layerId = "6F9C6BB4-2DCF-443B-A55D-9CE049090094";
shapes = (
{
attr = {
lineCapEnd = 1;
lineCapStart = 1;
strokeHeight = 60;
strokeWidth = 65;
};
closed = 0;
nodes = (
(625,26,l),
(384,727,l)
);
},
{
attr = {
lineCapEnd = 1;
lineCapStart = 1;
strokeHeight = 60;
strokeWidth = 65;
};
closed = 0;
nodes = (
(217,265,l),
(535,265,l)
);
},
{
attr = {
lineCapEnd = 1;
lineCapStart = 1;
strokeHeight = 60;
strokeWidth = 65;
};
closed = 0;
nodes = (
(384,727,l),
(382,727,l)
);
},
{
attr = {
lineCapEnd = 1;
lineCapStart = 1;
strokeHeight = 60;
strokeWidth = 65;
};
closed = 0;
nodes = (
(382,727,l),
(120,26,ls)
);
}
);
width = 745;
}
);
unicode = 65;
},
{
color = 9;
glyphname = AE;
kernLeft = A;
kernRight = A;
lastChange = "2024-07-10 12:06:45 +0000";
layers = (
{
anchors = (
{
name = bottom;
pos = (264,0);
},
{
name = ogonek;
pos = (522,10);
},
{
name = top;
pos = (264,650);
},
{
name = topleft;
pos = (555,700);
}
);
layerId = "6F9C6BB4-2DCF-443B-A55D-9CE049090094";
shapes = (
{
attr = {
identifier = ID0x7fadab0a7ef0;
lineCapEnd = 1;
lineCapStart = 1;
strokeHeight = 60;
strokeWidth = 65;
};
closed = 0;
nodes = (
(510,724,l),
(424,724,l),
(342,724,l),
(90,27,ls)
);
},
{
attr = {
identifier = ID0x7fadab0a7ef0;
lineCapEnd = 1;
lineCapStart = 4;
strokeHeight = 60;
strokeWidth = 65;
};
closed = 0;
nodes = (
(175,259,l),
(769,424,l)
);
},
{
attr = {
identifier = ID0x7fadab051540;
lineCapEnd = 1;
lineCapStart = 1;
strokeHeight = 60;
strokeWidth = 65;
};
closed = 0;
nodes = (
(802,30,l),
(508,30,l),
(510,724,l),
(793,724,l)
);
}
);
width = 888;
}
);
unicode = 198;
},
{
color = 9;
glyphname = B;
kernLeft = H;
kernRight = B;
lastChange = "2024-07-10 18:01:19 +0000";
layers = (
{
background = {
shapes = (
{
attr = {
lineCapEnd = 1;
lineCapStart = 1;
strokeHeight = 60;
strokeWidth = 65;
};
closed = 0;
nodes = (
(164,379,l),
(399,379,o),
(498,369,o),
(498,231,cs),
(498,54,o),
(351,2,o),
(190,2,cs),
(150,2,l),
(164,731,l),
(329,731,l),
(381,731,o),
(477,727,o),
(477,596,cs),
(477,433,o),
(344,378,o),
(164,378,c)
);
}
);
};
layerId = "6F9C6BB4-2DCF-443B-A55D-9CE049090094";
shapes = (
{
attr = {
lineCapEnd = "1";
lineCapStart = "1";
strokeHeight = 60;
strokeWidth = 65;
};
closed = 0;
nodes = (
(164,389,l),
(399,389,o),
(498,380,o),
(498,249,cs),
(498,80,o),
(351,30,o),
(190,30,cs),
(150,30,l),
(164,724,l),
(329,724,l),
(381,724,o),
(477,720,o),
(477,596,cs),
(477,441,o),
(344,388,o),
(164,388,c)
);
}
);
width = 627;
}
);
unicode = 66;
},
{
color = 9;
glyphname = C;
kernLeft = O;
kernRight = C;
lastChange = "2024-07-10 11:54:56 +0000";
layers = (
{
anchors = (
{
name = bottom;
pos = (312,11);
},
{
name = top;
pos = (312,714);
}
);
background = {
shapes = (
{
attr = {
lineCapEnd = 1;
lineCapStart = 1;
strokeHeight = 60;
strokeWidth = 65;
};
closed = 0;
nodes = (
(534,709,l),
(473,724,o),
(420,731,o),
(373,731,cs),
(183,731,o),
(104,609,o),
(104,342,cs),
(104,147,o),
(180,0,o),
(324,0,cs),
(386,0,o),
(459,26,o),
(546,85,cs)
);
}
);
};
layerId = "6F9C6BB4-2DCF-443B-A55D-9CE049090094";
shapes = (
{
attr = {
lineCapEnd = 1;
lineCapStart = 1;
strokeHeight = 60;
strokeWidth = 65;
};
closed = 0;
nodes = (
(534,708,l),
(473,722,o),
(420,729,o),
(373,729,cs),
(183,729,o),
(104,612,o),
(104,356,cs),
(104,168,o),
(180,25,o),
(324,25,cs),
(386,25,o),
(459,50,o),
(546,106,cs)
);
}
);
width = 634;
}
);
unicode = 67;
},
{
color = 9;
glyphname = D;
kernLeft = H;
kernRight = O;
lastChange = "2024-07-10 18:01:12 +0000";
layers = (
{
background = {
shapes = (
{
closed = 0;
nodes = (
(91,700,l),
(151,700,o),
(281,700,o),
(330,700,cs),
(379,700,o),
(471,696,o),
(471,571,c)
);
},
{
closed = 0;
nodes = (
(491,220,l),
(491,51,o),
(329,0,o),
(175,0,cs),
(148,0,o),
(145,12,o),
(147,39,cs),
(208,700,l)
);
},
{
closed = 0;
nodes = (
(235,20,l),
(289,7,o),
(336,1,o),
(374,1,cs),
(468,1,o),
(543,141,o),
(577,267,cs),
(626,453,o),
(617,701,o),
(475,701,cs),
(417,701,o),
(353,658,o),
(288,596,c)
);
}
);
};
layerId = "6F9C6BB4-2DCF-443B-A55D-9CE049090094";
shapes = (
{
attr = {
lineCapEnd = 1;
lineCapStart = 1;
strokeHeight = 60;
strokeWidth = 65;
};
closed = 1;
nodes = (
(166,30,l),
(450,30,o),
(626,208,o),
(626,462,cs),
(626,603,o),
(535,724,o),
(328,724,c),
(164,724,l),
(151,30,l)
);
}
);
width = 756;
}
);
unicode = 68;
},
{
glyphname = Eth;
kernLeft = Eth;
kernRight = O;
lastChange = "2024-07-09 16:47:16 +0000";
layers = (
{
layerId = "6F9C6BB4-2DCF-443B-A55D-9CE049090094";
shapes = (
{
ref = D;
},
{
attr = {
lineCapEnd = 1;
lineCapStart = 1;
strokeHeight = 50;
strokeWidth = 55;
};
closed = 0;
nodes = (
(-11,361,l),
(419,361,l)
);
}
);
width = 743;
}
);
unicode = 208;
},
{
color = 9;
glyphname = E;
kernLeft = H;
kernRight = E;
lastChange = "2024-07-10 18:01:09 +0000";
layers = (
{
anchors = (
{
name = bottom;
pos = (305,0);
},
{
name = ogonek;
pos = (530,10);
},
{
name = top;
pos = (305,725);
},
{
name = topleft;
pos = (43,700);
}
);
layerId = "6F9C6BB4-2DCF-443B-A55D-9CE049090094";
shapes = (
{
attr = {
lineCapEnd = 1;
lineCapStart = 1;
strokeHeight = 60;
strokeWidth = 65;
};
closed = 0;
nodes = (
(456,30,l),
(150,30,l),
(165,724,l),
(459,724,l)
);
},
{
attr = {
lineCapEnd = 1;
lineCapStart = 1;
strokeHeight = 60;
strokeWidth = 65;
};
closed = 0;
nodes = (
(157,374,l),
(422,374,l)
);
}
);
width = 606;
}
);
unicode = 69;
},
{
color = 9;
glyphname = F;
kernLeft = H;
kernRight = F;
lastChange = "2024-07-10 18:01:16 +0000";
layers = (
{
layerId = "6F9C6BB4-2DCF-443B-A55D-9CE049090094";
shapes = (
{
attr = {
lineCapEnd = 1;
lineCapStart = 1;
strokeHeight = 60;
strokeWidth = 65;
};
closed = 0;
nodes = (
(149,26,l),
(164,724,l),
(458,724,l)
);
},
{
attr = {
lineCapEnd = 1;
lineCapStart = 1;
strokeHeight = 60;
strokeWidth = 65;
};
closed = 0;
nodes = (
(156,361,l),
(421,361,l)
);
}
);
width = 605;
}
);
unicode = 70;
},
{
color = 9;
glyphname = G;
kernLeft = O;
kernRight = B;
lastChange = "2024-07-10 18:01:22 +0000";
layers = (
{
background = {
shapes = (
{
closed = 0;
nodes = (
(530,361,l),
(379,361,l)
);
},
{
closed = 0;
nodes = (
(514,679,l),
(468,691,o),
(387,700,o),
(352,700,cs),
(184,700,o),
(138,562,o),
(138,326,cs),
(138,80,o),
(230,0,o),
(333,0,cs),
(432,0,o),
(530,154,o),
(530,270,cs)
);
}
);
};
layerId = "6F9C6BB4-2DCF-443B-A55D-9CE049090094";
shapes = (
{
attr = {
lineCapEnd = 1;
lineCapStart = 1;
strokeHeight = 60;
strokeWidth = 65;
};
closed = 0;
nodes = (
(565,708,l),
(503,722,o),
(450,729,o),
(404,729,cs),
(213,729,o),
(134,612,o),
(134,352,cs),
(134,165,o),
(211,25,o),
(355,25,cs),
(489,25,o),
(591,186,o),
(582,376,c),
(336,376,l)
);
}
);
width = 709;
}
);
unicode = 71;
},
{
color = 9;
glyphname = H;
kernLeft = H;
kernRight = H;
lastChange = "2024-07-10 13:25:03 +0000";
layers = (
{
background = {
shapes = (
{
closed = 0;
nodes = (
(62,320,l),
(592,320,l)
);
},
{
closed = 0;
nodes = (
(147,699,l),
(200,699,o),
(190,635,o),
(187,547,cs),
(166,-1,l)
);
},
{
closed = 0;
nodes = (
(806,230,l),
(744,83,o),
(650,0,o),
(615,0,cs),
(582,0,o),
(581,38,o),
(584,119,cs),
(606,700,l)
);
}
);
};
layerId = "6F9C6BB4-2DCF-443B-A55D-9CE049090094";
shapes = (
{
attr = {
lineCapEnd = 2;
lineCapStart = 2;
strokeHeight = 60;
strokeWidth = 65;
};
closed = 0;
nodes = (
(167,382,l),
(562,382,l)
);
},
{
attr = {
lineCapEnd = 2;
lineCapStart = 2;
strokeHeight = 60;
strokeWidth = 65;
};
closed = 0;
nodes = (
(164,756,l),
(151,-2,l)
);
},
{
attr = {
lineCapEnd = 2;
lineCapStart = 2;
strokeHeight = 60;
strokeWidth = 65;
};
closed = 0;
nodes = (
(580,756,l),
(567,-2,l)
);
}
);
width = 731;
}
);
unicode = 72;
},
{
color = 9;
glyphname = I;
kernLeft = I;
kernRight = I;
lastChange = "2024-07-10 18:00:39 +0000";
layers = (
{
anchors = (
{
name = bottom;
pos = (256,0);
},
{
name = ogonek;
pos = (456,10);
},
{
name = top;
pos = (260,725);
},
{
name = topleft;
pos = (35,700);
}
);
background = {
shapes = (
{
closed = 0;
nodes = (
(157,170,l),
(132,69,o),
(171,0,o),
(253,0,cs),
(358,0,o),
(449,114,o),
(454,251,cs),
(470,700,l),
(202,700,l)
);
}
);
};
layerId = "6F9C6BB4-2DCF-443B-A55D-9CE049090094";
shapes = (
{
attr = {
lineCapEnd = 1;
lineCapStart = 1;
strokeHeight = 60;
strokeWidth = 65;
};
closed = 0;
nodes = (
(269,713,l),
(256,40,l)
);
},
{
attr = {
lineCapEnd = 1;
lineCapStart = 1;
strokeHeight = 60;
strokeWidth = 65;
};
closed = 0;
nodes = (
(164,724,l),
(372,724,l)
);
},
{
attr = {
lineCapEnd = 1;
lineCapStart = 1;
strokeHeight = 60;
strokeWidth = 65;
};
closed = 0;
nodes = (
(147,30,l),
(365,30,l)
);
}
);
width = 519;
}
);
unicode = 73;
},
{
glyphname = IJ;
kernLeft = I;
kernRight = J;
lastChange = "2024-07-09 16:47:16 +0000";
layers = (
{
background = {
shapes = (
{
pos = (-27,0);
ref = I;
}
);
};
layerId = "6F9C6BB4-2DCF-443B-A55D-9CE049090094";
shapes = (
{
attr = {
identifier = ID0x7fadab45f450;
lineCapEnd = 1;
lineCapStart = 1;
strokeHeight = 60;
strokeWidth = 65;
};
closed = 0;
nodes = (
(251,721,l),
(244,361,l)
);
},
{
attr = {
identifier = ID0x7fadab45f450;
lineCapEnd = 1;
lineCapStart = 1;
strokeHeight = 60;
strokeWidth = 65;
};
closed = 0;
nodes = (
(150,731,l),
(350,731,l)
);
},
{
attr = {
identifier = ID0x7fadab45f450;
lineCapEnd = 1;
lineCapStart = 1;
strokeHeight = 60;
strokeWidth = 65;
};
closed = 0;
nodes = (
(139,351,l),
(349,351,l)
);
},
{
pos = (125,0);
ref = J;
}
);
width = 700;
}
);
unicode = 306;
},
{
color = 9;
glyphname = J;
kernLeft = J;
kernRight = J;
lastChange = "2024-07-10 18:01:13 +0000";
layers = (
{
anchors = (
{
name = bottom;
pos = (297,0);
},
{
name = top;
pos = (398,725);
}
);
background = {
shapes = (
{
closed = 0;
nodes = (
(433,151,l),
(420,88,o),
(171,-25,o),
(171,-244,cs),
(171,-305,o),
(193,-347,o),
(232,-347,cs),
(284,-347,o),
(287,-285,o),
(285,-104,cs),
(283,51,o),
(278,206,o),
(285,361,cs),
(301,700,l),
(301,700,o),
(265,228,o),
(124,128,c)
);
}
);
};
layerId = "6F9C6BB4-2DCF-443B-A55D-9CE049090094";
shapes = (
{
attr = {
lineCapEnd = 2;
lineCapStart = 1;
strokeHeight = 60;
strokeWidth = 65;
};
closed = 0;
nodes = (
(126,274,l),
(117,110,o),
(169,25,o),
(277,25,cs),
(369,25,o),
(431,108,o),
(433,245,cs),
(441,756,l)
);
}
);
width = 587;
}
);
unicode = 74;
},
{
color = 9;
glyphname = K;
kernLeft = H;
kernRight = K;
lastChange = "2024-07-10 18:01:10 +0000";
layers = (
{
background = {
shapes = (
{
closed = 0;
nodes = (
(451,0,l),
(157,0,l),
(171,700,l),
(454,700,l)
);
},
{
closed = 0;
nodes = (
(164,344,l),
(418,344,l)
);
}
);
};
layerId = "6F9C6BB4-2DCF-443B-A55D-9CE049090094";
shapes = (
{
attr = {
lineCapEnd = 1;
lineCapStart = 1;
strokeHeight = 60;
strokeWidth = 65;
};
closed = 0;
nodes = (
(541,731,l),
(211,362,l),
(582,26,l)
);
},
{
attr = {
lineCapEnd = 2;
lineCapStart = 2;
strokeHeight = 60;
strokeWidth = 65;
};
closed = 0;
nodes = (
(164,756,l),
(152,-2,l)
);
}
);
width = 699;
}
);
unicode = 75;
},
{
color = 9;
glyphname = L;
kernLeft = H;
kernRight = L;
lastChange = "2024-07-10 18:01:15 +0000";
layers = (
{
background = {
shapes = (
{
closed = 0;
nodes = (
(72,700,l),
(453,700,l)
);
},
{
closed = 0;
nodes = (
(441,0,l),
(174,0,l),
(147,0,o),
(145,12,o),
(146,39,cs),
(172,700,l)
);
},
{
closed = 0;
nodes = (
(156,344,l),
(413,344,l)
);
}
);
};
layerId = "6F9C6BB4-2DCF-443B-A55D-9CE049090094";
shapes = (
{
attr = {
lineCapEnd = 2;
lineCapStart = 1;
strokeHeight = 60;
strokeWidth = 65;
};
closed = 0;
nodes = (
(457,30,l),
(151,30,l),
(166,756,l)
);
}
);
width = 604;
}
);
unicode = 76;
},
{
color = 9;
glyphname = M;
kernLeft = H;
kernRight = H;
lastChange = "2024-07-10 18:00:50 +0000";
layers = (
{
background = {
shapes = (
{
closed = 0;
nodes = (
(361,700,l),
(155,113,ls),
(126,30,o),
(93,1,o),
(24,1,c)
);
},
{
closed = 0;
nodes = (
(846,686,l),
(711,268,o),
(561,103,o),
(495,54,c),
(440,142,o),
(377,329,o),
(361,686,c)
);
},
{
closed = 0;
nodes = (
(1044,230,l),
(982,83,o),
(888,0,o),
(853,0,cs),
(796,0,o),
(820,189,o),
(846,700,c)
);
}
);
};
layerId = "6F9C6BB4-2DCF-443B-A55D-9CE049090094";
shapes = (
{
attr = {
lineCapEnd = 1;
lineCapStart = 2;
strokeHeight = 60;
strokeWidth = 65;
};
closed = 0;
nodes = (
(130,-2,l),
(182,727,l)
);
},
{
attr = {
lineCapEnd = 1;
lineCapStart = 1;
strokeHeight = 60;
strokeWidth = 65;
};
closed = 0;
nodes = (
(497,85,l),
(831,727,l)
);
},
{
attr = {
lineCapEnd = 1;
lineCapStart = 1;
strokeHeight = 60;
strokeWidth = 65;
};
closed = 0;
nodes = (
(183,727,l),
(496,85,l)
);
},
{
attr = {
lineCapEnd = 2;
lineCapStart = 1;
strokeHeight = 60;
strokeWidth = 65;
};
closed = 0;
nodes = (
(832,727,l),
(863,-1,l)
);
}
);
width = 1003;
}
);
unicode = 77;
},
{
color = 9;
glyphname = N;
kernLeft = H;
kernRight = H;
lastChange = "2024-07-10 18:01:11 +0000";
layers = (
{
anchors = (
{
name = bottom;
pos = (372,0);
},
{
name = top;
pos = (372,725);
}
);
background = {
shapes = (
{
closed = 0;
nodes = (
(589,700,l),
(565,0,l),
(174,699,l),
(153,112,ls),
(150,29,o),
(126,0,o),
(57,0,c)
);
}
);
};
layerId = "6F9C6BB4-2DCF-443B-A55D-9CE049090094";
shapes = (
{
attr = {
lineCapEnd = 1;
lineCapStart = 2;
strokeHeight = 60;
strokeWidth = 65;
};
closed = 0;
nodes = (
(593,756,l),
(580,27,l)
);
},
{
attr = {
lineCapEnd = 2;
lineCapStart = 1;
strokeHeight = 60;
strokeWidth = 65;
};
closed = 0;
nodes = (
(164,727,l),
(149,-2,l)
);
},
{
attr = {
lineCapEnd = 1;
lineCapStart = 1;
strokeHeight = 60;
strokeWidth = 65;
};
closed = 0;
nodes = (
(579,28,l),
(165,727,l)
);
}
);
width = 743;
}
);
unicode = 78;
},
{
color = 9;
glyphname = O;
kernLeft = O;
kernRight = O;
lastChange = "2024-07-10 18:01:19 +0000";
layers = (
{
anchors = (
{
name = bottom;
pos = (409,0);
},
{
name = center;
pos = (409,350);
},
{
name = ogonek;
pos = (704,10);
},
{
name = top;
pos = (429,725);
},
{
name = topleft;
pos = (59,700);
},
{
name = topright;
pos = (758,700);
}
);
background = {
shapes = (
{
closed = 0;
nodes = (
(243,170,l),
(202,170,o),
(159,203,o),
(153,265,cs),
(136,463,o),
(238,700,o),
(436,700,cs),
(585,700,o),
(663,578,o),
(675,435,cs),
(692,237,o),
(585,0,o),
(381,0,cs),
(303,0,o),
(241,30,o),
(202,77,c)
);
}
);
};
layerId = "6F9C6BB4-2DCF-443B-A55D-9CE049090094";
shapes = (
{
attr = {
lineCapEnd = 1;
lineCapStart = 1;
strokeHeight = 60;
strokeWidth = 65;
};
closed = 0;
nodes = (
(432,729,l),
(595,729,o),
(686,594,o),
(689,423,cs),
(693,232,o),
(586,25,o),
(387,25,cs),
(224,25,o),
(133,162,o),
(130,333,cs),
(126,523,o),
(233,729,o),
(432,729,c)
);
}
);
width = 819;
}
);
unicode = 79;
},
{
color = 9;
glyphname = Oslash;
kernLeft = O;
kernRight = O;
lastChange = "2024-07-10 12:06:45 +0000";
layers = (
{
layerId = "6F9C6BB4-2DCF-443B-A55D-9CE049090094";
shapes = (
{
pos = (1,0);
ref = O;
},
{
attr = {
identifier = ID0x7fadb183f0a0;
lineCapEnd = "1";
lineCapStart = "1";
strokeHeight = 50;
strokeWidth = 55;
};
closed = 0;
nodes = (
(724,741,l),
(108,0,l)
);
}
);
width = 807;
}
);
unicode = 216;
},
{
color = 9;
glyphname = OE;
kernLeft = O;
kernRight = E;
lastChange = "2024-07-10 12:06:45 +0000";
layers = (
{
anchors = (
{
name = bottom;
pos = (432,0);
},
{
name = center;
pos = (432,350);
},
{
name = ogonek;
pos = (727,10);
},
{
name = top;
pos = (432,650);
},
{
name = topleft;
pos = (82,700);
},
{
name = topright;
pos = (781,700);
}
);
background = {
shapes = (
{
attr = {
identifier = ID0x7fadae80b090;
lineCapEnd = 1;
lineCapStart = 1;
};
closed = 0;
nodes = (
(813,0,l),
(519,0,l),
(533,700,l),
(816,700,l)
);
},
{
attr = {
identifier = ID0x7fadae80b090;
lineCapEnd = 1;
lineCapStart = 1;
};
closed = 0;
nodes = (
(526,344,l),
(780,344,l)
);
},
{
attr = {
identifier = ID0x7fe542542670;
lineCapEnd = 1;
lineCapStart = 1;
};
closed = 1;
nodes = (
(560,700,o),
(647,565,o),
(650,394,cs),
(654,205,o),
(551,0,o),
(361,0,cs),
(205,0,o),
(118,135,o),
(115,306,cs),
(111,495,o),
(214,700,o),
(404,700,cs)
);
}
);
};
layerId = "6F9C6BB4-2DCF-443B-A55D-9CE049090094";
shapes = (
{
attr = {
identifier = ID0x7fe542542670;
lineCapEnd = 1;
lineCapStart = 1;
strokeHeight = 60;
strokeWidth = 65;
};
closed = 0;
nodes = (
(523,86,l),
(479,50,o),
(422,25,o),
(357,25,cs),
(195,25,o),
(105,161,o),
(101,332,cs),
(97,524,o),
(204,729,o),
(402,729,cs),
(454,729,o),
(499,715,o),
(536,690,c)
);
},
{
attr = {
identifier = ID0x7fadae80b090;
lineCapEnd = "1";
lineCapStart = "1";
strokeHeight = 60;
strokeWidth = 65;
};
closed = 0;
nodes = (
(827,30,l),
(521,30,l),
(536,724,l),
(830,724,l)
);
},
{
attr = {
identifier = ID0x7fadae80b090;
lineCapEnd = "1";
lineCapStart = "1";
strokeHeight = 60;
strokeWidth = 65;
};
closed = 0;
nodes = (
(529,369,l),
(793,369,l)
);
}
);
width = 947;
}
);
unicode = 338;
},
{
color = 9;
glyphname = P;
kernLeft = H;
kernRight = F;
lastChange = "2024-07-10 18:01:15 +0000";
layers = (
{
background = {
shapes = (
{
pos = (89,0);
ref = B;
}
);
};
layerId = "6F9C6BB4-2DCF-443B-A55D-9CE049090094";
shapes = (
{
attr = {
lineCapEnd = 2;
lineCapStart = 2;
strokeHeight = 60;
strokeWidth = 65;
};
closed = 0;
nodes = (
(149,-2,l),
(165,724,l),
(338,724,ls),
(456,724,o),
(517,671,o),
(517,571,cs),
(517,432,o),
(383,336,o),
(160,336,c)
);
}
);
width = 643;
}
);
unicode = 80;
},
{
color = 9;
glyphname = Thorn;
kernLeft = H;
kernRight = Thorn;
lastChange = "2024-07-10 12:06:45 +0000";
layers = (
{
layerId = "6F9C6BB4-2DCF-443B-A55D-9CE049090094";
shapes = (
{
attr = {
identifier = ID0x7fadab497160;
lineCapEnd = 2;
lineCapStart = 2;
strokeHeight = 60;
strokeWidth = 65;
};
closed = 0;
nodes = (
(120,-2,l),
(136,756,l)
);
},
{
attr = {
identifier = ID0x7fadab497160;
lineCapEnd = 1;
lineCapStart = 1;
strokeHeight = 60;
strokeWidth = 65;
};
closed = 0;
nodes = (
(136,582,l),
(309,582,ls),
(427,582,o),
(488,526,o),
(488,419,cs),
(488,273,o),
(354,171,o),
(131,171,c)
);
}
);
width = 585;
}
);
unicode = 222;
},
{
color = 9;
glyphname = Q;
kernLeft = O;
kernRight = Q;
lastChange = "2024-07-10 11:54:56 +0000";
layers = (
{
background = {
shapes = (
{
closed = 0;
nodes = (
(527,500,l),
(593,500,o),
(623,449,o),
(623,383,cs),
(623,226,o),
(519,0,o),
(344,0,cs),
(188,0,o),
(103,135,o),
(103,306,cs),
(103,495,o),
(209,700,o),
(399,700,cs),
(477,700,o),
(539,670,o),
(578,623,cs)
);
}
);
};
layerId = "6F9C6BB4-2DCF-443B-A55D-9CE049090094";
shapes = (
{
attr = {
lineCapEnd = 1;
lineCapStart = 1;
strokeHeight = 60;
strokeWidth = 65;
};
closed = 0;
nodes = (
(388,183,l),
(640,-58,l)
);
},
{
pos = (-2,0);
ref = O;
}
);
width = 758;
}
);
unicode = 81;
},
{
color = 9;
glyphname = R;
kernLeft = H;
kernRight = R;
lastChange = "2024-07-10 18:01:16 +0000";
layers = (
{
background = {
shapes = (
{
pos = (89,0);
ref = B;
}
);
};
layerId = "6F9C6BB4-2DCF-443B-A55D-9CE049090094";
shapes = (
{
attr = {
lineCapEnd = 2;
lineCapStart = 2;
strokeHeight = 60;
strokeWidth = 65;
};
closed = 0;
nodes = (
(149,-2,l),
(164,724,l),
(343,724,ls),
(447,724,o),
(518,685,o),
(518,595,cs),
(518,455,o),
(399,366,o),
(161,366,c)
);
},
{
attr = {
lineCapEnd = 1;
lineCapStart = 1;
strokeHeight = 60;
strokeWidth = 65;
};
closed = 0;
nodes = (
(201,363,l),
(570,26,l)
);
}
);
width = 687;
}
);
unicode = 82;
},
{
color = 9;
glyphname = S;
kernLeft = S;
kernRight = B;
lastChange = "2024-07-10 18:01:08 +0000";
layers = (
{
background = {
shapes = (
{
attr = {
lineCapEnd = 1;
lineCapStart = 1;
};
closed = 0;
nodes = (
(128,31,l),
(155,12,o),
(203,0,o),
(254,0,cs),
(357,0,o),
(474,49,o),
(471,188,cs),
(469,274,o),
(388,321,o),
(306,367,cs),
(228,411,o),
(145,464,o),
(145,556,cs),
(145,648,o),
(232,699,o),
(324,699,cs),
(367,699,o),
(411,688,o),
(448,664,cs)
);
}
);
};
hints = (
{
horizontal = 1;
origin = (0,0);
settings = {
deltaV = {
"{100, 100, 0, 0, 0, 0}" = {
"62" = 0;
};
};
};
type = TTDelta;
},
{
horizontal = 1;
origin = (0,0);
settings = {
deltaV = {
"{100, 100, 0, 0, 0, 0}" = {
"62" = 0;
};
};
};
type = TTDelta;
},
{
horizontal = 1;
origin = (0,0);
settings = {
deltaV = {
"{100, 100, 0, 0, 0, 0}" = {
"62" = 0;
};
};
};
type = TTDelta;
},
{
horizontal = 1;
origin = (0,3);
settings = {
deltaV = {
"{100, 100, 0, 0, 0, 0}" = {
"62" = 0;
};
};
};
type = TTDelta;
},
{
horizontal = 1;
origin = (0,9);
settings = {
deltaV = {
"{100, 100, 0, 0, 0, 0}" = {
"62" = 0;
};
};
};
type = TTDelta;
},
{
horizontal = 1;
origin = (0,9);
settings = {
deltaV = {
"{100, 100, 0, 0, 0, 0}" = {
"62" = 0;
};
};
};
type = TTDelta;
},
{
horizontal = 1;
origin = (0,9);
settings = {
deltaV = {
"{100, 100, 0, 0, 0, 0}" = {
"62" = 0;
};
};
};
type = TTDelta;
},
{
horizontal = 1;
origin = (0,12);
settings = {
deltaV = {
"{100, 100, 0, 0, 0, 0}" = {
"62" = 0;
};
};
};
type = TTDelta;
},
{
horizontal = 1;
origin = (0,12);
settings = {
deltaV = {
"{100, 100, 0, 0, 0, 0}" = {
"62" = 0;
};
};
};
type = TTDelta;
},
{
horizontal = 1;
origin = (0,12);
settings = {
deltaV = {
"{100, 100, 0, 0, 0, 0}" = {
"62" = 0;
};
};
};
type = TTDelta;
},
{
horizontal = 1;
origin = (0,12);
settings = {
deltaV = {
"{100, 100, 0, 0, 0, 0}" = {
"62" = 0;
};
};
};
type = TTDelta;
},
{
horizontal = 1;
origin = (0,12);
settings = {
deltaV = {
"{100, 100, 0, 0, 0, 0}" = {
"62" = 0;
};
};
};
type = TTDelta;
},
{
horizontal = 1;
origin = (0,12);
settings = {
deltaV = {
"{100, 100, 0, 0, 0, 0}" = {
"62" = 0;
};
};
};
type = TTDelta;
}
);
layerId = "6F9C6BB4-2DCF-443B-A55D-9CE049090094";
shapes = (
{
attr = {
lineCapEnd = 1;
lineCapStart = 1;
strokeHeight = 60;
strokeWidth = 65;
};
closed = 0;
nodes = (
(121,54,l),
(216,-4,o),
(483,2,o),
(479,214,cs),
(477,301,o),
(395,346,o),
(313,393,cs),
(226,440,o),
(139,489,o),
(139,586,cs),
(139,725,o),
(337,770,o),
(455,695,cs)
);
}
);
width = 604;
}
);
unicode = 83;
},
{
color = 9;
glyphname = Germandbls;
kernLeft = H;
kernRight = S;
lastChange = "2024-07-10 12:06:45 +0000";
layers = (
{
hints = (
{
horizontal = 1;
settings = {
deltaV = {
"{100, 100, 0, 0, 0, 0}" = {
"62" = 0;
};
};
};
type = TTDelta;
},
{
horizontal = 1;
settings = {
deltaV = {
"{100, 100, 0, 0, 0, 0}" = {
"62" = 0;
};
};
};
type = TTDelta;
},
{
horizontal = 1;
settings = {
deltaV = {
"{100, 100, 0, 0, 0, 0}" = {
"62" = 0;
};
};
};
type = TTDelta;
},
{
horizontal = 1;
settings = {
deltaV = {
"{100, 100, 0, 0, 0, 0}" = {
"62" = 0;
};
};
};
type = TTDelta;
},
{
horizontal = 1;
settings = {
deltaV = {
"{100, 100, 0, 0, 0, 0}" = {
"62" = 0;
};
};
};
type = TTDelta;
},
{
horizontal = 1;
settings = {
deltaV = {
"{100, 100, 0, 0, 0, 0}" = {
"62" = 0;
};
};
};
type = TTDelta;
},
{
horizontal = 1;
settings = {
deltaV = {
"{100, 100, 0, 0, 0, 0}" = {
"62" = 0;
};
};
};
type = TTDelta;
},
{
horizontal = 1;
settings = {
deltaV = {
"{100, 100, 0, 0, 0, 0}" = {
"62" = 0;
};
};
};
type = TTDelta;
},
{
horizontal = 1;
settings = {
deltaV = {
"{100, 100, 0, 0, 0, 0}" = {
"62" = 0;
};
};
};
type = TTDelta;
},
{
horizontal = 1;
settings = {
deltaV = {
"{100, 100, 0, 0, 0, 0}" = {
"62" = 0;
};
};
};
type = TTDelta;
},
{
horizontal = 1;
settings = {
deltaV = {
"{100, 100, 0, 0, 0, 0}" = {
"62" = 0;
};
};
};
type = TTDelta;
},
{
horizontal = 1;
settings = {
deltaV = {
"{100, 100, 0, 0, 0, 0}" = {
"62" = 0;
};
};
};
type = TTDelta;
},
{
horizontal = 1;
settings = {
deltaV = {
"{100, 100, 0, 0, 0, 0}" = {
"62" = 0;
};
};
};
type = TTDelta;
}
);
layerId = "6F9C6BB4-2DCF-443B-A55D-9CE049090094";
shapes = (
{
attr = {
identifier = ID0x7fadb0841000;
lineCapEnd = "1";
lineCapStart = "1";
strokeHeight = 60;
strokeWidth = 65;
};
closed = 0;
nodes = (
(287,48,l),
(365,1,o),
(579,4,o),
(579,186,cs),
(579,257,o),
(512,294,o),
(443,331,cs),
(373,370,o),
(301,409,o),
(301,487,cs),
(301,585,o),
(393,634,o),
(506,695,cs),
(523,704,o),
(539,712,o),
(556,722,c)
);
},
{
attr = {
identifier = ID0x7fadb0841000;
lineCapEnd = 2;
lineCapStart = "1";
strokeHeight = 60;
strokeWidth = 65;
};
closed = 0;
nodes = (
(557,724,l),
(134,724,l),
(120,-2,l)
);
}
);
width = 674;
}
);
unicode = 7838;
},
{
color = 9;
glyphname = T;
kernLeft = T;
kernRight = T;
lastChange = "2024-07-10 18:00:46 +0000";
layers = (
{
background = {
shapes = (
{
closed = 0;
nodes = (
(198,634,l),
(178,692,o),
(226,709,o),
(267,709,cs),
(379,709,o),
(513,690,o),
(607,690,cs),
(648,690,o),
(696,707,o),
(676,765,c)
);
},
{
closed = 0;
nodes = (
(472,700,l),
(447,0,l)
);
}
);
};
layerId = "6F9C6BB4-2DCF-443B-A55D-9CE049090094";
shapes = (
{
attr = {
lineCapEnd = 2;
lineCapStart = 2;
strokeHeight = 60;
strokeWidth = 65;
};
closed = 0;
nodes = (
(412,725,l),
(399,-2,l)
);
},
{
attr = {
lineCapEnd = 2;
lineCapStart = 2;
strokeHeight = 60;
strokeWidth = 65;
};
closed = 0;
nodes = (
(121,725,l),
(683,724,l)
);
}
);
width = 805;
}
);
unicode = 84;
},
{
color = 9;
glyphname = U;
kernLeft = U;
kernRight = U;
lastChange = "2024-07-10 18:01:14 +0000";
layers = (
{
anchors = (
{
name = bottom;
pos = (367,0);
},
{
name = ogonek;
pos = (637,10);
},
{
name = top;
pos = (367,725);
},
{
name = topright;
pos = (685,700);
}
);
layerId = "6F9C6BB4-2DCF-443B-A55D-9CE049090094";
shapes = (
{
attr = {
lineCapEnd = 2;
lineCapStart = 2;
strokeHeight = 60;
strokeWidth = 65;
};
closed = 0;
nodes = (
(156,756,l),
(146,254,ls),
(143,118,o),
(219,25,o),
(351,25,cs),
(480,25,o),
(577,115,o),
(580,254,cs),
(592,756,l)
);
}
);
width = 735;
}
);
unicode = 85;
},
{
color = 9;
glyphname = V;
kernLeft = V;
kernRight = V;
lastChange = "2024-07-10 18:01:15 +0000";
layers = (
{
background = {
shapes = (
{
pos = (36,0);
ref = U;
}
);
};
layerId = "6F9C6BB4-2DCF-443B-A55D-9CE049090094";
shapes = (
{
attr = {
lineCapEnd = 1;
lineCapStart = 2;
strokeHeight = 60;
strokeWidth = 65;
};
closed = 0;
nodes = (
(111,754,l),
(350,27,l)
);
},
{
attr = {
lineCapEnd = 2;
lineCapStart = 1;
strokeHeight = 60;
strokeWidth = 65;
};
closed = 0;
nodes = (
(351,27,l),
(612,754,ls)
);
}
);
width = 721;
}
);
unicode = 86;
},
{
color = 9;
glyphname = W;
kernLeft = V;
kernRight = V;
lastChange = "2024-07-10 18:01:11 +0000";
layers = (
{
anchors = (
{
name = bottom;
pos = (597,0);
},
{
name = top;
pos = (597,725);
}
);
background = {
shapes = (
{
attr = {
lineCapEnd = "1";
lineCapStart = "1";
};
closed = 0;
nodes = (
(132,700,l),
(362,0,l),
(132,700,l)
);
}
);
};
layerId = "6F9C6BB4-2DCF-443B-A55D-9CE049090094";
shapes = (
{
attr = {
lineCapEnd = "1";
lineCapStart = 2;
strokeHeight = 60;
strokeWidth = 65;
};
closed = 0;
nodes = (
(1083,753,ls),
(843,27,l)
);
},
{
attr = {
lineCapEnd = 2;
lineCapStart = "1";
strokeHeight = 60;
strokeWidth = 65;
};
closed = 0;
nodes = (
(332,27,l),
(112,755,l)
);
},
{
attr = {
lineCapEnd = "1";
lineCapStart = "1";
strokeHeight = 60;
strokeWidth = 65;
};
closed = 0;
nodes = (
(842,27,l),
(598,727,l)
);
},
{
attr = {
lineCapEnd = "1";
lineCapStart = "1";
strokeHeight = 60;
strokeWidth = 65;
};
closed = 0;
nodes = (
(597,727,l),
(333,27,l)
);
}
);
width = 1194;
}
);
unicode = 87;
},
{
color = 9;
glyphname = X;
kernLeft = X;
kernRight = X;
lastChange = "2024-07-10 18:01:17 +0000";
layers = (
{
layerId = "6F9C6BB4-2DCF-443B-A55D-9CE049090094";
shapes = (
{
attr = {
lineCapEnd = 1;
lineCapStart = 1;
strokeHeight = 60;
strokeWidth = 65;
};
closed = 0;
nodes = (
(120,27,l),
(621,727,l)
);
},
{
attr = {
lineCapEnd = 1;
lineCapStart = 1;
strokeHeight = 60;
strokeWidth = 65;
};
closed = 0;
nodes = (
(605,27,l),
(141,727,l)
);
}
);
width = 740;
}
);
unicode = 88;
},
{
color = 9;
glyphname = Y;
kernLeft = Y;
kernRight = Y;
lastChange = "2024-07-10 18:01:16 +0000";
layers = (
{
anchors = (
{
name = bottom;
pos = (361,0);
},
{
name = top;
pos = (361,725);
},
{
name = topleft;
pos = (108,700);
}
);
layerId = "6F9C6BB4-2DCF-443B-A55D-9CE049090094";
shapes = (
{
attr = {
lineCapEnd = 1;
lineCapStart = 1;
strokeHeight = 60;
strokeWidth = 65;
};
closed = 0;
nodes = (
(603,728,l),
(343,312,l)
);
},
{
attr = {
lineCapEnd = 2;
lineCapStart = 1;
strokeHeight = 60;
strokeWidth = 65;
};
closed = 0;
nodes = (
(119,728,l),
(343,312,l),
(338,-4,l)
);
}
);
width = 722;
}
);
unicode = 89;
},
{
color = 9;
glyphname = Z;
kernLeft = Z;
kernRight = Z;
lastChange = "2024-07-10 11:54:56 +0000";
layers = (
{
background = {
shapes = (
{
closed = 0;
nodes = (
(708,230,l),
(646,83,o),
(553,-4,o),
(517,-4,cs),
(471,-4,o),
(406,6,o),
(332,6,cs),
(259,6,o),
(189,6,o),
(110,0,c)
);
},
{
closed = 0;
nodes = (
(678,740,l),
(80,-40,l)
);
},
{
closed = 0;
nodes = (
(177,700,l),
(280,686,o),
(482,688,o),
(648,700,c)
);
}
);
};
layerId = "6F9C6BB4-2DCF-443B-A55D-9CE049090094";
shapes = (
{
attr = {
lineCapEnd = 1;
lineCapStart = 1;
strokeHeight = 60;
strokeWidth = 65;
};
closed = 0;
nodes = (
(567,719,l),
(89,34,l)
);
},
{
attr = {
lineCapEnd = 1;
lineCapStart = 1;
strokeHeight = 60;
strokeWidth = 65;
};
closed = 0;
nodes = (
(99,724,l),
(567,724,l)
);
},
{
attr = {
lineCapEnd = 1;
lineCapStart = 1;
strokeHeight = 60;
strokeWidth = 65;
};
closed = 0;
nodes = (
(89,30,l),
(557,30,l)
);
}
);
width = 656;
}
);
unicode = 90;
},
{
color = 9;
glyphname = Saltillo;
lastChange = "2024-07-10 12:06:45 +0000";
layers = (
{
anchors = (
{
name = top;
pos = (146,684);
}
);
layerId = "6F9C6BB4-2DCF-443B-A55D-9CE049090094";
shapes = (
{
attr = {
identifier = ID0x7fb66282a110;
lineCapEnd = 1;
lineCapStart = 1;
strokeHeight = 60;
strokeWidth = 65;
};
closed = 0;
nodes = (
(91,321,l),
(206,479,o),
(202,628,o),
(161,697,c)
);
}
);
width = 294;
}
);
unicode = 42891;
},
{
export = 0;
glyphname = A.ss01;
lastChange = "2024-05-27 08:27:03 +0000";
layers = (
{
layerId = "6F9C6BB4-2DCF-443B-A55D-9CE049090094";
shapes = (
{
closed = 0;
nodes = (
(639,700,l),
(613,189,o),
(592,0,o),
(649,0,cs),
(684,0,o),
(778,83,o),
(840,230,c)
);
},
{
closed = 0;
nodes = (
(213,228,l),
(619,228,l)
);
},
{
closed = 0;
nodes = (
(639,700,l),
(238,113,ls),
(182,30,o),
(139,1,o),
(70,1,c)
);
}
);
width = 835;
}
);
},
{
export = 0;
glyphname = B.ss01;
lastChange = "2024-05-27 08:27:03 +0000";
layers = (
{
layerId = "6F9C6BB4-2DCF-443B-A55D-9CE049090094";
shapes = (
{
closed = 0;
nodes = (
(91,700,l),
(348,700,l),
(397,700,o),
(489,696,o),
(489,571,cs),
(489,416,o),
(316,360,o),
(251,360,c)
);
},
{
closed = 0;
nodes = (
(265,360,l),
(428,385,o),
(509,351,o),
(509,220,cs),
(509,51,o),
(347,0,o),
(193,0,cs),
(166,0,o),
(164,12,o),
(165,39,cs),
(191,700,l)
);
}
);
width = 588;
}
);
},
{
export = 0;
glyphname = C.ss01;
lastChange = "2024-05-27 08:27:03 +0000";
layers = (
{
layerId = "6F9C6BB4-2DCF-443B-A55D-9CE049090094";
shapes = (
{
closed = 0;
nodes = (
(453,681,l),
(406,694,o),
(344,700,o),
(286,700,cs),
(148,700,o),
(73,415,o),
(84,213,cs),
(91,84,o),
(148,0,o),
(230,0,cs),
(318,0,o),
(438,105,o),
(514,230,c)
);
}
);
width = 509;
}
);
},
{
export = 0;
glyphname = D.ss01;
lastChange = "2024-05-27 08:27:03 +0000";
layers = (
{
layerId = "6F9C6BB4-2DCF-443B-A55D-9CE049090094";
shapes = (
{
closed = 0;
nodes = (
(91,700,l),
(348,700,l),
(547,700,o),
(635,578,o),
(635,435,cs),
(635,237,o),
(465,0,o),
(193,0,cs),
(166,0,o),
(164,12,o),
(165,39,cs),
(191,700,l)
);
}
);
width = 714;
}
);
},
{
export = 0;
glyphname = E.ss01;
lastChange = "2024-05-27 08:27:03 +0000";
layers = (
{
layerId = "6F9C6BB4-2DCF-443B-A55D-9CE049090094";
shapes = (
{
closed = 0;
nodes = (
(91,700,l),
(472,700,l)
);
},
{
closed = 0;
nodes = (
(460,0,l),
(193,0,l),
(166,0,o),
(164,12,o),
(165,39,cs),
(191,700,l)
);
},
{
closed = 0;
nodes = (
(175,344,l),
(432,344,l)
);
}
);
width = 562;
}
);
},
{
export = 0;
glyphname = F.ss01;
lastChange = "2024-05-27 08:27:03 +0000";
layers = (
{
layerId = "6F9C6BB4-2DCF-443B-A55D-9CE049090094";
shapes = (
{
closed = 0;
nodes = (
(91,700,l),
(472,700,l)
);
},
{
closed = 0;
nodes = (
(175,334,l),
(432,334,l)
);
},
{
closed = 0;
nodes = (
(191,701,l),
(165,0,l)
);
}
);
width = 563;
}
);
},
{
export = 0;
glyphname = G.ss01;
lastChange = "2024-05-27 08:27:03 +0000";
layers = (
{
layerId = "6F9C6BB4-2DCF-443B-A55D-9CE049090094";
shapes = (
{
closed = 0;
nodes = (
(454,681,l),
(407,694,o),
(345,700,o),
(287,700,cs),
(149,700,o),
(74,415,o),
(85,213,cs),
(91,84,o),
(138,0,o),
(205,0,cs),
(278,0,o),
(387,116,o),
(450,270,c)
);
},
{
closed = 0;
nodes = (
(598,151,l),
(585,88,o),
(336,-25,o),
(336,-244,cs),
(336,-305,o),
(358,-347,o),
(397,-347,cs),
(449,-347,o),
(450,-285,o),
(450,-104,cs),
(450,361,l),
(299,361,l)
);
}
);
width = 636;
}
);
},
{
export = 0;
glyphname = H.ss01;
lastChange = "2024-05-27 08:27:03 +0000";
layers = (
{
layerId = "6F9C6BB4-2DCF-443B-A55D-9CE049090094";
shapes = (
{
closed = 0;
nodes = (
(83,320,l),
(600,320,l)
);
},
{
closed = 0;
nodes = (
(814,230,l),
(752,83,o),
(658,0,o),
(623,0,cs),
(590,0,o),
(589,38,o),
(592,119,cs),
(614,700,l)
);
},
{
closed = 0;
nodes = (
(99,700,l),
(193,700,o),
(199,699,o),
(195,588,cs),
(174,0,l)
);
}
);
width = 809;
}
);
},
{
export = 0;
glyphname = I.ss01;
lastChange = "2024-05-27 08:27:03 +0000";
layers = (
{
layerId = "6F9C6BB4-2DCF-443B-A55D-9CE049090094";
shapes = (
{
closed = 0;
nodes = (
(82,170,l),
(57,69,o),
(96,0,o),
(178,0,cs),
(283,0,o),
(374,114,o),
(379,251,cs),
(395,700,l),
(301,688,o),
(187,686,o),
(129,700,c)
);
}
);
width = 483;
}
);
},
{
export = 0;
glyphname = J.ss01;
lastChange = "2024-05-27 08:27:03 +0000";
layers = (
{
anchors = (
{
name = bottom;
pos = (184,0);
},
{
name = top;
pos = (148,650);
}
);
layerId = "6F9C6BB4-2DCF-443B-A55D-9CE049090094";
shapes = (
{
closed = 0;
nodes = (
(180,251,l),
(196,700,l),
(119,688,o),
(26,686,o),
(-22,700,c)
);
},
{
closed = 0;
nodes = (
(184,360,l),
(163,-240,ls),
(161,-299,o),
(147,-324,o),
(117,-324,cs),
(84,-324,o),
(57,-294,o),
(57,-244,cs),
(57,-166,o),
(121,-99,o),
(221,20,cs),
(280,90,o),
(344,167,o),
(372,230,c)
);
}
);
width = 367;
}
);
},
{
export = 0;
glyphname = K.ss01;
lastChange = "2024-05-27 08:27:03 +0000";
layers = (
{
layerId = "6F9C6BB4-2DCF-443B-A55D-9CE049090094";
shapes = (
{
closed = 0;
nodes = (
(534,700,l),
(217,358,l),
(430,95,ls),
(464,53,o),
(521,0,o),
(573,0,cs)
);
},
{
closed = 0;
nodes = (
(101,700,l),
(195,700,o),
(201,699,o),
(197,588,cs),
(176,0,l)
);
}
);
width = 600;
}
);
},
{
export = 0;
glyphname = L.ss01;
lastChange = "2024-05-27 08:27:03 +0000";
layers = (
{
layerId = "6F9C6BB4-2DCF-443B-A55D-9CE049090094";
shapes = (
{
closed = 0;
nodes = (
(60,-39,l),
(236,534,ls),
(266,631,o),
(323,700,o),
(392,700,cs),
(456,700,o),
(490,660,o),
(490,610,cs),
(490,501,o),
(344,411,o),
(224,411,cs),
(144,411,o),
(57,449,o),
(-14,562,c)
);
},
{
closed = 0;
nodes = (
(573,230,l),
(511,83,o),
(418,0,o),
(382,0,cs),
(297,0,o),
(212,14,o),
(127,14,cs),
(106,14,o),
(90,11,o),
(72,1,c)
);
}
);
width = 568;
}
);
},
{
export = 0;
glyphname = M.ss01;
lastChange = "2024-05-27 08:27:03 +0000";
layers = (
{
layerId = "6F9C6BB4-2DCF-443B-A55D-9CE049090094";
shapes = (
{
closed = 0;
nodes = (
(406,700,l),
(201,113,ls),
(172,30,o),
(139,1,o),
(70,1,c)
);
},
{
closed = 0;
nodes = (
(892,700,l),
(757,282,o),
(580,132,o),
(514,83,c),
(459,171,o),
(423,343,o),
(407,700,c)
);
},
{
closed = 0;
nodes = (
(1090,230,l),
(1028,83,o),
(934,0,o),
(899,0,cs),
(842,0,o),
(867,189,o),
(893,700,c)
);
}
);
width = 1085;
}
);
},
{
export = 0;
glyphname = N.ss01;
lastChange = "2024-05-27 08:27:03 +0000";
layers = (
{
layerId = "6F9C6BB4-2DCF-443B-A55D-9CE049090094";
shapes = (
{
closed = 0;
nodes = (
(614,700,l),
(565,0,l)
);
},
{
closed = 0;
nodes = (
(199,700,l),
(157,112,ls),
(151,29,o),
(126,0,o),
(57,0,c)
);
},
{
closed = 0;
nodes = (
(566,6,l),
(531,90,o),
(229,601,o),
(200,700,c)
);
}
);
width = 694;
}
);
},
{
export = 0;
glyphname = O.ss01;
lastChange = "2024-05-27 08:27:03 +0000";
layers = (
{
layerId = "6F9C6BB4-2DCF-443B-A55D-9CE049090094";
shapes = (
{
closed = 0;
nodes = (
(175,170,l),
(109,170,o),
(79,234,o),
(79,317,cs),
(79,474,o),
(183,700,o),
(358,700,cs),
(514,700,o),
(599,565,o),
(599,394,cs),
(599,205,o),
(493,0,o),
(303,0,cs),
(225,0,o),
(163,30,o),
(124,77,c)
);
}
);
width = 680;
}
);
},
{
export = 0;
glyphname = P.ss01;
lastChange = "2024-05-27 08:27:03 +0000";
layers = (
{
layerId = "6F9C6BB4-2DCF-443B-A55D-9CE049090094";
shapes = (
{
closed = 0;
nodes = (
(91,700,l),
(373,700,l),
(433,700,o),
(545,695,o),
(545,543,cs),
(545,354,o),
(335,286,o),
(255,286,c)
);
},
{
closed = 0;
nodes = (
(272,286,l)
);
},
{
closed = 0;
nodes = (
(191,-1,l),
(217,700,l)
);
}
);
width = 622;
}
);
},
{
export = 0;
glyphname = Q.ss01;
lastChange = "2024-05-27 08:27:03 +0000";
layers = (
{
layerId = "6F9C6BB4-2DCF-443B-A55D-9CE049090094";
shapes = (
{
closed = 0;
nodes = (
(102,200,l),
(84,216,o),
(79,251,o),
(79,317,cs),
(79,474,o),
(183,700,o),
(358,700,cs),
(514,700,o),
(599,565,o),
(599,394,cs),
(599,205,o),
(493,0,o),
(303,0,cs),
(225,0,o),
(143,64,o),
(143,100,cs),
(143,121,o),
(184,140,o),
(245,140,cs),
(353,140,o),
(525,79,o),
(641,-146,c)
);
}
);
width = 682;
}
);
},
{
export = 0;
glyphname = R.ss01;
lastChange = "2024-05-27 08:27:03 +0000";
layers = (
{
layerId = "6F9C6BB4-2DCF-443B-A55D-9CE049090094";
shapes = (
{
closed = 0;
nodes = (
(91,700,l),
(368,700,l),
(421,700,o),
(520,696,o),
(520,561,cs),
(520,394,o),
(363,292,o),
(265,338,c)
);
},
{
closed = 0;
nodes = (
(165,0,l),
(191,700,l)
);
},
{
closed = 0;
nodes = (
(232,378,l),
(444,95,ls),
(475,53,o),
(527,0,o),
(579,0,cs)
);
}
);
width = 650;
}
);
},
{
export = 0;
glyphname = S.ss01;
lastChange = "2024-05-27 08:27:03 +0000";
layers = (
{
hints = (
{
horizontal = 1;
origin = (0,12);
settings = {
deltaV = {
"{100, 100, 0, 0, 0, 0}" = {
"62" = 0;
};
};
};
type = TTDelta;
},
{
horizontal = 1;
origin = (0,11);
settings = {
deltaV = {
"{100, 100, 0, 0, 0, 0}" = {
"62" = 0;
};
};
};
type = TTDelta;
},
{
horizontal = 1;
origin = (0,10);
settings = {
deltaV = {
"{100, 100, 0, 0, 0, 0}" = {
"62" = 0;
};
};
};
type = TTDelta;
},
{
horizontal = 1;
origin = (0,9);
settings = {
deltaV = {
"{100, 100, 0, 0, 0, 0}" = {
"62" = 0;
};
};
};
type = TTDelta;
},
{
horizontal = 1;
origin = (0,8);
settings = {
deltaV = {
"{100, 100, 0, 0, 0, 0}" = {
"62" = 0;
};
};
};
type = TTDelta;
},
{
horizontal = 1;
origin = (0,7);
settings = {
deltaV = {
"{100, 100, 0, 0, 0, 0}" = {
"62" = 0;
};
};
};
type = TTDelta;
},
{
horizontal = 1;
origin = (0,6);
settings = {
deltaV = {
"{100, 100, 0, 0, 0, 0}" = {
"62" = 0;
};
};
};
type = TTDelta;
},
{
horizontal = 1;
origin = (0,5);
settings = {
deltaV = {
"{100, 100, 0, 0, 0, 0}" = {
"62" = 0;
};
};
};
type = TTDelta;
},
{
horizontal = 1;
origin = (0,4);
settings = {
deltaV = {
"{100, 100, 0, 0, 0, 0}" = {
"62" = 0;
};
};
};
type = TTDelta;
},
{
horizontal = 1;
origin = (0,3);
settings = {
deltaV = {
"{100, 100, 0, 0, 0, 0}" = {
"62" = 0;
};
};
};
type = TTDelta;
},
{
horizontal = 1;
origin = (0,2);
settings = {
deltaV = {
"{100, 100, 0, 0, 0, 0}" = {
"62" = 0;
};
};
};
type = TTDelta;
},
{
horizontal = 1;
origin = (0,1);
settings = {
deltaV = {
"{100, 100, 0, 0, 0, 0}" = {
"62" = 0;
};
};
};
type = TTDelta;
},
{
horizontal = 1;
origin = (0,0);
settings = {
deltaV = {
"{100, 100, 0, 0, 0, 0}" = {
"62" = 0;
};
};
};
type = TTDelta;
}
);
layerId = "6F9C6BB4-2DCF-443B-A55D-9CE049090094";
shapes = (
{
closed = 0;
nodes = (
(400,623,l),
(401,676,o),
(361,700,o),
(311,700,cs),
(236,700,o),
(138,648,o),
(115,565,cs),
(58,355,o),
(458,361,o),
(402,150,cs),
(375,50,o),
(253,0,o),
(165,0,cs),
(126,0,o),
(96,16,o),
(85,31,c)
);
},
{
closed = 0;
nodes = (
(542,230,l),
(490,94,o),
(372,2,o),
(291,0,cs),
(263,-1,o),
(215,-1,o),
(187,0,c)
);
}
);
width = 537;
}
);
},
{
export = 0;
glyphname = T.ss01;
lastChange = "2024-05-27 08:27:03 +0000";
layers = (
{
layerId = "6F9C6BB4-2DCF-443B-A55D-9CE049090094";
shapes = (
{
closed = 0;
nodes = (
(353,699,l),
(328,0,l)
);
},
{
closed = 0;
nodes = (
(70,701,l),
(188,695,o),
(420,697,o),
(610,711,c)
);
}
);
width = 680;
}
);
},
{
export = 0;
glyphname = U.ss01;
lastChange = "2024-05-27 08:27:03 +0000";
layers = (
{
layerId = "6F9C6BB4-2DCF-443B-A55D-9CE049090094";
shapes = (
{
closed = 0;
nodes = (
(757,230,l),
(695,83,o),
(601,0,o),
(566,0,cs),
(533,0,o),
(532,38,o),
(535,119,cs),
(557,700,l)
);
},
{
closed = 0;
nodes = (
(82,700,l),
(176,700,o),
(182,699,o),
(178,588,cs),
(166,173,ls),
(163,68,o),
(221,0,o),
(293,0,cs),
(369,0,o),
(474,105,o),
(540,230,c)
);
}
);
width = 752;
}
);
},
{
export = 0;
glyphname = V.ss01;
lastChange = "2024-05-27 08:27:03 +0000";
layers = (
{
layerId = "6F9C6BB4-2DCF-443B-A55D-9CE049090094";
shapes = (
{
closed = 0;
nodes = (
(71,689,l),
(90,695,o),
(190,716,o),
(192,674,cs),
(207,372,o),
(180,0,o),
(241,0,cs),
(310,0,o),
(616,360,o),
(587,605,cs),
(577,692,o),
(353,742,o),
(370,654,cs),
(378,612,o),
(547,555,o),
(699,696,cs)
);
}
);
width = 699;
}
);
},
{
export = 0;
glyphname = W.ss01;
lastChange = "2024-05-27 08:27:03 +0000";
layers = (
{
layerId = "6F9C6BB4-2DCF-443B-A55D-9CE049090094";
shapes = (
{
closed = 0;
nodes = (
(71,689,l),
(90,695,o),
(190,716,o),
(192,674,cs),
(207,372,o),
(180,0,o),
(241,0,cs),
(317,0,o),
(536,370,o),
(536,674,c),
(551,372,o),
(524,0,o),
(585,0,cs),
(644,0,o),
(910,360,o),
(881,605,cs),
(871,692,o),
(647,742,o),
(664,654,cs),
(672,612,o),
(841,555,o),
(993,696,c)
);
}
);
width = 993;
}
);
},
{
export = 0;
glyphname = X.ss01;
lastChange = "2024-05-27 08:27:03 +0000";
layers = (
{
layerId = "6F9C6BB4-2DCF-443B-A55D-9CE049090094";
shapes = (
{
closed = 0;
nodes = (
(136,0,l),
(587,700,l)
);
},
{
closed = 0;
nodes = (
(793,230,l),
(731,83,o),
(637,0,o),
(602,0,cs),
(562,0,o),
(310,440,o),
(177,670,cs),
(159,700,o),
(141,700,o),
(71,701,c)
);
}
);
width = 788;
}
);
},
{
export = 0;
glyphname = Y.ss01;
lastChange = "2024-05-27 08:27:03 +0000";
layers = (
{
layerId = "6F9C6BB4-2DCF-443B-A55D-9CE049090094";
shapes = (
{
closed = 0;
nodes = (
(543,360,l),
(556,700,l)
);
},
{
closed = 0;
nodes = (
(81,700,l),
(175,700,o),
(180,699,o),
(177,588,cs),
(165,173,ls),
(162,68,o),
(169,0,o),
(241,0,cs),
(317,0,o),
(475,192,o),
(541,317,c)
);
},
{
closed = 0;
nodes = (
(543,360,l),
(522,-240,ls),
(520,-299,o),
(506,-324,o),
(476,-324,cs),
(443,-324,o),
(416,-294,o),
(416,-244,cs),
(416,-166,o),
(480,-99,o),
(580,20,cs),
(639,90,o),
(703,167,o),
(731,230,c)
);
}
);
width = 726;
}
);
},
{
export = 0;
glyphname = Z.ss01;
lastChange = "2024-05-27 08:27:03 +0000";
layers = (
{
layerId = "6F9C6BB4-2DCF-443B-A55D-9CE049090094";
shapes = (
{
closed = 0;
nodes = (
(679,230,l),
(617,83,o),
(524,-4,o),
(488,-4,cs),
(442,-4,o),
(377,6,o),
(303,6,cs),
(230,6,o),
(160,6,o),
(81,0,c)
);
},
{
closed = 0;
nodes = (
(649,740,l),
(51,-40,l)
);
},
{
closed = 0;
nodes = (
(148,700,l),
(251,686,o),
(453,688,o),
(619,700,c)
);
}
);
width = 674;
}
);
},
{
export = 0;
glyphname = A.ss02;
lastChange = "2024-05-27 08:27:03 +0000";
layers = (
{
layerId = "6F9C6BB4-2DCF-443B-A55D-9CE049090094";
shapes = (
{
closed = 0;
nodes = (
(385,700,l),
(457,189,o),
(462,0,o),
(519,0,cs)
);
},
{
closed = 0;
nodes = (
(153,228,l),
(451,228,l)
);
},
{
closed = 0;
nodes = (
(385,700,l),
(36,0,ls)
);
},
{
closed = 0;
nodes = (
(625,150,ls),
(596,50,o),
(553,0,o),
(519,0,c)
);
}
);
width = 625;
}
);
},
{
export = 0;
glyphname = B.ss02;
lastChange = "2024-05-27 08:27:03 +0000";
layers = (
{
layerId = "6F9C6BB4-2DCF-443B-A55D-9CE049090094";
shapes = (
{
closed = 0;
nodes = (
(57,700,l),
(314,700,l),
(363,700,o),
(455,696,o),
(455,571,cs),
(455,416,o),
(282,360,o),
(217,360,c)
);
},
{
closed = 0;
nodes = (
(231,360,l),
(394,385,o),
(475,351,o),
(475,220,cs),
(475,51,o),
(313,0,o),
(159,0,cs),
(132,0,o),
(130,12,o),
(131,39,cs),
(157,700,l)
);
}
);
width = 519;
}
);
},
{
export = 0;
glyphname = C.ss02;
lastChange = "2024-05-27 08:27:03 +0000";
layers = (
{
layerId = "6F9C6BB4-2DCF-443B-A55D-9CE049090094";
shapes = (
{
closed = 0;
nodes = (
(427,679,l),
(381,691,o),
(300,700,o),
(265,700,cs),
(97,700,o),
(51,562,o),
(51,326,cs),
(51,80,o),
(143,0,o),
(246,0,cs),
(345,0,o),
(455,74,o),
(502,150,cs)
);
}
);
width = 502;
}
);
},
{
export = 0;
glyphname = D.ss02;
lastChange = "2024-05-27 08:27:03 +0000";
layers = (
{
layerId = "6F9C6BB4-2DCF-443B-A55D-9CE049090094";
shapes = (
{
closed = 0;
nodes = (
(57,700,l),
(314,700,l),
(513,700,o),
(601,578,o),
(601,435,cs),
(601,237,o),
(431,0,o),
(159,0,cs),
(132,0,o),
(130,12,o),
(131,39,cs),
(157,700,l)
);
}
);
width = 645;
}
);
},
{
export = 0;
glyphname = E.ss02;
lastChange = "2024-05-27 08:27:03 +0000";
layers = (
{
layerId = "6F9C6BB4-2DCF-443B-A55D-9CE049090094";
shapes = (
{
closed = 0;
nodes = (
(57,700,l),
(438,700,l)
);
},
{
closed = 0;
nodes = (
(426,0,l),
(159,0,l),
(132,0,o),
(130,12,o),
(131,39,cs),
(157,700,l)
);
},
{
closed = 0;
nodes = (
(141,344,l),
(398,344,l)
);
}
);
width = 494;
}
);
},
{
export = 0;
glyphname = F.ss02;
lastChange = "2024-05-27 08:27:03 +0000";
layers = (
{
layerId = "6F9C6BB4-2DCF-443B-A55D-9CE049090094";
shapes = (
{
closed = 0;
nodes = (
(57,700,l),
(438,700,l)
);
},
{
closed = 0;
nodes = (
(141,334,l),
(398,334,l)
);
},
{
closed = 0;
nodes = (
(157,701,l),
(131,0,l)
);
}
);
width = 495;
}
);
},
{
export = 0;
glyphname = G.ss02;
lastChange = "2024-05-27 08:27:03 +0000";
layers = (
{
layerId = "6F9C6BB4-2DCF-443B-A55D-9CE049090094";
shapes = (
{
closed = 0;
nodes = (
(591,151,l),
(578,88,o),
(329,-25,o),
(329,-244,cs),
(329,-305,o),
(351,-347,o),
(390,-347,cs),
(442,-347,o),
(443,-285,o),
(443,-104,cs),
(443,361,l),
(292,361,l)
);
},
{
closed = 0;
nodes = (
(427,679,l),
(381,691,o),
(300,700,o),
(265,700,cs),
(97,700,o),
(51,562,o),
(51,326,cs),
(51,80,o),
(143,0,o),
(246,0,cs),
(345,0,o),
(443,154,o),
(443,270,cs)
);
}
);
width = 591;
}
);
},
{
export = 0;
glyphname = H.ss02;
lastChange = "2024-05-27 08:27:03 +0000";
layers = (
{
layerId = "6F9C6BB4-2DCF-443B-A55D-9CE049090094";
shapes = (
{
closed = 0;
nodes = (
(59,320,l),
(576,320,l)
);
},
{
closed = 0;
nodes = (
(172,700,l),
(150,0,l)
);
},
{
closed = 0;
nodes = (
(749,150,ls),
(690,50,o),
(633,0,o),
(599,0,cs),
(566,0,o),
(565,38,o),
(568,119,cs),
(590,700,l)
);
}
);
width = 749;
}
);
},
{
export = 0;
glyphname = I.ss02;
lastChange = "2024-05-27 08:27:03 +0000";
layers = (
{
layerId = "6F9C6BB4-2DCF-443B-A55D-9CE049090094";
shapes = (
{
closed = 0;
nodes = (
(44,170,l),
(19,65,o),
(100,0,o),
(179,0,cs),
(258,0,o),
(334,65,o),
(339,212,cs),
(357,700,l),
(255,687,o),
(145,687,o),
(91,700,c)
);
}
);
width = 411;
}
);
},
{
export = 0;
glyphname = J.ss02;
lastChange = "2024-05-27 08:27:03 +0000";
layers = (
{
anchors = (
{
name = bottom;
pos = (173,0);
},
{
name = top;
pos = (173,650);
}
);
layerId = "6F9C6BB4-2DCF-443B-A55D-9CE049090094";
shapes = (
{
closed = 0;
nodes = (
(345,151,l),
(332,88,o),
(83,-25,o),
(83,-244,cs),
(83,-305,o),
(105,-347,o),
(144,-347,cs),
(196,-347,o),
(199,-285,o),
(197,-104,cs),
(195,51,o),
(190,206,o),
(197,361,cs),
(213,700,l),
(213,700,o),
(177,228,o),
(36,128,c)
);
}
);
width = 345;
}
);
},
{
export = 0;
glyphname = K.ss02;
lastChange = "2024-05-27 08:27:03 +0000";
layers = (
{
layerId = "6F9C6BB4-2DCF-443B-A55D-9CE049090094";
shapes = (
{
closed = 0;
nodes = (
(417,700,l),
(100,358,l),
(313,95,ls),
(347,53,o),
(404,0,o),
(456,0,cs),
(490,0,o),
(547,50,o),
(606,150,cs)
);
},
{
closed = 0;
nodes = (
(80,700,l),
(59,0,l)
);
}
);
width = 606;
}
);
},
{
export = 0;
glyphname = L.ss02;
lastChange = "2024-05-27 08:27:03 +0000";
layers = (
{
layerId = "6F9C6BB4-2DCF-443B-A55D-9CE049090094";
shapes = (
{
closed = 0;
nodes = (
(83,700,l),
(57,2,l),
(75,12,o),
(103,14,o),
(124,14,cs),
(209,14,o),
(185,0,o),
(270,0,cs),
(304,0,o),
(361,50,o),
(420,150,cs)
);
}
);
width = 420;
}
);
},
{
export = 0;
glyphname = M.ss02;
lastChange = "2024-05-27 08:27:03 +0000";
layers = (
{
layerId = "6F9C6BB4-2DCF-443B-A55D-9CE049090094";
shapes = (
{
closed = 0;
nodes = (
(38,0,l),
(209,700,l),
(360,83,l),
(696,700,l),
(697,189,o),
(682,0,o),
(739,0,cs)
);
},
{
closed = 0;
nodes = (
(845,150,ls),
(816,50,o),
(773,0,o),
(739,0,c)
);
}
);
width = 845;
}
);
},
{
export = 0;
glyphname = N.ss02;
lastChange = "2024-05-27 08:27:03 +0000";
layers = (
{
layerId = "6F9C6BB4-2DCF-443B-A55D-9CE049090094";
shapes = (
{
closed = 0;
nodes = (
(486,700,l),
(461,0,l),
(426,84,o),
(112,600,o),
(83,699,c),
(57,2,l)
);
}
);
width = 543;
}
);
},
{
export = 0;
glyphname = O.ss02;
lastChange = "2024-05-27 08:27:03 +0000";
layers = (
{
layerId = "6F9C6BB4-2DCF-443B-A55D-9CE049090094";
shapes = (
{
closed = 0;
nodes = (
(140,170,l),
(74,170,o),
(44,234,o),
(44,317,cs),
(44,474,o),
(148,700,o),
(323,700,cs),
(479,700,o),
(564,565,o),
(564,394,cs),
(564,205,o),
(458,0,o),
(268,0,cs),
(190,0,o),
(128,30,o),
(89,77,c)
);
}
);
width = 690;
}
);
},
{
export = 0;
glyphname = P.ss02;
lastChange = "2024-05-27 08:27:03 +0000";
layers = (
{
layerId = "6F9C6BB4-2DCF-443B-A55D-9CE049090094";
shapes = (
{
closed = 0;
nodes = (
(57,700,l),
(339,700,l),
(399,700,o),
(511,695,o),
(511,543,cs),
(511,354,o),
(301,286,o),
(221,286,c)
);
},
{
closed = 0;
nodes = (
(238,286,l)
);
},
{
closed = 0;
nodes = (
(157,-1,l),
(183,700,l)
);
}
);
width = 553;
}
);
},
{
export = 0;
glyphname = Q.ss02;
lastChange = "2024-05-27 08:27:03 +0000";
layers = (
{
layerId = "6F9C6BB4-2DCF-443B-A55D-9CE049090094";
shapes = (
{
closed = 0;
nodes = (
(68,200,l),
(50,216,o),
(45,251,o),
(45,317,cs),
(45,474,o),
(149,700,o),
(324,700,cs),
(480,700,o),
(565,565,o),
(565,394,cs),
(565,205,o),
(459,0,o),
(269,0,cs),
(191,0,o),
(109,64,o),
(109,100,cs),
(109,121,o),
(150,140,o),
(211,140,cs),
(319,140,o),
(491,79,o),
(607,-146,c)
);
}
);
width = 707;
}
);
},
{
export = 0;
glyphname = R.ss02;
lastChange = "2024-05-27 08:27:03 +0000";
layers = (
{
layerId = "6F9C6BB4-2DCF-443B-A55D-9CE049090094";
shapes = (
{
closed = 0;
nodes = (
(57,700,l),
(334,700,l),
(387,700,o),
(486,696,o),
(486,561,cs),
(486,394,o),
(329,292,o),
(231,338,c)
);
},
{
closed = 0;
nodes = (
(131,0,l),
(157,700,l)
);
},
{
closed = 0;
nodes = (
(198,378,l),
(410,95,ls),
(441,53,o),
(493,0,o),
(545,0,cs)
);
}
);
width = 581;
}
);
},
{
export = 0;
glyphname = S.ss02;
lastChange = "2024-05-27 08:27:03 +0000";
layers = (
{
hints = (
{
horizontal = 1;
origin = (0,12);
settings = {
deltaV = {
"{100, 100, 0, 0, 0, 0}" = {
"62" = 0;
};
};
};
type = TTDelta;
},
{
horizontal = 1;
origin = (0,11);
settings = {
deltaV = {
"{100, 100, 0, 0, 0, 0}" = {
"62" = 0;
};
};
};
type = TTDelta;
},
{
horizontal = 1;
origin = (0,10);
settings = {
deltaV = {
"{100, 100, 0, 0, 0, 0}" = {
"62" = 0;
};
};
};
type = TTDelta;
},
{
horizontal = 1;
origin = (0,9);
settings = {
deltaV = {
"{100, 100, 0, 0, 0, 0}" = {
"62" = 0;
};
};
};
type = TTDelta;
},
{
horizontal = 1;
origin = (0,8);
settings = {
deltaV = {
"{100, 100, 0, 0, 0, 0}" = {
"62" = 0;
};
};
};
type = TTDelta;
},
{
horizontal = 1;
origin = (0,7);
settings = {
deltaV = {
"{100, 100, 0, 0, 0, 0}" = {
"62" = 0;
};
};
};
type = TTDelta;
},
{
horizontal = 1;
origin = (0,6);
settings = {
deltaV = {
"{100, 100, 0, 0, 0, 0}" = {
"62" = 0;
};
};
};
type = TTDelta;
},
{
horizontal = 1;
origin = (0,5);
settings = {
deltaV = {
"{100, 100, 0, 0, 0, 0}" = {
"62" = 0;
};
};
};
type = TTDelta;
},
{
horizontal = 1;
origin = (0,4);
settings = {
deltaV = {
"{100, 100, 0, 0, 0, 0}" = {
"62" = 0;
};
};
};
type = TTDelta;
},
{
horizontal = 1;
origin = (0,3);
settings = {
deltaV = {
"{100, 100, 0, 0, 0, 0}" = {
"62" = 0;
};
};
};
type = TTDelta;
},
{
horizontal = 1;
origin = (0,2);
settings = {
deltaV = {
"{100, 100, 0, 0, 0, 0}" = {
"62" = 0;
};
};
};
type = TTDelta;
},
{
horizontal = 1;
origin = (0,1);
settings = {
deltaV = {
"{100, 100, 0, 0, 0, 0}" = {
"62" = 0;
};
};
};
type = TTDelta;
},
{
horizontal = 1;
origin = (0,0);
settings = {
deltaV = {
"{100, 100, 0, 0, 0, 0}" = {
"62" = 0;
};
};
};
type = TTDelta;
}
);
layerId = "6F9C6BB4-2DCF-443B-A55D-9CE049090094";
shapes = (
{
closed = 0;
nodes = (
(309,623,l),
(306,671,o),
(270,700,o),
(214,700,cs),
(128,700,o),
(42,638,o),
(28,565,cs),
(-15,355,o),
(385,361,o),
(344,150,cs),
(326,66,o),
(227,0,o),
(117,0,cs),
(84,0,o),
(49,13,o),
(35,31,c)
);
},
{
closed = 0;
nodes = (
(88,3,ls),
(301,-33,o),
(449,50,o),
(501,150,cs)
);
}
);
width = 501;
}
);
},
{
export = 0;
glyphname = T.ss02;
lastChange = "2024-05-27 08:27:03 +0000";
layers = (
{
layerId = "6F9C6BB4-2DCF-443B-A55D-9CE049090094";
shapes = (
{
closed = 0;
nodes = (
(319,700,l),
(294,0,l)
);
},
{
closed = 0;
nodes = (
(36,701,l),
(576,700,l)
);
}
);
width = 611;
}
);
},
{
export = 0;
glyphname = U.ss02;
lastChange = "2024-05-27 08:27:03 +0000";
layers = (
{
layerId = "6F9C6BB4-2DCF-443B-A55D-9CE049090094";
shapes = (
{
closed = 0;
nodes = (
(532,0,l),
(499,0,o),
(498,38,o),
(501,119,cs),
(523,700,l)
);
},
{
closed = 0;
nodes = (
(149,700,l),
(132,173,ls),
(129,68,o),
(187,0,o),
(259,0,cs),
(335,0,o),
(440,105,o),
(506,230,c)
);
},
{
closed = 0;
nodes = (
(638,150,ls),
(609,50,o),
(566,0,o),
(532,0,c)
);
}
);
width = 638;
}
);
},
{
export = 0;
glyphname = V.ss02;
lastChange = "2024-05-27 08:27:03 +0000";
layers = (
{
layerId = "6F9C6BB4-2DCF-443B-A55D-9CE049090094";
shapes = (
{
closed = 0;
nodes = (
(39,700,l),
(192,0,l),
(258,78,o),
(478,455,o),
(445,700,cs)
);
}
);
width = 492;
}
);
},
{
export = 0;
glyphname = W.ss02;
lastChange = "2024-05-27 08:27:03 +0000";
layers = (
{
layerId = "6F9C6BB4-2DCF-443B-A55D-9CE049090094";
shapes = (
{
closed = 0;
nodes = (
(39,700,l),
(192,0,l),
(258,78,o),
(478,455,o),
(445,700,c),
(598,0,l),
(664,78,o),
(884,455,o),
(851,700,cs)
);
}
);
width = 898;
}
);
},
{
export = 0;
glyphname = X.ss02;
lastChange = "2024-05-27 08:27:03 +0000";
layers = (
{
layerId = "6F9C6BB4-2DCF-443B-A55D-9CE049090094";
shapes = (
{
closed = 0;
nodes = (
(101,0,l),
(552,700,l)
);
},
{
closed = 0;
nodes = (
(567,0,l),
(527,0,o),
(254,470,o),
(121,700,c)
);
},
{
closed = 0;
nodes = (
(673,150,ls),
(644,50,o),
(601,0,o),
(567,0,c)
);
}
);
width = 673;
}
);
},
{
export = 0;
glyphname = Y.ss02;
lastChange = "2024-05-27 08:27:03 +0000";
layers = (
{
layerId = "6F9C6BB4-2DCF-443B-A55D-9CE049090094";
shapes = (
{
closed = 0;
nodes = (
(79,705,l),
(61,173,ls),
(57,68,o),
(65,0,o),
(137,0,cs),
(213,0,o),
(371,192,o),
(437,317,c)
);
},
{
closed = 0;
nodes = (
(585,151,l),
(572,88,o),
(323,-25,o),
(323,-244,cs),
(323,-305,o),
(345,-347,o),
(384,-347,cs),
(436,-347,o),
(439,-285,o),
(437,-104,cs),
(435,51,o),
(430,206,o),
(437,361,cs),
(453,700,l)
);
}
);
width = 585;
}
);
},
{
export = 0;
glyphname = Z.ss02;
lastChange = "2024-05-27 08:27:03 +0000";
layers = (
{
layerId = "6F9C6BB4-2DCF-443B-A55D-9CE049090094";
shapes = (
{
closed = 0;
nodes = (
(44,-7,l),
(103,26,o),
(397,0,o),
(464,0,cs),
(498,0,o),
(555,50,o),
(614,150,cs)
);
},
{
closed = 0;
nodes = (
(518,733,l),
(19,-40,l)
);
},
{
closed = 0;
nodes = (
(26,700,l),
(497,700,l)
);
}
);
width = 614;
}
);
},
{
export = 0;
glyphname = A.ss03;
lastChange = "2024-05-27 08:27:03 +0000";
layers = (
{
background = {
shapes = (
{
closed = 0;
nodes = (
(443,248,l),
(728,248,l)
);
},
{
closed = 0;
nodes = (
(752,700,l),
(472,261,o),
(307,1,o),
(183,1,cs),
(37,8,o),
(33,141,o),
(187,141,cs),
(271,141,o),
(403,80,o),
(493,-145,c)
);
},
{
closed = 0;
nodes = (
(950,230,l),
(888,83,o),
(794,0,o),
(759,0,cs),
(713,0,o),
(721,147,o),
(740,476,cs),
(744,552,o),
(747,604,o),
(752,700,c),
(676,700,o),
(594,682,o),
(525,667,cs),
(416,643,o),
(341,626,o),
(378,700,c)
);
}
);
};
layerId = "6F9C6BB4-2DCF-443B-A55D-9CE049090094";
shapes = (
{
closed = 0;
nodes = (
(443,248,l),
(728,248,l)
);
},
{
closed = 0;
nodes = (
(752,700,l),
(376,141,o),
(292,1,o),
(164,1,c),
(104,4,o),
(73,40,o),
(73,74,cs),
(73,108,o),
(110,141,o),
(187,141,cs),
(271,141,o),
(403,80,o),
(493,-145,c)
);
},
{
closed = 0;
nodes = (
(950,230,l),
(888,83,o),
(794,0,o),
(759,0,cs),
(713,0,o),
(721,147,o),
(740,476,cs),
(752,700,l),
(676,700,o),
(594,682,o),
(525,667,cs),
(416,643,o),
(281,604,o),
(241,700,c)
);
}
);
width = 945;
}
);
},
{
export = 0;
glyphname = C.ss03;
lastChange = "2024-05-27 08:27:03 +0000";
layers = (
{
background = {
shapes = (
{
closed = 0;
nodes = (
(600,230,l),
(524,105,o),
(404,0,o),
(316,0,cs),
(234,0,o),
(177,84,o),
(170,213,cs),
(159,415,o),
(234,700,o),
(372,700,cs),
(510,700,o),
(576,714,o),
(576,610,cs),
(576,501,o),
(430,411,o),
(310,411,cs),
(230,411,o),
(143,449,o),
(72,562,c)
);
}
);
};
layerId = "6F9C6BB4-2DCF-443B-A55D-9CE049090094";
shapes = (
{
closed = 0;
nodes = (
(600,230,l),
(524,105,o),
(404,0,o),
(316,0,cs),
(234,0,o),
(177,84,o),
(170,213,cs),
(155,490,o),
(309,697,o),
(504,697,cs),
(547,697,o),
(577,671,o),
(577,612,cs),
(578,487,o),
(437,412,o),
(291,412,cs),
(211,412,o),
(130,434,o),
(70,484,c)
);
}
);
width = 595;
}
);
},
{
export = 0;
glyphname = H.ss03;
lastChange = "2024-05-27 08:27:03 +0000";
layers = (
{
background = {
shapes = (
{
closed = 0;
nodes = (
(299,350,l),
(713,350,l)
);
},
{
closed = 0;
nodes = (
(927,230,l),
(865,83,o),
(771,0,o),
(736,0,cs),
(703,0,o),
(702,38,o),
(705,119,cs),
(727,630,ls),
(729,684,o),
(721,793,o),
(777,793,cs),
(801,793,o),
(819,773,o),
(819,750,cs),
(819,576,o),
(299,829,o),
(194,829,cs),
(149,829,o),
(129,738,o),
(157,684,c)
);
},
{
closed = 0;
nodes = (
(310,653,l),
(293,192,ls),
(289,90,o),
(254,0,o),
(173,1,cs),
(107,2,o),
(73,37,o),
(73,72,cs),
(73,107,o),
(110,141,o),
(187,141,cs),
(271,141,o),
(403,80,o),
(493,-145,c)
);
}
);
};
layerId = "6F9C6BB4-2DCF-443B-A55D-9CE049090094";
shapes = (
{
closed = 0;
nodes = (
(299,350,l),
(713,350,l)
);
},
{
closed = 0;
nodes = (
(927,230,l),
(865,83,o),
(771,0,o),
(736,0,cs),
(703,0,o),
(702,38,o),
(705,119,cs),
(727,630,ls),
(729,684,o),
(721,793,o),
(777,793,cs),
(801,793,o),
(819,773,o),
(819,750,cs),
(819,705,o),
(786,689,o),
(733,689,cs),
(587,689,o),
(362,817,o),
(222,817,cs),
(178,817,o),
(141,805,o),
(118,771,c)
);
},
{
closed = 0;
nodes = (
(310,653,l),
(293,192,ls),
(289,90,o),
(254,0,o),
(173,1,cs),
(107,2,o),
(73,37,o),
(73,72,cs),
(73,107,o),
(110,141,o),
(187,141,cs),
(271,141,o),
(403,80,o),
(493,-145,c)
);
}
);
width = 922;
}
);
},
{
export = 0;
glyphname = L.ss03;
lastChange = "2024-05-27 08:27:03 +0000";
layers = (
{
layerId = "6F9C6BB4-2DCF-443B-A55D-9CE049090094";
shapes = (
{
closed = 0;
nodes = (
(458,0,l),
(191,0,ls),
(164,0,o),
(162,12,o),
(163,39,cs),
(184,588,ls),
(188,699,o),
(182,700,o),
(88,700,c)
);
}
);
width = 546;
}
);
},
{
export = 0;
glyphname = M.ss03;
lastChange = "2024-05-27 08:27:03 +0000";
layers = (
{
background = {
shapes = (
{
closed = 0;
nodes = (
(1264,230,l),
(1202,83,o),
(1108,0,o),
(1073,0,cs),
(1016,0,o),
(1040,189,o),
(1066,700,c),
(931,273,o),
(781,104,o),
(715,54,c),
(660,144,o),
(597,335,o),
(581,700,c),
(375,113,ls),
(346,30,o),
(313,1,o),
(244,1,cs),
(166,1,o),
(84,65,o),
(84,101,cs),
(84,159,o),
(401,206,o),
(582,-145,c)
);
}
);
};
layerId = "6F9C6BB4-2DCF-443B-A55D-9CE049090094";
shapes = (
{
closed = 0;
nodes = (
(1264,230,l),
(1202,83,o),
(1108,0,o),
(1073,0,cs),
(1016,0,o),
(1040,189,o),
(1066,700,c),
(931,273,o),
(781,104,o),
(715,54,c),
(660,144,o),
(597,335,o),
(581,700,c),
(380,128,o),
(363,-8,o),
(182,1,cs),
(36,8,o),
(32,141,o),
(186,141,cs),
(270,141,o),
(402,80,o),
(492,-145,c)
);
},
{
closed = 0;
nodes = (
(581,700,l),
(522,700,o),
(458,682,o),
(404,667,cs),
(319,643,o),
(213,604,o),
(182,700,c)
);
}
);
width = 1259;
}
);
},
{
export = 0;
glyphname = T.ss03;
lastChange = "2024-05-27 08:27:03 +0000";
layers = (
{
background = {
shapes = (
{
closed = 0;
nodes = (
(128,634,l),
(108,692,o),
(156,709,o),
(197,709,cs),
(309,709,o),
(443,690,o),
(537,690,cs),
(578,690,o),
(626,707,o),
(606,765,c)
);
},
{
closed = 0;
nodes = (
(402,700,l),
(377,0,l)
);
}
);
};
layerId = "6F9C6BB4-2DCF-443B-A55D-9CE049090094";
shapes = (
{
closed = 0;
nodes = (
(77,634,l),
(57,692,o),
(105,709,o),
(146,709,cs),
(284,709,o),
(449,690,o),
(566,690,cs),
(632,690,o),
(658,732,o),
(618,759,c)
);
},
{
closed = 0;
nodes = (
(367,700,l),
(342,0,l)
);
}
);
width = 702;
}
);
},
{
color = 9;
glyphname = eth;
lastChange = "2024-07-10 09:40:41 +0000";
layers = (
{
layerId = "6F9C6BB4-2DCF-443B-A55D-9CE049090094";
shapes = (
{
ref = d;
},
{
attr = {
lineCapEnd = 2;
lineCapStart = 2;
strokeWidth = 55;
};
closed = 0;
nodes = (
(196,553,l),
(552,553,l)
);
}
);
width = 551;
}
);
unicode = 240;
},
{
color = 9;
glyphname = e;
kernLeft = e;
kernRight = e;
lastChange = "2024-07-10 09:40:41 +0000";
layers = (
{
background = {
shapes = (
{
closed = 0;
nodes = (
(195,364,ls),
(138,364,o),
(99,289,o),
(99,207,cs),
(99,76,o),
(201,-5,o),
(298,-5,cs)
);
}
);
};
guides = (
{
pos = (156,364);
}
);
layerId = "6F9C6BB4-2DCF-443B-A55D-9CE049090094";
shapes = (
{
ref = _conect.right.e;
},
{
pos = (206,0);
ref = _e.master;
}
);
width = 361;
}
);
unicode = 101;
},
{
color = 9;
glyphname = f;
kernLeft = l;
kernRight = g;
lastChange = "2024-07-10 18:05:50 +0000";
layers = (
{
background = {
shapes = (
{
attr = {
identifier = ID0x7f82cd9921d0;
lineCapEnd = "1";
lineCapStart = "1";
};
closed = 0;
nodes = (
(189,160,l),
(213,49,o),
(232,-70,o),
(223,-203,cs),
(217,-296,o),
(182,-373,o),
(129,-373,cs),
(93,-373,o),
(54,-332,o),
(67,-241,cs),
(83,-126,o),
(176,-104,o),
(339,0,c)
);
},
{
pos = (181,0);
ref = _bucle.ascendente;
},
{
ref = _f.master;
}
);
};
layerId = "6F9C6BB4-2DCF-443B-A55D-9CE049090094";
shapes = (
{
ref = _conect.left.ascendente;
},
{
pos = (182,0);
ref = _f.master;
}
);
width = 327;
}
);
unicode = 102;
},
{
color = 9;
glyphname = idotless;
kernLeft = a;
lastChange = "2024-07-10 09:42:23 +0000";
layers = (
{
anchors = (
{
name = bottom;
pos = (4,0);
},
{
name = ogonek;
pos = (101,0);
},
{
name = top;
pos = (0,419);
}
);
background = {
shapes = (
{
attr = {
identifier = ID0x7ff0482cad10;
lineCapEnd = 1;
lineCapStart = 1;
};
closed = 0;
nodes = (
(-6,360,l),
(-20,267,o),
(-46,180,o),
(-46,180,cs)
);
},
{
attr = {
identifier = ID0x7f8325d1efa0;
lineCapEnd = "1";
lineCapStart = "1";
};
closed = 0;
nodes = (
(-3,360,l),
(-3,150,ls)
);
}
);
};
layerId = "6F9C6BB4-2DCF-443B-A55D-9CE049090094";
shapes = (
{
alignment = -1;
ref = _conect.right;
},
{
attr = {
identifier = ID0x7fe6d54b4b70;
lineCapEnd = "1";
lineCapStart = "1";
strokeHeight = 60;
strokeWidth = 65;
};
closed = 0;
nodes = (
(0,390,l),
(0,180,l)
);
}
);
width = 120;
}
);
unicode = 305;
},
{
color = 9;
glyphname = jdotless;
kernLeft = a;
lastChange = "2024-07-10 10:27:12 +0000";
layers = (
{
anchors = (
{
name = bottom;
pos = (9,-319);
},
{
name = top;
pos = (0,419);
}
);
layerId = "6F9C6BB4-2DCF-443B-A55D-9CE049090094";
shapes = (
{
ref = _bucle.decendente;
},
{
attr = {
identifier = ID0x7fe6d54b4b70;
lineCapEnd = "1";
lineCapStart = "1";
strokeHeight = 60;
strokeWidth = 65;
};
closed = 0;
nodes = (
(0,391,l),
(0,181,l)
);
}
);
width = 103;
}
);
unicode = 567;
},
{
color = 9;
glyphname = oslash;
lastChange = "2024-07-10 09:51:07 +0000";
layers = (
{
layerId = "6F9C6BB4-2DCF-443B-A55D-9CE049090094";
shapes = (
{
ref = o;
},
{
attr = {
identifier = ID0x7fb6629fdce0;
lineCapEnd = 2;
lineCapStart = 2;
strokeHeight = 50;
strokeWidth = 55;
};
closed = 0;
nodes = (
(482,580,l),
(128,-120,l)
);
}
);
width = 502;
}
);
unicode = 248;
},
{
color = 9;
glyphname = oe;
lastChange = "2024-07-10 09:51:07 +0000";
layers = (
{
anchors = (
{
name = bottom;
pos = (250,0);
},
{
name = center;
pos = (250,180);
},
{
name = ogonek;
pos = (450,10);
},
{
name = top;
pos = (313,360);
},
{
name = topright;
pos = (480,360);
}
);
background = {
shapes = (
{
closed = 0;
nodes = (
(348,359,l),
(338,362,o),
(326,364,o),
(314,364,cs),
(218,364,o),
(160,286,o),
(160,178,cs),
(160,86,o),
(214,-6,o),
(314,-6,cs),
(389,-6,o),
(464,61,o),
(464,180,cs),
(464,346,o),
(301,423,o),
(301,295,cs),
(301,174,o),
(405,112,o),
(501,140,c),
(712,158,o),
(754,364,o),
(639,364,cs),
(582,364,o),
(501,304,o),
(501,175,cs),
(501,59,o),
(592,-5,o),
(697,-5,c)
);
}
);
};
layerId = "6F9C6BB4-2DCF-443B-A55D-9CE049090094";
shapes = (
{
ref = _conect.left;
},
{
pos = (180,0);
ref = _or.master;
}
);
width = 685;
}
);
unicode = 339;
},
{
color = 9;
glyphname = thorn;
lastChange = "2024-07-10 09:54:01 +0000";
layers = (
{
layerId = "6F9C6BB4-2DCF-443B-A55D-9CE049090094";
shapes = (
{
attr = {
identifier = ID0x7fb6623a3b60;
lineCapEnd = "1";
lineCapStart = "1";
strokeHeight = 60;
strokeWidth = 65;
};
closed = 0;
nodes = (
(186,725,l),
(186,330,l)
);
},
{
ref = p;
}
);
width = 540;
}
);
unicode = 254;
},
{
color = 9;
glyphname = s;
kernLeft = a;
kernRight = s;
lastChange = "2024-07-10 09:54:38 +0000";
layers = (
{
background = {
shapes = (
{
closed = 0;
nodes = (
(499,-5,l),
(465,-5,o),
(411,0,o),
(387,2,c)
);
}
);
};
layerId = "6F9C6BB4-2DCF-443B-A55D-9CE049090094";
shapes = (
{
ref = _entra_s;
},
{
pos = (236,0);
ref = _s.master;
}
);
width = 501;
}
);
unicode = 115;
},
{
color = 9;
glyphname = germandbls;
lastChange = "2024-07-10 18:01:22 +0000";
layers = (
{
anchors = (
{
name = center;
pos = (235,180);
}
);
background = {
shapes = (
{
pos = (151,0);
ref = _entra_s;
},
{
pos = (387,0);
ref = _s.master;
},
{
attr = {
identifier = ID0x7f7bd5659180;
lineCapEnd = "1";
lineCapStart = "1";
};
closed = 0;
nodes = (
(525,6,l),
(557,-1,o),
(591,-5,o),
(645,-5,c)
);
}
);
};
layerId = "6F9C6BB4-2DCF-443B-A55D-9CE049090094";
shapes = (
{
pos = (91,0);
ref = _conect.left.long;
},
{
attr = {
lineCapEnd = 1;
lineCapStart = 1;
strokeHeight = 60;
strokeWidth = 65;
};
closed = 0;
nodes = (
(267,-143,l),
(283,727,l)
);
},
{
attr = {
identifier = ID0x7fadae4621b0;
lineCapEnd = 1;
lineCapStart = 1;
strokeHeight = 60;
strokeWidth = 65;
};
closed = 0;
nodes = (
(271,91,l),
(271,265,o),
(338,729,o),
(500,729,cs),
(552,729,o),
(578,679,o),
(578,618,cs),
(578,516,o),
(488,394,o),
(402,390,c)
);
},
{
attr = {
identifier = ID0x7f7bd5659180;
lineCapEnd = 1;
lineCapStart = 1;
strokeHeight = 60;
strokeWidth = 65;
};
closed = 0;
nodes = (
(475,37,l),
(507,30,o),
(556,25,o),
(626,25,c)
);
},
{
attr = {
identifier = ID0x7fadae4621b0;
lineCapEnd = 1;
lineCapStart = 1;
strokeHeight = 60;
strokeWidth = 65;
};
closed = 0;
nodes = (
(403,390,l),
(540,383,o),
(626,295,o),
(626,195,cs),
(626,94,o),
(547,1,o),
(414,51,c)
);
}
);
width = 727;
}
);
unicode = 223;
},
{
color = 9;
glyphname = saltillo;
lastChange = "2024-07-10 10:03:51 +0000";
layers = (
{
anchors = (
{
name = top;
pos = (162,580);
}
);
layerId = "6F9C6BB4-2DCF-443B-A55D-9CE049090094";
shapes = (
{
attr = {
identifier = ID0x7fb6623c2950;
lineCapEnd = 1;
lineCapStart = 1;
strokeHeight = 60;
strokeWidth = 65;
};
closed = 0;
nodes = (
(107,227,l),
(222,335,o),
(218,484,o),
(177,553,c)
);
}
);
width = 312;
}
);
unicode = 42892;
},
{
color = 9;
glyphname = a.fina;
lastChange = "2024-07-10 17:37:14 +0000";
layers = (
{
background = {
shapes = (
{
ref = _conect.left;
},
{
pos = (158,0);
ref = _a.master;
},
{
attr = {
identifier = ID0x7fdbcbec0790;
lineCapEnd = "1";
lineCapStart = "1";
};
closed = 0;
nodes = (
(429,150,l),
(429,16,o),
(479,-5,o),
(530,-5,cs),
(560,-5,o),
(578,14,o),
(600,51,c)
);
}
);
};
layerId = "6F9C6BB4-2DCF-443B-A55D-9CE049090094";
shapes = (
{
ref = a;
},
{
pos = (581,0);
ref = _final;
}
);
width = 728;
}
);
},
{
color = 9;
glyphname = o.fina;
lastChange = "2024-07-10 17:56:31 +0000";
layers = (
{
background = {
shapes = (
{
closed = 0;
nodes = (
(613,163,l),
(587,116,o),
(540,95,o),
(491,95,cs),
(405,95,o),
(312,162,o),
(312,276,cs),
(312,322,o),
(335,359,o),
(366,359,cs),
(414,359,o),
(484,289,o),
(484,180,cs),
(484,61,o),
(409,-6,o),
(334,-6,cs),
(234,-6,o),
(180,86,o),
(180,178,cs),
(180,286,o),
(238,364,o),
(334,364,cs),
(346,364,o),
(358,362,o),
(368,359,c)
);
}
);
};
layerId = "6F9C6BB4-2DCF-443B-A55D-9CE049090094";
shapes = (
{
ref = _conect.left;
},
{
pos = (180,0);
ref = _o.master;
},
{
pos = (540,0);
ref = _rulo.o.fina;
}
);
width = 673;
}
);
},
{
color = 9;
glyphname = e.from.bottom;
kernLeft = e;
kernRight = e;
lastChange = "2024-07-10 18:02:12 +0000";
layers = (
{
anchors = (
{
name = bottom;
pos = (183,0);
},
{
name = ogonek;
pos = (319,10);
},
{
name = top;
pos = (229,419);
}
);
background = {
shapes = (
{
attr = {
identifier = ID0x7f80f006cfb0;
lineCapEnd = "1";
lineCapStart = "1";
};
closed = 0;
nodes = (
(-102,360,l),
(-102,-129,ls),
(-102,-310,o),
(-119,-373,o),
(-171,-373,cs),
(-221,-373,o),
(-241,-330,o),
(-241,-278,cs),
(-241,-117,o),
(-126,-99,o),
(1,0,c),
(109,45,o),
(298,121,o),
(298,274,cs),
(298,326,o),
(271,364,o),
(219,364,cs),
(165,364,o),
(131,297,o),
(131,221,cs),
(131,117,o),
(193,-5,o),
(353,-5,cs)
);
}
);
};
layerId = "6F9C6BB4-2DCF-443B-A55D-9CE049090094";
shapes = (
{
attr = {
identifier = ID0x7f80f006cfb0;
lineCapEnd = "1";
lineCapStart = "1";
strokeHeight = 60;
strokeWidth = 65;
};
closed = 0;
nodes = (
(1,30,l),
(36,58,o),
(101,103,o),
(150,140,c)
);
},
{
attr = {
identifier = ID0x7f80f006cfb0;
lineCapEnd = "1";
lineCapStart = "1";
strokeHeight = 60;
strokeWidth = 65;
};
closed = 0;
nodes = (
(154,137,l),
(239,175,o),
(301,233,o),
(301,310,cs),
(301,359,o),
(276,394,o),
(220,394,cs),
(165,394,o),
(127,335,o),
(127,257,cs),
(127,154,o),
(173,25,o),
(354,25,cs)
);
}
);
width = 354;
}
);
},
{
color = 9;
glyphname = s.from.bottom;
lastChange = "2024-07-10 10:22:17 +0000";
layers = (
{
background = {
shapes = (
{
attr = {
lineCapEnd = "1";
lineCapStart = "1";
};
closed = 0;
nodes = (
(190,20,l),
(238,-5,o),
(353,-15,o),
(430,-5,cs),
(505,5,o),
(548,58,o),
(588,180,c)
);
}
);
};
layerId = "6F9C6BB4-2DCF-443B-A55D-9CE049090094";
shapes = (
{
ref = _conect.from.bottom.long;
},
{
pos = (206,0);
ref = _s.master;
}
);
width = 471;
}
);
},
{
color = 9;
glyphname = e.from.middle;
kernLeft = e;
kernRight = e;
lastChange = "2024-07-10 10:25:47 +0000";
layers = (
{
anchors = (
{
name = bottom;
pos = (165,0);
},
{
name = ogonek;
pos = (280,10);
},
{
name = top;
pos = (225,419);
}
);
background = {
shapes = (
{
closed = 0;
nodes = (
(309,-5,ls),
(298,-7,o),
(287,-7,o),
(277,-7,cs),
(52,-7,o),
(69,363,o),
(241,363,cs),
(276,363,o),
(308,332,o),
(308,274,cs),
(308,160,o),
(185,112,o),
(20,112,cs),
(-76,112,o),
(-181,174,o),
(-181,295,cs)
);
}
);
};
layerId = "6F9C6BB4-2DCF-443B-A55D-9CE049090094";
shapes = (
{
attr = {
lineCapEnd = 1;
lineCapStart = 1;
strokeHeight = 60;
strokeWidth = 65;
};
closed = 0;
nodes = (
(329,25,l),
(167,25,o),
(106,129,o),
(106,226,cs),
(106,329,o),
(151,394,o),
(223,394,cs),
(281,394,o),
(304,356,o),
(304,304,cs),
(304,192,o),
(149,120,o),
(0,120,c)
);
}
);
width = 329;
}
);
},
{
color = 9;
glyphname = e.from.top;
kernLeft = e;
kernRight = e;
lastChange = "2024-07-10 18:01:09 +0000";
layers = (
{
anchors = (
{
name = bottom;
pos = (236,0);
},
{
name = ogonek;
pos = (322,10);
},
{
name = top;
pos = (270,419);
}
);
background = {
shapes = (
{
closed = 0;
nodes = (
(127,218,l),
(331,218,o),
(365,266,o),
(365,318,cs),
(365,397,o),
(158,400,o),
(158,175,cs),
(158,59,o),
(249,-5,o),
(354,-5,c)
);
}
);
};
guides = (
{
pos = (283,364);
}
);
layerId = "6F9C6BB4-2DCF-443B-A55D-9CE049090094";
shapes = (
{
attr = {
lineCapEnd = 1;
lineCapStart = 1;
strokeHeight = 60;
strokeWidth = 65;
};
closed = 0;
nodes = (
(107,248,l),
(122,248,o),
(149,248,o),
(162,249,c),
(191,242,o),
(217,239,o),
(239,239,cs),
(321,239,o),
(366,295,o),
(366,340,cs),
(366,371,o),
(345,394,o),
(299,394,cs),
(238,394,o),
(158,345,o),
(158,205,cs),
(158,89,o),
(249,25,o),
(354,25,c)
);
}
);
width = 467;
}
);
},
{
color = 9;
glyphname = s.from.top;
lastChange = "2024-07-10 16:44:51 +0000";
layers = (
{
background = {
shapes = (
{
attr = {
lineCapEnd = "1";
lineCapStart = "1";
};
closed = 0;
nodes = (
(48,29,l),
(147,-14,o),
(375,-59,o),
(440,180,c)
);
}
);
};
layerId = "6F9C6BB4-2DCF-443B-A55D-9CE049090094";
shapes = (
{
ref = _conect.from.top.i;
},
{
pos = (68,0);
ref = _s.master;
}
);
width = 333;
}
);
metricRight = a;
},
{
color = 9;
glyphname = c.from.bottom.fina;
lastChange = "2024-07-10 17:52:10 +0000";
layers = (
{
background = {
shapes = (
{
attr = {
identifier = ID0x7fba9c16c3a0;
lineCapEnd = "1";
lineCapStart = "1";
};
closed = 0;
nodes = (
(363,344,l),
(344,355,o),
(320,363,o),
(295,363,cs),
(203,363,o),
(160,272,o),
(160,177,cs),
(160,50,o),
(259,-5,o),
(349,-5,cs),
(407,-5,o),
(462,17,o),
(485,58,c)
);
}
);
};
layerId = "6F9C6BB4-2DCF-443B-A55D-9CE049090094";
shapes = (
{
ref = _conect.from.bottom;
},
{
pos = (160,0);
ref = _c.fina.master;
},
{
pos = (348,0);
ref = _final.base.long;
}
);
width = 525;
}
);
},
{
color = 9;
glyphname = x.from.base.long.fina;
lastChange = "2024-07-10 17:57:50 +0000";
layers = (
{
background = {
shapes = (
{
ref = _conect.from.base.long.to.arco;
},
{
closed = 0;
nodes = (
(379,360,l),
(457,360,o),
(522,299,o),
(522,179,cs),
(522,48,o),
(451,-5,o),
(345,-5,c)
);
},
{
pos = (522,0);
ref = _c.fina.master;
}
);
};
layerId = "6F9C6BB4-2DCF-443B-A55D-9CE049090094";
shapes = (
{
ref = _conect.from.base.long.to.arco;
},
{
pos = (380,0);
ref = _x.master;
},
{
pos = (694,0);
ref = _final.base.long;
}
);
width = 871;
}
);
},
{
glyphname = zero;
lastChange = "2024-07-10 14:14:16 +0000";
layers = (
{
background = {
shapes = (
{
attr = {
lineCapEnd = "1";
lineCapStart = "1";
strokeHeight = 45;
strokeWidth = 40;
};
closed = 1;
nodes = (
(43,495,o),
(146,700,o),
(336,700,cs),
(492,700,o),
(579,565,o),
(582,394,cs),
(586,205,o),
(483,0,o),
(293,0,cs),
(137,0,o),
(50,135,o),
(47,306,cs)
);
}
);
};
layerId = "6F9C6BB4-2DCF-443B-A55D-9CE049090094";
shapes = (
{
attr = {
strokeHeight = 60;
strokeWidth = 65;
};
closed = 0;
nodes = (
(335,730,l),
(182,730,o),
(108,572,o),
(108,378,cs),
(108,183,o),
(182,25,o),
(335,25,cs),
(488,25,o),
(562,183,o),
(562,378,cs),
(562,572,o),
(488,730,o),
(335,730,c)
);
}
);
width = 671;
}
);
unicode = 48;
},
{
glyphname = one;
lastChange = "2024-07-10 13:05:18 +0000";
layers = (
{
layerId = "6F9C6BB4-2DCF-443B-A55D-9CE049090094";
shapes = (
{
attr = {
identifier = ID0x7fea05ea0240;
lineCapEnd = 1;
lineCapStart = 1;
strokeHeight = 60;
strokeWidth = 65;
};
closed = 0;
nodes = (
(289,730,l),
(276,30,l)
);
},
{
attr = {
lineCapEnd = 1;
lineCapStart = 1;
strokeHeight = 60;
strokeWidth = 65;
};
closed = 0;
nodes = (
(92,450,l),
(162,533,o),
(227,628,o),
(287,730,c)
);
}
);
width = 414;
}
);
unicode = 49;
},
{
glyphname = two;
lastChange = "2024-07-10 13:05:18 +0000";
layers = (
{
hints = (
{
horizontal = 1;
origin = (0,10);
settings = {
deltaV = {
"{100, 100, 0, 0, 0, 0}" = {
"62" = 0;
};
};
};
type = TTDelta;
},
{
horizontal = 1;
origin = (0,10);
settings = {
deltaV = {
"{100, 100, 0, 0, 0, 0}" = {
"62" = 0;
};
};
};
type = TTDelta;
},
{
horizontal = 1;
origin = (0,10);
settings = {
deltaV = {
"{100, 100, 0, 0, 0, 0}" = {
"62" = 0;
};
};
};
type = TTDelta;
},
{
horizontal = 1;
origin = (0,10);
settings = {
deltaV = {
"{100, 100, 0, 0, 0, 0}" = {
"62" = 0;
};
};
};
type = TTDelta;
},
{
horizontal = 1;
origin = (0,6);
settings = {
deltaV = {
"{100, 100, 0, 0, 0, 0}" = {
"62" = 0;
};
};
};
type = TTDelta;
},
{
horizontal = 1;
origin = (0,6);
settings = {
deltaV = {
"{100, 100, 0, 0, 0, 0}" = {
"62" = 0;
};
};
};
type = TTDelta;
},
{
horizontal = 1;
origin = (0,6);
settings = {
deltaV = {
"{100, 100, 0, 0, 0, 0}" = {
"62" = 0;
};
};
};
type = TTDelta;
},
{
horizontal = 1;
origin = (0,0);
settings = {
deltaV = {
"{100, 100, 0, 0, 0, 0}" = {
"62" = 0;
};
};
};
type = TTDelta;
},
{
horizontal = 1;
origin = (0,0);
settings = {
deltaV = {
"{100, 100, 0, 0, 0, 0}" = {
"62" = 0;
};
};
};
type = TTDelta;
},
{
horizontal = 1;
origin = (0,0);
settings = {
deltaV = {
"{100, 100, 0, 0, 0, 0}" = {
"62" = 0;
};
};
};
type = TTDelta;
},
{
horizontal = 1;
origin = (0,0);
settings = {
deltaV = {
"{100, 100, 0, 0, 0, 0}" = {
"62" = 0;
};
};
};
type = TTDelta;
},
{
horizontal = 1;
origin = (0,0);
settings = {
deltaV = {
"{100, 100, 0, 0, 0, 0}" = {
"62" = 0;
};
};
};
type = TTDelta;
},
{
horizontal = 1;
origin = (0,0);
settings = {
deltaV = {
"{100, 100, 0, 0, 0, 0}" = {
"62" = 0;
};
};
};
type = TTDelta;
}
);
layerId = "6F9C6BB4-2DCF-443B-A55D-9CE049090094";
shapes = (
{
attr = {
identifier = ID0x7fea05e04080;
lineCapEnd = 1;
lineCapStart = 1;
strokeHeight = 60;
strokeWidth = 65;
};
closed = 0;
nodes = (
(119,693,l),
(156,717,o),
(230,728,o),
(273,728,cs),
(365,728,o),
(452,677,o),
(452,585,cs),
(452,479,o),
(393,394,o),
(227,193,cs),
(94,32,l)
);
},
{
attr = {
identifier = ID0x7fea05e04080;
lineCapEnd = 1;
lineCapStart = 1;
strokeHeight = 60;
strokeWidth = 65;
};
closed = 0;
nodes = (
(92,30,l),
(490,30,l)
);
}
);
width = 588;
}
);
unicode = 50;
},
{
glyphname = three;
lastChange = "2024-07-10 13:45:57 +0000";
layers = (
{
hints = (
{
horizontal = 1;
origin = (1,9);
settings = {
deltaV = {
"{100, 100, 0, 0, 0, 0}" = {
"62" = 0;
};
};
};
type = TTDelta;
},
{
horizontal = 1;
origin = (1,9);
settings = {
deltaV = {
"{100, 100, 0, 0, 0, 0}" = {
"62" = 0;
};
};
};
type = TTDelta;
},
{
horizontal = 1;
origin = (1,9);
settings = {
deltaV = {
"{100, 100, 0, 0, 0, 0}" = {
"62" = 0;
};
};
};
type = TTDelta;
},
{
horizontal = 1;
origin = (2,6);
settings = {
deltaV = {
"{100, 100, 0, 0, 0, 0}" = {
"62" = 0;
};
};
};
type = TTDelta;
},
{
horizontal = 1;
origin = (0,6);
settings = {
deltaV = {
"{100, 100, 0, 0, 0, 0}" = {
"62" = 0;
};
};
};
type = TTDelta;
},
{
horizontal = 1;
origin = (0,6);
settings = {
deltaV = {
"{100, 100, 0, 0, 0, 0}" = {
"62" = 0;
};
};
};
type = TTDelta;
},
{
horizontal = 1;
origin = (0,6);
settings = {
deltaV = {
"{100, 100, 0, 0, 0, 0}" = {
"62" = 0;
};
};
};
type = TTDelta;
},
{
horizontal = 1;
origin = (0,0);
settings = {
deltaV = {
"{100, 100, 0, 0, 0, 0}" = {
"62" = 0;
};
};
};
type = TTDelta;
},
{
horizontal = 1;
origin = (0,0);
settings = {
deltaV = {
"{100, 100, 0, 0, 0, 0}" = {
"62" = 0;
};
};
};
type = TTDelta;
},
{
horizontal = 1;
origin = (0,0);
settings = {
deltaV = {
"{100, 100, 0, 0, 0, 0}" = {
"62" = 0;
};
};
};
type = TTDelta;
},
{
horizontal = 1;
origin = (0,0);
settings = {
deltaV = {
"{100, 100, 0, 0, 0, 0}" = {
"62" = 0;
};
};
};
type = TTDelta;
},
{
horizontal = 1;
origin = (0,0);
settings = {
deltaV = {
"{100, 100, 0, 0, 0, 0}" = {
"62" = 0;
};
};
};
type = TTDelta;
},
{
horizontal = 1;
origin = (0,0);
settings = {
deltaV = {
"{100, 100, 0, 0, 0, 0}" = {
"62" = 0;
};
};
};
type = TTDelta;
}
);
layerId = "6F9C6BB4-2DCF-443B-A55D-9CE049090094";
shapes = (
{
attr = {
lineCapEnd = 2;
lineCapStart = 2;
strokeHeight = 60;
strokeWidth = 65;
};
closed = 0;
nodes = (
(107,694,l),
(143,718,o),
(187,729,o),
(230,729,cs),
(322,729,o),
(410,678,o),
(411,586,cs),
(414,431,o),
(280,408,o),
(129,388,c)
);
},
{
attr = {
lineCapEnd = 2;
lineCapStart = 2;
strokeHeight = 60;
strokeWidth = 65;
};
closed = 0;
nodes = (
(128,390,l),
(321,390,o),
(435,349,o),
(437,218,cs),
(439,74,o),
(326,25,o),
(223,25,cs),
(160,25,o),
(101,40,o),
(68,63,c)
);
}
);
width = 539;
}
);
unicode = 51;
},
{
glyphname = four;
lastChange = "2024-07-10 13:45:57 +0000";
layers = (
{
layerId = "6F9C6BB4-2DCF-443B-A55D-9CE049090094";
shapes = (
{
attr = {
identifier = ID0x7fe9ed50ee20;
lineCapEnd = 1;
lineCapStart = 1;
strokeHeight = 60;
strokeWidth = 65;
};
closed = 0;
nodes = (
(434,480,l),
(434,30,l)
);
},
{
attr = {
lineCapEnd = 1;
lineCapStart = 1;
strokeHeight = 60;
strokeWidth = 65;
};
closed = 0;
nodes = (
(180,733,l),
(99,272,l)
);
},
{
attr = {
lineCapEnd = 1;
lineCapStart = 1;
strokeHeight = 60;
strokeWidth = 65;
};
closed = 0;
nodes = (
(99,269,l),
(547,269,l)
);
}
);
width = 663;
}
);
unicode = 52;
},
{
glyphname = five;
lastChange = "2024-07-10 13:45:58 +0000";
layers = (
{
layerId = "6F9C6BB4-2DCF-443B-A55D-9CE049090094";
shapes = (
{
attr = {
lineCapEnd = 1;
lineCapStart = "2";
strokeHeight = 60;
strokeWidth = 65;
};
closed = 0;
nodes = (
(75,66,l),
(111,41,o),
(175,25,o),
(244,25,cs),
(404,25,o),
(452,131,o),
(452,241,cs),
(452,344,o),
(407,445,o),
(261,445,cs),
(203,445,o),
(143,433,o),
(102,422,c)
);
},
{
attr = {
lineCapEnd = "2";
lineCapStart = 1;
strokeHeight = 60;
strokeWidth = 65;
};
closed = 0;
nodes = (
(104,426,l),
(104,724,l),
(449,724,l)
);
}
);
width = 555;
}
);
unicode = 53;
},
{
glyphname = six;
lastChange = "2024-07-10 14:14:16 +0000";
layers = (
{
layerId = "6F9C6BB4-2DCF-443B-A55D-9CE049090094";
shapes = (
{
attr = {
identifier = ID0x7fe9ed5b6e30;
lineCapEnd = 2;
lineCapStart = 1;
strokeHeight = 60;
strokeWidth = 65;
};
closed = 0;
nodes = (
(421,706,l),
(397,721,o),
(351,729,o),
(321,729,cs),
(186,729,o),
(116,577,o),
(109,383,cs),
(102,183,o),
(160,25,o),
(296,25,cs),
(426,25,o),
(487,129,o),
(488,234,cs),
(490,340,o),
(432,451,o),
(323,451,cs),
(254,451,o),
(163,407,o),
(101,308,c)
);
}
);
width = 590;
}
);
metricLeft = zero;
unicode = 54;
},
{
glyphname = seven;
lastChange = "2024-07-10 14:14:16 +0000";
layers = (
{
background = {
shapes = (
{
attr = {
identifier = ID0x7fe9ed852dc0;
lineCapEnd = 1;
lineCapStart = 1;
};
closed = 0;
nodes = (
(463,695,l),
(175,4,l)
);
},
{
attr = {
identifier = ID0x7fe9ed852dc0;
lineCapEnd = 1;
lineCapStart = 1;
};
closed = 0;
nodes = (
(113,700,l),
(463,700,l)
);
},
{
attr = {
identifier = ID0x7fe9ed852dc0;
lineCapEnd = "1";
lineCapStart = "1";
};
closed = 0;
nodes = (
(164,340,l),
(431,340,l)
);
}
);
};
layerId = "6F9C6BB4-2DCF-443B-A55D-9CE049090094";
shapes = (
{
attr = {
identifier = ID0x7fe9ed852dc0;
lineCapEnd = 1;
lineCapStart = 1;
strokeHeight = 60;
strokeWidth = 65;
};
closed = 0;
nodes = (
(93,724,l),
(473,724,l)
);
},
{
attr = {
identifier = ID0x7fe9ed852dc0;
lineCapEnd = "1";
lineCapStart = "1";
strokeHeight = 60;
strokeWidth = 65;
};
closed = 0;
nodes = (
(164,370,l),
(431,370,l)
);
},
{
attr = {
identifier = ID0x7fe9ed852dc0;
lineCapEnd = 1;
lineCapStart = 1;
strokeHeight = 60;
strokeWidth = 65;
};
closed = 0;
nodes = (
(471,722,l),
(170,25,l)
);
}
);
width = 566;
}
);
unicode = 55;
},
{
glyphname = eight;
lastChange = "2024-07-10 14:14:16 +0000";
layers = (
{
background = {
shapes = (
{
attr = {
identifier = ID0x7fe9ef5fe080;
lineCapEnd = "1";
lineCapStart = "1";
};
closed = 0;
nodes = (
(361,352,ls),
(439,408,o),
(478,485,o),
(478,552,cs),
(478,632,o),
(422,699,o),
(314,699,cs),
(222,699,o),
(137,648,o),
(142,556,cs),
(147,464,o),
(233,411,o),
(313,367,cs),
(397,321,o),
(480,274,o),
(487,188,cs),
(498,44,o),
(383,-5,o),
(300,-5,cs),
(170,-5,o),
(103,76,o),
(103,174,cs),
(103,252,o),
(151,339,o),
(249,392,cs)
);
}
);
};
hints = (
{
horizontal = 1;
place = (0,0);
settings = {
deltaV = {
"{100, 100, 0, 0, 0, 0}" = {
"62" = 0;
};
};
};
type = TTDelta;
},
{
horizontal = 1;
place = (0,0);
settings = {
deltaV = {
"{100, 100, 0, 0, 0, 0}" = {
"62" = 0;
};
};
};
type = TTDelta;
},
{
horizontal = 1;
place = (0,0);
settings = {
deltaV = {
"{100, 100, 0, 0, 0, 0}" = {
"62" = 0;
};
};
};
type = TTDelta;
},
{
horizontal = 1;
place = (174,0);
settings = {
deltaV = {
"{100, 100, 0, 0, 0, 0}" = {
"62" = 0;
};
};
};
type = TTDelta;
},
{
horizontal = 1;
place = (511,0);
settings = {
deltaV = {
"{100, 100, 0, 0, 0, 0}" = {
"62" = 0;
};
};
};
type = TTDelta;
},
{
horizontal = 1;
place = (511,0);
settings = {
deltaV = {
"{100, 100, 0, 0, 0, 0}" = {
"62" = 0;
};
};
};
type = TTDelta;
},
{
horizontal = 1;
place = (511,0);
settings = {
deltaV = {
"{100, 100, 0, 0, 0, 0}" = {
"62" = 0;
};
};
};
type = TTDelta;
},
{
horizontal = 1;
place = (699,0);
settings = {
deltaV = {
"{100, 100, 0, 0, 0, 0}" = {
"62" = 0;
};
};
};
type = TTDelta;
},
{
horizontal = 1;
place = (699,0);
settings = {
deltaV = {
"{100, 100, 0, 0, 0, 0}" = {
"62" = 0;
};
};
};
type = TTDelta;
},
{
horizontal = 1;
place = (699,0);
settings = {
deltaV = {
"{100, 100, 0, 0, 0, 0}" = {
"62" = 0;
};
};
};
type = TTDelta;
},
{
horizontal = 1;
place = (699,0);
settings = {
deltaV = {
"{100, 100, 0, 0, 0, 0}" = {
"62" = 0;
};
};
};
type = TTDelta;
},
{
horizontal = 1;
place = (699,0);
settings = {
deltaV = {
"{100, 100, 0, 0, 0, 0}" = {
"62" = 0;
};
};
};
type = TTDelta;
},
{
horizontal = 1;
place = (699,0);
settings = {
deltaV = {
"{100, 100, 0, 0, 0, 0}" = {
"62" = 0;
};
};
};
type = TTDelta;
}
);
layerId = "6F9C6BB4-2DCF-443B-A55D-9CE049090094";
shapes = (
{
attr = {
identifier = ID0x7fe9ef5fe080;
lineCapEnd = "1";
lineCapStart = "1";
strokeHeight = 60;
strokeWidth = 65;
};
closed = 0;
nodes = (
(327,390,ls),
(430,427,o),
(478,505,o),
(478,577,cs),
(478,657,o),
(418,730,o),
(302,730,cs),
(184,730,o),
(119,656,o),
(119,576,cs),
(119,513,o),
(161,446,o),
(249,412,cs),
(343,375,ls),
(448,333,o),
(492,263,o),
(492,196,cs),
(492,105,o),
(412,20,o),
(296,20,cs),
(178,20,o),
(103,102,o),
(103,193,cs),
(103,266,o),
(152,345,o),
(267,390,cs)
);
}
);
width = 596;
}
);
unicode = 56;
},
{
glyphname = nine;
lastChange = "2024-07-10 14:14:16 +0000";
layers = (
{
background = {
shapes = (
{
pos = (-11,0);
ref = nine.alt;
}
);
};
layerId = "6F9C6BB4-2DCF-443B-A55D-9CE049090094";
shapes = (
{
attr = {
identifier = ID0x7fe9ed288520;
lineCapEnd = 1;
lineCapStart = 1;
strokeHeight = 60;
strokeWidth = 65;
};
closed = 0;
nodes = (
(428,27,l),
(455,584,ls),
(460,678,o),
(375,729,o),
(288,729,cs),
(158,729,o),
(101,634,o),
(101,538,cs),
(101,443,o),
(158,348,o),
(257,348,cs),
(326,348,o),
(399,380,o),
(446,442,c)
);
}
);
width = 570;
}
);
unicode = 57;
},
{
glyphname = nine.alt;
lastChange = "2024-07-10 12:16:31 +0000";
layers = (
{
layerId = "6F9C6BB4-2DCF-443B-A55D-9CE049090094";
shapes = (
{
attr = {
identifier = ID0x7fe9ed288520;
lineCapEnd = 1;
lineCapStart = 1;
strokeHeight = 60;
strokeWidth = 65;
};
closed = 0;
nodes = (
(164,48,l),
(188,33,o),
(234,25,o),
(264,25,cs),
(399,25,o),
(476,137,o),
(476,383,cs),
(476,574,o),
(425,729,o),
(289,729,cs),
(159,729,o),
(98,627,o),
(97,524,cs),
(95,420,o),
(153,316,o),
(262,316,cs),
(331,316,o),
(397,341,o),
(472,400,c)
);
}
);
width = 582;
}
);
},
{
glyphname = zero.numr;
lastChange = "2024-07-10 14:14:18 +0000";
layers = (
{
layerId = "6F9C6BB4-2DCF-443B-A55D-9CE049090094";
shapes = (
{
attr = {
strokeHeight = 50;
strokeWidth = 55;
};
closed = 0;
nodes = (
(239,742,l),
(147,742,o),
(103,662,o),
(103,563,cs),
(103,464,o),
(147,383,o),
(239,383,cs),
(331,383,o),
(375,464,o),
(375,563,cs),
(375,662,o),
(331,742,o),
(239,742,c)
);
}
);
width = 479;
}
);
metricLeft = zero;
metricRight = zero;
},
{
glyphname = one.numr;
lastChange = "2024-07-10 14:14:16 +0000";
layers = (
{
layerId = "6F9C6BB4-2DCF-443B-A55D-9CE049090094";
shapes = (
{
attr = {
identifier = ID0x7fc5b2035410;
lineCapEnd = 1;
lineCapStart = 1;
strokeHeight = 50;
strokeWidth = 55;
};
closed = 0;
nodes = (
(208,740,l),
(200,385,l)
);
},
{
attr = {
identifier = ID0x7fc5b2035410;
lineCapEnd = 1;
lineCapStart = 1;
strokeHeight = 50;
strokeWidth = 55;
};
closed = 0;
nodes = (
(89,600,l),
(131,642,o),
(170,689,o),
(206,740,c)
);
}
);
width = 330;
}
);
},
{
glyphname = two.numr;
lastChange = "2024-07-10 14:14:18 +0000";
layers = (
{
hints = (
{
horizontal = 1;
origin = (0,10);
settings = {
deltaV = {
"{100, 100, 0, 0, 0, 0}" = {
"62" = 0;
};
};
};
type = TTDelta;
},
{
horizontal = 1;
origin = (0,10);
settings = {
deltaV = {
"{100, 100, 0, 0, 0, 0}" = {
"62" = 0;
};
};
};
type = TTDelta;
},
{
horizontal = 1;
origin = (0,10);
settings = {
deltaV = {
"{100, 100, 0, 0, 0, 0}" = {
"62" = 0;
};
};
};
type = TTDelta;
},
{
horizontal = 1;
origin = (0,10);
settings = {
deltaV = {
"{100, 100, 0, 0, 0, 0}" = {
"62" = 0;
};
};
};
type = TTDelta;
},
{
horizontal = 1;
origin = (0,6);
settings = {
deltaV = {
"{100, 100, 0, 0, 0, 0}" = {
"62" = 0;
};
};
};
type = TTDelta;
},
{
horizontal = 1;
origin = (0,6);
settings = {
deltaV = {
"{100, 100, 0, 0, 0, 0}" = {
"62" = 0;
};
};
};
type = TTDelta;
},
{
horizontal = 1;
origin = (0,6);
settings = {
deltaV = {
"{100, 100, 0, 0, 0, 0}" = {
"62" = 0;
};
};
};
type = TTDelta;
},
{
horizontal = 1;
origin = (0,0);
settings = {
deltaV = {
"{100, 100, 0, 0, 0, 0}" = {
"62" = 0;
};
};
};
type = TTDelta;
},
{
horizontal = 1;
origin = (0,0);
settings = {
deltaV = {
"{100, 100, 0, 0, 0, 0}" = {
"62" = 0;
};
};
};
type = TTDelta;
},
{
horizontal = 1;
origin = (0,0);
settings = {
deltaV = {
"{100, 100, 0, 0, 0, 0}" = {
"62" = 0;
};
};
};
type = TTDelta;
},
{
horizontal = 1;
origin = (0,0);
settings = {
deltaV = {
"{100, 100, 0, 0, 0, 0}" = {
"62" = 0;
};
};
};
type = TTDelta;
},
{
horizontal = 1;
origin = (0,0);
settings = {
deltaV = {
"{100, 100, 0, 0, 0, 0}" = {
"62" = 0;
};
};
};
type = TTDelta;
},
{
horizontal = 1;
origin = (0,0);
settings = {
deltaV = {
"{100, 100, 0, 0, 0, 0}" = {
"62" = 0;
};
};
};
type = TTDelta;
}
);
layerId = "6F9C6BB4-2DCF-443B-A55D-9CE049090094";
shapes = (
{
attr = {
identifier = ID0x7fc5b20358d0;
lineCapEnd = 1;
lineCapStart = 1;
strokeHeight = 50;
strokeWidth = 55;
};
closed = 0;
nodes = (
(103,722,l),
(125,734,o),
(170,740,o),
(196,740,cs),
(251,740,o),
(303,714,o),
(303,668,cs),
(303,615,o),
(268,571,o),
(168,471,cs),
(88,390,l)
);
},
{
attr = {
identifier = ID0x7fc5b20358d0;
lineCapEnd = 1;
lineCapStart = 1;
strokeHeight = 50;
strokeWidth = 55;
};
closed = 0;
nodes = (
(88,390,l),
(326,390,l)
);
}
);
width = 419;
}
);
metricLeft = two;
metricRight = two;
},
{
glyphname = three.numr;
lastChange = "2024-07-10 14:14:16 +0000";
layers = (
{
hints = (
{
horizontal = 1;
origin = (1,9);
settings = {
deltaV = {
"{100, 100, 0, 0, 0, 0}" = {
"62" = 0;
};
};
};
type = TTDelta;
},
{
horizontal = 1;
origin = (1,9);
settings = {
deltaV = {
"{100, 100, 0, 0, 0, 0}" = {
"62" = 0;
};
};
};
type = TTDelta;
},
{
horizontal = 1;
origin = (1,9);
settings = {
deltaV = {
"{100, 100, 0, 0, 0, 0}" = {
"62" = 0;
};
};
};
type = TTDelta;
},
{
horizontal = 1;
origin = (2,6);
settings = {
deltaV = {
"{100, 100, 0, 0, 0, 0}" = {
"62" = 0;
};
};
};
type = TTDelta;
},
{
horizontal = 1;
origin = (0,6);
settings = {
deltaV = {
"{100, 100, 0, 0, 0, 0}" = {
"62" = 0;
};
};
};
type = TTDelta;
},
{
horizontal = 1;
origin = (0,6);
settings = {
deltaV = {
"{100, 100, 0, 0, 0, 0}" = {
"62" = 0;
};
};
};
type = TTDelta;
},
{
horizontal = 1;
origin = (0,6);
settings = {
deltaV = {
"{100, 100, 0, 0, 0, 0}" = {
"62" = 0;
};
};
};
type = TTDelta;
},
{
horizontal = 1;
origin = (0,0);
settings = {
deltaV = {
"{100, 100, 0, 0, 0, 0}" = {
"62" = 0;
};
};
};
type = TTDelta;
},
{
horizontal = 1;
origin = (0,0);
settings = {
deltaV = {
"{100, 100, 0, 0, 0, 0}" = {
"62" = 0;
};
};
};
type = TTDelta;
},
{
horizontal = 1;
origin = (0,0);
settings = {
deltaV = {
"{100, 100, 0, 0, 0, 0}" = {
"62" = 0;
};
};
};
type = TTDelta;
},
{
horizontal = 1;
origin = (0,0);
settings = {
deltaV = {
"{100, 100, 0, 0, 0, 0}" = {
"62" = 0;
};
};
};
type = TTDelta;
},
{
horizontal = 1;
origin = (0,0);
settings = {
deltaV = {
"{100, 100, 0, 0, 0, 0}" = {
"62" = 0;
};
};
};
type = TTDelta;
},
{
horizontal = 1;
origin = (0,0);
settings = {
deltaV = {
"{100, 100, 0, 0, 0, 0}" = {
"62" = 0;
};
};
};
type = TTDelta;
}
);
layerId = "6F9C6BB4-2DCF-443B-A55D-9CE049090094";
shapes = (
{
attr = {
identifier = ID0x7fc5b2035e20;
lineCapEnd = 2;
lineCapStart = 2;
strokeHeight = 50;
strokeWidth = 55;
};
closed = 0;
nodes = (
(91,724,l),
(113,737,o),
(139,742,o),
(165,742,cs),
(220,742,o),
(273,717,o),
(274,670,cs),
(275,591,o),
(195,580,o),
(104,569,c)
);
},
{
attr = {
identifier = ID0x7fc5b2035e20;
lineCapEnd = 2;
lineCapStart = 2;
strokeHeight = 50;
strokeWidth = 55;
};
closed = 0;
nodes = (
(104,570,l),
(220,570,o),
(288,548,o),
(289,482,cs),
(290,408,o),
(223,383,o),
(161,383,cs),
(123,383,o),
(88,391,o),
(68,402,c)
);
}
);
width = 391;
}
);
},
{
glyphname = four.numr;
lastChange = "2024-07-10 14:14:19 +0000";
layers = (
{
layerId = "6F9C6BB4-2DCF-443B-A55D-9CE049090094";
shapes = (
{
attr = {
identifier = ID0x7fc5b20362e0;
lineCapEnd = 1;
lineCapStart = 1;
strokeHeight = 50;
strokeWidth = 55;
};
closed = 0;
nodes = (
(285,610,l),
(285,385,l)
);
},
{
attr = {
identifier = ID0x7fc5b20362e0;
lineCapEnd = 1;
lineCapStart = 1;
strokeHeight = 50;
strokeWidth = 55;
};
closed = 0;
nodes = (
(142,740,l),
(94,506,l)
);
},
{
attr = {
identifier = ID0x7fc5b20362e0;
lineCapEnd = 1;
lineCapStart = 1;
strokeHeight = 50;
strokeWidth = 55;
};
closed = 0;
nodes = (
(94,504,l),
(362,504,l)
);
}
);
width = 473;
}
);
metricLeft = four;
metricRight = four;
},
{
glyphname = five.numr;
lastChange = "2024-07-10 14:19:06 +0000";
layers = (
{
layerId = "6F9C6BB4-2DCF-443B-A55D-9CE049090094";
shapes = (
{
attr = {
identifier = ID0x7fc5b20367a0;
lineCapEnd = 1;
lineCapStart = 1;
strokeHeight = 50;
strokeWidth = 55;
};
closed = 0;
nodes = (
(85,404,l),
(107,391,o),
(145,383,o),
(187,383,cs),
(283,383,o),
(312,436,o),
(312,491,cs),
(312,543,o),
(285,593,o),
(197,593,cs),
(162,593,o),
(127,587,o),
(103,582,c),
(103,736,l),
(310,736,l)
);
}
);
width = 412;
}
);
},
{
glyphname = six.numr;
lastChange = "2024-07-10 14:14:19 +0000";
layers = (
{
layerId = "6F9C6BB4-2DCF-443B-A55D-9CE049090094";
shapes = (
{
attr = {
identifier = ID0x7fc5b2036c60;
lineCapEnd = 1;
lineCapStart = 1;
strokeHeight = 50;
strokeWidth = 55;
};
closed = 0;
nodes = (
(291,730,l),
(276,737,o),
(249,741,o),
(231,741,cs),
(150,741,o),
(108,659,o),
(104,562,cs),
(99,462,o),
(134,383,o),
(216,383,cs),
(294,383,o),
(330,435,o),
(331,488,cs),
(332,541,o),
(297,596,o),
(232,596,cs),
(191,596,o),
(143,574,o),
(106,525,c)
);
}
);
width = 428;
}
);
metricLeft = six;
metricRight = six;
},
{
glyphname = seven.numr;
lastChange = "2024-07-10 14:14:16 +0000";
layers = (
{
layerId = "6F9C6BB4-2DCF-443B-A55D-9CE049090094";
shapes = (
{
attr = {
identifier = ID0x7fc5b2037120;
lineCapEnd = 1;
lineCapStart = 1;
strokeHeight = 50;
strokeWidth = 55;
};
closed = 0;
nodes = (
(90,738,l),
(318,738,l)
);
},
{
attr = {
identifier = ID0x7fc5b2037120;
lineCapEnd = "1";
lineCapStart = "1";
strokeHeight = 50;
strokeWidth = 55;
};
closed = 0;
nodes = (
(133,558,l),
(293,558,l)
);
},
{
attr = {
identifier = ID0x7fc5b2037120;
lineCapEnd = 1;
lineCapStart = 1;
strokeHeight = 50;
strokeWidth = 55;
};
closed = 0;
nodes = (
(316,735,l),
(136,385,l)
);
}
);
width = 408;
}
);
},
{
glyphname = eight.numr;
lastChange = "2024-07-10 14:14:19 +0000";
layers = (
{
hints = (
{
horizontal = 1;
place = (115,0);
settings = {
deltaV = {
"{100, 100, 0, 0, 0, 0}" = {
"62" = 0;
};
};
};
type = TTDelta;
},
{
horizontal = 1;
place = (115,0);
settings = {
deltaV = {
"{100, 100, 0, 0, 0, 0}" = {
"62" = 0;
};
};
};
type = TTDelta;
},
{
horizontal = 1;
place = (115,0);
settings = {
deltaV = {
"{100, 100, 0, 0, 0, 0}" = {
"62" = 0;
};
};
};
type = TTDelta;
},
{
horizontal = 1;
place = (219,0);
settings = {
deltaV = {
"{100, 100, 0, 0, 0, 0}" = {
"62" = 0;
};
};
};
type = TTDelta;
},
{
horizontal = 1;
place = (422,0);
settings = {
deltaV = {
"{100, 100, 0, 0, 0, 0}" = {
"62" = 0;
};
};
};
type = TTDelta;
},
{
horizontal = 1;
place = (422,0);
settings = {
deltaV = {
"{100, 100, 0, 0, 0, 0}" = {
"62" = 0;
};
};
};
type = TTDelta;
},
{
horizontal = 1;
place = (422,0);
settings = {
deltaV = {
"{100, 100, 0, 0, 0, 0}" = {
"62" = 0;
};
};
};
type = TTDelta;
},
{
horizontal = 1;
place = (534,0);
settings = {
deltaV = {
"{100, 100, 0, 0, 0, 0}" = {
"62" = 0;
};
};
};
type = TTDelta;
},
{
horizontal = 1;
place = (534,0);
settings = {
deltaV = {
"{100, 100, 0, 0, 0, 0}" = {
"62" = 0;
};
};
};
type = TTDelta;
},
{
horizontal = 1;
place = (534,0);
settings = {
deltaV = {
"{100, 100, 0, 0, 0, 0}" = {
"62" = 0;
};
};
};
type = TTDelta;
},
{
horizontal = 1;
place = (534,0);
settings = {
deltaV = {
"{100, 100, 0, 0, 0, 0}" = {
"62" = 0;
};
};
};
type = TTDelta;
},
{
horizontal = 1;
place = (534,0);
settings = {
deltaV = {
"{100, 100, 0, 0, 0, 0}" = {
"62" = 0;
};
};
};
type = TTDelta;
},
{
horizontal = 1;
place = (534,0);
settings = {
deltaV = {
"{100, 100, 0, 0, 0, 0}" = {
"62" = 0;
};
};
};
type = TTDelta;
}
);
layerId = "6F9C6BB4-2DCF-443B-A55D-9CE049090094";
shapes = (
{
attr = {
identifier = ID0x7fc5b20375e0;
lineCapEnd = "1";
lineCapStart = "1";
strokeHeight = 50;
strokeWidth = 55;
};
closed = 0;
nodes = (
(232,569,ls),
(294,588,o),
(323,627,o),
(323,663,cs),
(323,703,o),
(287,741,o),
(217,741,cs),
(146,741,o),
(107,702,o),
(107,662,cs),
(107,631,o),
(133,597,o),
(185,580,cs),
(242,562,ls),
(305,541,o),
(331,505,o),
(331,471,cs),
(331,426,o),
(283,383,o),
(214,383,cs),
(143,383,o),
(98,424,o),
(98,470,cs),
(98,506,o),
(127,547,o),
(196,569,cs)
);
}
);
width = 430;
}
);
metricLeft = eight;
metricRight = eight;
},
{
glyphname = nine.numr;
lastChange = "2024-07-10 14:14:19 +0000";
layers = (
{
layerId = "6F9C6BB4-2DCF-443B-A55D-9CE049090094";
shapes = (
{
attr = {
identifier = ID0x7fc5b2037aa0;
lineCapEnd = 1;
lineCapStart = 1;
strokeHeight = 50;
strokeWidth = 55;
};
closed = 0;
nodes = (
(292,385,l),
(308,670,ls),
(311,717,o),
(260,742,o),
(208,742,cs),
(130,742,o),
(96,695,o),
(96,647,cs),
(96,599,o),
(130,552,o),
(189,552,cs),
(231,552,o),
(275,568,o),
(303,599,c)
);
}
);
width = 418;
}
);
metricLeft = nine;
metricRight = nine;
},
{
glyphname = fraction;
lastChange = "2024-07-10 14:15:02 +0000";
layers = (
{
layerId = "6F9C6BB4-2DCF-443B-A55D-9CE049090094";
shapes = (
{
attr = {
lineCapEnd = 1;
lineCapStart = 1;
strokeHeight = 50;
strokeWidth = 55;
};
closed = 0;
nodes = (
(-190,0,l),
(417,730,l)
);
}
);
width = 227;
}
);
unicode = 8260;
},
{
glyphname = fraction.alt;
lastChange = "2024-07-10 14:15:20 +0000";
layers = (
{
layerId = "6F9C6BB4-2DCF-443B-A55D-9CE049090094";
shapes = (
{
attr = {
lineCapEnd = 1;
lineCapStart = 1;
strokeWidth = 50;
};
closed = 0;
nodes = (
(110,331,l),
(490,331,l)
);
}
);
width = 600;
}
);
},
{
glyphname = comma;
kernLeft = period;
kernRight = period;
lastChange = "2024-07-10 18:01:11 +0000";
layers = (
{
anchors = (
{
name = top;
pos = (150,91);
}
);
background = {
shapes = (
{
closed = 1;
nodes = (
(150,-180,o),
(194,-96,o),
(194,-9,cs),
(194,39,o),
(182,77,o),
(168,105,c),
(136,105,o),
(97,92,o),
(78,72,c),
(94,39,o),
(102,11,o),
(102,-17,cs),
(102,-83,o),
(66,-132,o),
(20,-162,c),
(22,-185,o),
(46,-212,o),
(65,-222,c)
);
}
);
};
layerId = "6F9C6BB4-2DCF-443B-A55D-9CE049090094";
shapes = (
{
attr = {
lineCapEnd = 1;
lineCapStart = 1;
strokeHeight = 60;
strokeWidth = 65;
};
closed = 0;
nodes = (
(95,-192,l),
(210,-114,o),
(206,35,o),
(165,104,c)
);
}
);
width = 304;
}
);
unicode = 44;
},
{
glyphname = exclamdown;
lastChange = "2024-07-10 18:01:10 +0000";
layers = (
{
layerId = "6F9C6BB4-2DCF-443B-A55D-9CE049090094";
shapes = (
{
pos = (85,0);
ref = dotaccentcomb;
},
{
attr = {
lineCapEnd = "1";
lineCapStart = "1";
strokeHeight = 60;
strokeWidth = 65;
};
closed = 0;
nodes = (
(114,330,l),
(101,-152,l)
);
}
);
width = 218;
}
);
unicode = 161;
},
{
glyphname = questiondown;
lastChange = "2024-07-10 18:01:10 +0000";
layers = (
{
background = {
shapes = (
{
pos = (149,0);
ref = dotaccentcomb;
},
{
attr = {
lineCapEnd = "1";
lineCapStart = "1";
};
closed = 0;
nodes = (
(178,360,l),
(165,-152,l)
);
}
);
};
layerId = "6F9C6BB4-2DCF-443B-A55D-9CE049090094";
shapes = (
{
attr = {
identifier = ID0x7fdbb38b5c70;
lineCapEnd = 1;
lineCapStart = 1;
strokeHeight = 60;
strokeWidth = 65;
};
closed = 0;
nodes = (
(348,-125,l),
(263,-145,o),
(100,-128,o),
(100,25,cs),
(100,120,o),
(141,155,o),
(233,197,cs),
(297,226,o),
(322,244,o),
(322,331,c)
);
},
{
pos = (289,0);
ref = dotaccentcomb;
}
);
width = 443;
}
);
unicode = 191;
},
{
glyphname = periodcentered;
lastChange = "2024-07-10 16:54:34 +0000";
layers = (
{
anchors = (
{
name = _centerright;
pos = (226,320);
},
{
name = top;
pos = (226,360);
}
);
background = {
shapes = (
{
attr = {
lineCapEnd = 1;
lineCapStart = 1;
strokeHeight = 50;
strokeWidth = 55;
};
closed = 0;
nodes = (
(226,332,l),
(226,303,l)
);
}
);
};
layerId = "6F9C6BB4-2DCF-443B-A55D-9CE049090094";
shapes = (
{
closed = 1;
nodes = (
(252,271,o),
(266,291,o),
(266,319,cs),
(266,346,o),
(252,366,o),
(226,366,cs),
(199,366,o),
(185,346,o),
(185,319,cs),
(185,291,o),
(199,271,o),
(226,271,cs)
);
}
);
width = 451;
}
);
unicode = 183;
},
{
glyphname = bullet;
lastChange = "2024-07-10 16:54:34 +0000";
layers = (
{
layerId = "6F9C6BB4-2DCF-443B-A55D-9CE049090094";
shapes = (
{
closed = 1;
nodes = (
(281,252,o),
(307,280,o),
(307,318,cs),
(307,357,o),
(279,384,o),
(242,384,cs),
(205,384,o),
(181,356,o),
(181,318,cs),
(181,277,o),
(206,252,o),
(242,252,cs)
);
}
);
width = 487;
}
);
unicode = 8226;
},
{
glyphname = asterisk;
lastChange = "2024-07-10 18:00:48 +0000";
layers = (
{
layerId = "6F9C6BB4-2DCF-443B-A55D-9CE049090094";
shapes = (
{
attr = {
lineCapEnd = "1";
lineCapStart = "1";
strokeHeight = 50;
strokeWidth = 55;
};
closed = 0;
nodes = (
(95,528,l),
(482,528,l)
);
},
{
attr = {
lineCapEnd = "1";
lineCapStart = "1";
strokeHeight = 50;
strokeWidth = 55;
};
closed = 0;
nodes = (
(192,695,l),
(385,360,l)
);
},
{
attr = {
lineCapEnd = "1";
lineCapStart = "1";
strokeHeight = 50;
strokeWidth = 55;
};
closed = 0;
nodes = (
(191,360,l),
(386,695,l)
);
}
);
width = 578;
}
);
unicode = 42;
},
{
glyphname = numbersign;
lastChange = "2024-07-10 18:01:24 +0000";
layers = (
{
layerId = "6F9C6BB4-2DCF-443B-A55D-9CE049090094";
shapes = (
{
attr = {
lineCapEnd = "1";
lineCapStart = "1";
strokeHeight = 60;
strokeWidth = 65;
};
closed = 0;
nodes = (
(312,727,l),
(299,27,l)
);
},
{
attr = {
lineCapEnd = "1";
lineCapStart = "1";
strokeHeight = 60;
strokeWidth = 65;
};
closed = 0;
nodes = (
(532,727,l),
(519,27,l)
);
},
{
attr = {
lineCapEnd = "1";
lineCapStart = "1";
strokeHeight = 60;
strokeWidth = 65;
};
closed = 0;
nodes = (
(709,474,l),
(123,474,l)
);
},
{
attr = {
lineCapEnd = "1";
lineCapStart = "1";
strokeHeight = 60;
strokeWidth = 65;
};
closed = 0;
nodes = (
(709,274,l),
(123,274,l)
);
}
);
width = 832;
}
);
unicode = 35;
},
{
glyphname = slash;
lastChange = "2024-07-10 18:01:21 +0000";
layers = (
{
layerId = "6F9C6BB4-2DCF-443B-A55D-9CE049090094";
shapes = (
{
attr = {
lineCapEnd = "1";
lineCapStart = "1";
strokeHeight = 60;
strokeWidth = 65;
};
closed = 0;
nodes = (
(362,727,l),
(95,27,l)
);
}
);
width = 457;
}
);
unicode = 47;
},
{
glyphname = backslash;
lastChange = "2024-07-10 13:05:18 +0000";
layers = (
{
layerId = "6F9C6BB4-2DCF-443B-A55D-9CE049090094";
shapes = (
{
attr = {
lineCapEnd = "1";
lineCapStart = "1";
strokeHeight = 60;
strokeWidth = 65;
};
closed = 0;
nodes = (
(-10,727,l),
(231,27,l)
);
}
);
width = 327;
}
);
unicode = 92;
},
{
glyphname = hyphen;
lastChange = "2024-07-10 12:25:30 +0000";
layers = (
{
layerId = "6F9C6BB4-2DCF-443B-A55D-9CE049090094";
shapes = (
{
attr = {
lineCapEnd = 2;
lineCapStart = 2;
strokeHeight = 60;
strokeWidth = 65;
};
closed = 0;
nodes = (
(40,220,l),
(297,220,l)
);
}
);
width = 337;
}
);
unicode = 45;
},
{
glyphname = endash;
lastChange = "2024-07-10 13:04:12 +0000";
layers = (
{
background = {
shapes = (
{
closed = 0;
nodes = (
(37,190,l),
(494,190,l)
);
}
);
};
layerId = "6F9C6BB4-2DCF-443B-A55D-9CE049090094";
shapes = (
{
attr = {
lineCapEnd = "2";
lineCapStart = "2";
strokeHeight = 60;
strokeWidth = 65;
};
closed = 0;
nodes = (
(40,220,l),
(497,220,l)
);
}
);
width = 537;
}
);
metricLeft = hyphen;
metricRight = hyphen;
unicode = 8211;
},
{
glyphname = emdash;
lastChange = "2024-07-10 12:25:38 +0000";
layers = (
{
background = {
shapes = (
{
closed = 0;
nodes = (
(30,190,l),
(730,190,l)
);
}
);
};
layerId = "6F9C6BB4-2DCF-443B-A55D-9CE049090094";
shapes = (
{
attr = {
lineCapEnd = "2";
lineCapStart = "2";
strokeHeight = 60;
strokeWidth = 65;
};
closed = 0;
nodes = (
(30,220,l),
(727,220,l)
);
}
);
width = 760;
}
);
unicode = 8212;
},
{
glyphname = underscore;
lastChange = "2024-07-10 12:25:47 +0000";
layers = (
{
layerId = "6F9C6BB4-2DCF-443B-A55D-9CE049090094";
shapes = (
{
attr = {
lineCapEnd = 2;
lineCapStart = 2;
strokeHeight = 60;
strokeWidth = 65;
};
closed = 0;
nodes = (
(40,-64,l),
(397,-64,l)
);
}
);
width = 437;
}
);
unicode = 95;
},
{
glyphname = parenleft;
lastChange = "2024-07-10 18:01:12 +0000";
layers = (
{
background = {
shapes = (
{
attr = {
lineCapEnd = "1";
lineCapStart = "1";
};
closed = 0;
nodes = (
(244,700,l),
(104,471,o),
(74,206,o),
(257,0,c)
);
}
);
};
layerId = "6F9C6BB4-2DCF-443B-A55D-9CE049090094";
shapes = (
{
attr = {
lineCapEnd = 2;
lineCapStart = 2;
strokeHeight = 60;
strokeWidth = 65;
};
closed = 0;
nodes = (
(264,764,l),
(160,647,o),
(106,505,o),
(106,365,cs),
(106,234,o),
(153,103,o),
(250,-7,c)
);
}
);
width = 339;
}
);
unicode = 40;
},
{
glyphname = braceleft;
lastChange = "2024-07-10 17:21:47 +0000";
layers = (
{
guides = (
{
angle = 90;
pos = (93,363);
}
);
layerId = "6F9C6BB4-2DCF-443B-A55D-9CE049090094";
shapes = (
{
attr = {
lineCapEnd = 2;
lineCapStart = 2;
strokeHeight = 60;
strokeWidth = 65;
};
closed = 0;
nodes = (
(251,747,l),
(78,747,o),
(165,574,o),
(165,459,cs),
(165,412,o),
(142,373,o),
(93,362,c),
(93,361,l),
(142,350,o),
(165,313,o),
(165,266,cs),
(165,151,o),
(78,-23,o),
(251,-23,c)
);
}
);
width = 316;
}
);
unicode = 123;
},
{
glyphname = bracketleft;
lastChange = "2024-07-10 18:01:13 +0000";
layers = (
{
layerId = "6F9C6BB4-2DCF-443B-A55D-9CE049090094";
shapes = (
{
attr = {
lineCapEnd = "1";
lineCapStart = "1";
strokeHeight = 60;
strokeWidth = 65;
};
closed = 0;
nodes = (
(131,721,l),
(131,32,l)
);
},
{
attr = {
lineCapEnd = "1";
lineCapStart = "1";
strokeHeight = 60;
strokeWidth = 65;
};
closed = 0;
nodes = (
(141,30,l),
(269,30,l)
);
},
{
attr = {
lineCapEnd = "1";
lineCapStart = "1";
strokeHeight = 60;
strokeWidth = 65;
};
closed = 0;
nodes = (
(131,724,l),
(269,724,l)
);
}
);
width = 398;
}
);
unicode = 91;
},
{
glyphname = quoteright;
lastChange = "2024-07-10 18:01:19 +0000";
layers = (
{
background = {
shapes = (
{
attr = {
identifier = ID0x7fbbd3347f50;
strokeHeight = 60;
strokeWidth = 65;
};
closed = 0;
nodes = (
(108,482,l),
(159,606,o),
(186,700,o),
(102,731,c)
);
},
{
closed = 1;
nodes = (
(170,482,o),
(201,550,o),
(201,620,cs),
(201,679,o),
(179,739,o),
(138,777,c),
(106,769,o),
(69,742,o),
(55,717,c),
(79,693,o),
(112,653,o),
(112,605,cs),
(112,563,o),
(90,526,o),
(48,478,c),
(58,455,o),
(81,436,o),
(102,426,c)
);
}
);
};
layerId = "6F9C6BB4-2DCF-443B-A55D-9CE049090094";
shapes = (
{
attr = {
identifier = ID0x7fbbd3347f50;
lineCapEnd = 1;
lineCapStart = 1;
strokeHeight = 60;
strokeWidth = 65;
};
closed = 0;
nodes = (
(108,480,l),
(159,604,o),
(186,698,o),
(102,729,c)
);
}
);
width = 267;
}
);
unicode = 8217;
},
{
glyphname = guilsinglleft;
lastChange = "2024-07-10 18:01:17 +0000";
layers = (
{
layerId = "6F9C6BB4-2DCF-443B-A55D-9CE049090094";
shapes = (
{
attr = {
lineCapEnd = "1";
lineCapStart = "1";
strokeHeight = 60;
strokeWidth = 65;
};
closed = 0;
nodes = (
(292,390,l),
(94,210,l)
);
},
{
attr = {
lineCapEnd = "1";
lineCapStart = "1";
strokeHeight = 60;
strokeWidth = 65;
};
closed = 0;
nodes = (
(94,210,l),
(292,30,l)
);
}
);
width = 390;
}
);
unicode = 8249;
},
{
glyphname = quotesingle;
lastChange = "2024-07-10 13:00:42 +0000";
layers = (
{
background = {
shapes = (
{
closed = 0;
nodes = (
(81,399,l),
(110,480,o),
(122,541,o),
(122,576,cs),
(122,600,o),
(109,630,o),
(66,630,c)
);
}
);
};
layerId = "6F9C6BB4-2DCF-443B-A55D-9CE049090094";
shapes = (
{
ref = quoteright;
}
);
width = 449;
}
);
unicode = 39;
},
{
glyphname = baht;
lastChange = "2024-07-10 13:10:53 +0000";
layers = (
{
layerId = "6F9C6BB4-2DCF-443B-A55D-9CE049090094";
shapes = (
{
pos = (-3,0);
ref = B;
},
{
attr = {
lineCapEnd = "1";
lineCapStart = "1";
strokeHeight = 50;
strokeWidth = 55;
};
closed = 0;
nodes = (
(290,800,l),
(260,-100,l)
);
}
);
width = 568;
}
);
unicode = 3647;
},
{
glyphname = at;
lastChange = "2024-07-10 13:10:53 +0000";
layers = (
{
anchors = (
{
name = bottom;
pos = (997,0);
},
{
name = center;
pos = (997,350);
},
{
name = ogonek;
pos = (1292,10);
},
{
name = top;
pos = (997,650);
},
{
name = topleft;
pos = (647,700);
},
{
name = topright;
pos = (1346,700);
}
);
background = {
shapes = (
{
attr = {
identifier = ID0x7fa77d345e60;
lineCapEnd = 1;
lineCapStart = 1;
};
closed = 0;
nodes = (
(424,555,l),
(633,555,o),
(750,413,o),
(755,232,c),
(659,-5,l),
(593,-5,o),
(539,37,o),
(539,150,c)
);
},
{
attr = {
identifier = ID0x7fa77d345e60;
lineCapEnd = 1;
lineCapStart = 1;
};
closed = 0;
nodes = (
(365,-183,l),
(156,-183,o),
(39,-41,o),
(34,140,cs),
(29,339,o),
(168,555,o),
(424,555,c)
);
}
);
};
layerId = "6F9C6BB4-2DCF-443B-A55D-9CE049090094";
shapes = (
{
pos = (298,0);
ref = _a.master;
},
{
attr = {
lineCapEnd = 1;
lineCapStart = 1;
strokeHeight = 50;
strokeWidth = 55;
};
closed = 0;
nodes = (
(605,-119,l),
(557,-145,o),
(498,-160,o),
(430,-160,cs),
(221,-160,o),
(104,-18,o),
(99,163,cs),
(94,362,o),
(233,578,o),
(489,578,cs),
(698,578,o),
(820,436,o),
(820,255,cs),
(820,-36,o),
(574,-50,o),
(574,173,c)
);
}
);
width = 919;
}
);
unicode = 64;
},
{
glyphname = ampersand;
lastChange = "2024-07-10 13:34:03 +0000";
layers = (
{
anchors = (
{
name = bottom;
pos = (532,31);
},
{
name = center;
pos = (74,211);
},
{
name = ogonek;
pos = (-93,41);
},
{
name = top;
pos = (532,731);
},
{
name = topright;
pos = (197,741);
}
);
background = {
shapes = (
{
attr = {
identifier = ID0x7fa77d1a5b30;
lineCapEnd = 1;
lineCapStart = 1;
};
closed = 0;
nodes = (
(126,679,l),
(67,693,o),
(16,700,o),
(-29,700,cs),
(-212,700,o),
(-288,583,o),
(-288,326,cs),
(-288,138,o),
(-214,0,o),
(-76,0,cs),
(-16,0,o),
(54,25,o),
(137,82,cs)
);
}
);
};
hints = (
{
horizontal = 1;
settings = {
deltaV = {
"{100, 100, 0, 0, 0, 0}" = {
"62" = 0;
};
};
};
type = TTDelta;
},
{
horizontal = 1;
settings = {
deltaV = {
"{100, 100, 0, 0, 0, 0}" = {
"62" = 0;
};
};
};
type = TTDelta;
},
{
horizontal = 1;
settings = {
deltaV = {
"{100, 100, 0, 0, 0, 0}" = {
"62" = 0;
};
};
};
type = TTDelta;
},
{
horizontal = 1;
settings = {
deltaV = {
"{100, 100, 0, 0, 0, 0}" = {
"62" = 0;
};
};
};
type = TTDelta;
},
{
horizontal = 1;
settings = {
deltaV = {
"{100, 100, 0, 0, 0, 0}" = {
"62" = 0;
};
};
};
type = TTDelta;
},
{
horizontal = 1;
settings = {
deltaV = {
"{100, 100, 0, 0, 0, 0}" = {
"62" = 0;
};
};
};
type = TTDelta;
},
{
horizontal = 1;
settings = {
deltaV = {
"{100, 100, 0, 0, 0, 0}" = {
"62" = 0;
};
};
};
type = TTDelta;
},
{
horizontal = 1;
settings = {
deltaV = {
"{100, 100, 0, 0, 0, 0}" = {
"62" = 0;
};
};
};
type = TTDelta;
},
{
horizontal = 1;
settings = {
deltaV = {
"{100, 100, 0, 0, 0, 0}" = {
"62" = 0;
};
};
};
type = TTDelta;
},
{
horizontal = 1;
settings = {
deltaV = {
"{100, 100, 0, 0, 0, 0}" = {
"62" = 0;
};
};
};
type = TTDelta;
},
{
horizontal = 1;
settings = {
deltaV = {
"{100, 100, 0, 0, 0, 0}" = {
"62" = 0;
};
};
};
type = TTDelta;
},
{
horizontal = 1;
settings = {
deltaV = {
"{100, 100, 0, 0, 0, 0}" = {
"62" = 0;
};
};
};
type = TTDelta;
},
{
horizontal = 1;
settings = {
deltaV = {
"{100, 100, 0, 0, 0, 0}" = {
"62" = 0;
};
};
};
type = TTDelta;
}
);
layerId = "6F9C6BB4-2DCF-443B-A55D-9CE049090094";
shapes = (
{
attr = {
lineCapEnd = 1;
lineCapStart = 1;
strokeHeight = 60;
strokeWidth = 65;
};
closed = 0;
nodes = (
(384,320,l),
(378,138,o),
(348,26,o),
(198,26,cs),
(93,26,o),
(2,83,o),
(2,223,cs),
(2,338,o),
(83,393,o),
(140,393,cs),
(182,393,o),
(203,364,o),
(203,328,cs),
(203,264,o),
(137,176,o),
(2,182,c),
(236,182,o),
(424,261,o),
(578,318,c)
);
},
{
attr = {
lineCapEnd = 1;
lineCapStart = 1;
strokeHeight = 60;
strokeWidth = 65;
};
closed = 0;
nodes = (
(384,512,l),
(384,418,ls),
(384,96,o),
(410,26,o),
(530,26,cs),
(602,26,o),
(645,72,o),
(653,124,c)
);
}
);
width = 633;
}
);
metricLeft = e;
metricRight = t;
unicode = 38;
},
{
glyphname = paragraph;
lastChange = "2024-07-10 13:34:00 +0000";
layers = (
{
anchors = (
{
name = bottom;
pos = (442,0);
},
{
name = center;
pos = (442,180);
},
{
name = top;
pos = (442,360);
},
{
name = topright;
pos = (565,710);
}
);
background = {
shapes = (
{
attr = {
identifier = ID0x7feca72af860;
lineCapEnd = 1;
lineCapStart = 1;
};
closed = 0;
nodes = (
(387,345,l),
(358,358,o),
(321,364,o),
(295,364,cs),
(189,364,o),
(98,311,o),
(98,180,cs),
(98,42,o),
(205,-5,o),
(288,-5,cs),
(448,-5,o),
(478,157,o),
(484,360,c)
);
},
{
closed = 0;
nodes = (
(432,-165,l),
(452,-65,o),
(484,95,o),
(484,377,cs),
(484,609,l)
);
},
{
closed = 0;
nodes = (
(295,-195,l),
(322,-95,o),
(365,65,o),
(385,347,cs),
(401,579,l)
);
}
);
};
layerId = "6F9C6BB4-2DCF-443B-A55D-9CE049090094";
shapes = (
{
attr = {
identifier = ID0x7feca72af860;
lineCapEnd = 1;
lineCapStart = 1;
strokeHeight = 60;
strokeWidth = 65;
};
closed = 0;
nodes = (
(341,389,l),
(324,392,o),
(308,394,o),
(295,394,cs),
(189,394,o),
(98,341,o),
(98,210,cs),
(98,72,o),
(205,25,o),
(288,25,cs),
(529,25,o),
(598,366,o),
(598,573,cs),
(598,662,o),
(585,726,o),
(568,726,cs),
(556,726,o),
(541,694,o),
(527,617,cs),
(506,503,o),
(499,376,o),
(499,249,cs),
(499,58,o),
(517,-131,o),
(534,-269,c)
);
},
{
attr = {
lineCapEnd = 1;
lineCapStart = 1;
strokeHeight = 60;
strokeWidth = 65;
};
closed = 0;
nodes = (
(360,-165,l),
(407,94,o),
(432,352,o),
(419,601,c)
);
}
);
width = 703;
}
);
unicode = 182;
},
{
glyphname = section;
lastChange = "2024-07-10 18:01:12 +0000";
layers = (
{
background = {
shapes = (
{
pos = (84,0);
ref = S;
},
{
pos = (84,-170);
ref = S;
}
);
};
hints = (
{
horizontal = 1;
origin = (0,0);
settings = {
deltaV = {
"{100, 100, 0, 0, 0, 0}" = {
"62" = 0;
};
};
};
type = TTDelta;
},
{
horizontal = 1;
origin = (0,0);
settings = {
deltaV = {
"{100, 100, 0, 0, 0, 0}" = {
"62" = 0;
};
};
};
type = TTDelta;
},
{
horizontal = 1;
origin = (0,0);
settings = {
deltaV = {
"{100, 100, 0, 0, 0, 0}" = {
"62" = 0;
};
};
};
type = TTDelta;
},
{
horizontal = 1;
origin = (0,3);
settings = {
deltaV = {
"{100, 100, 0, 0, 0, 0}" = {
"62" = 0;
};
};
};
type = TTDelta;
},
{
horizontal = 1;
origin = (1,0);
settings = {
deltaV = {
"{100, 100, 0, 0, 0, 0}" = {
"62" = 0;
};
};
};
type = TTDelta;
},
{
horizontal = 1;
origin = (1,0);
settings = {
deltaV = {
"{100, 100, 0, 0, 0, 0}" = {
"62" = 0;
};
};
};
type = TTDelta;
},
{
horizontal = 1;
origin = (1,0);
settings = {
deltaV = {
"{100, 100, 0, 0, 0, 0}" = {
"62" = 0;
};
};
};
type = TTDelta;
},
{
horizontal = 1;
origin = (1,0);
settings = {
deltaV = {
"{100, 100, 0, 0, 0, 0}" = {
"62" = 0;
};
};
};
type = TTDelta;
},
{
horizontal = 1;
origin = (1,0);
settings = {
deltaV = {
"{100, 100, 0, 0, 0, 0}" = {
"62" = 0;
};
};
};
type = TTDelta;
},
{
horizontal = 1;
origin = (1,0);
settings = {
deltaV = {
"{100, 100, 0, 0, 0, 0}" = {
"62" = 0;
};
};
};
type = TTDelta;
},
{
horizontal = 1;
origin = (1,0);
settings = {
deltaV = {
"{100, 100, 0, 0, 0, 0}" = {
"62" = 0;
};
};
};
type = TTDelta;
},
{
horizontal = 1;
origin = (1,0);
settings = {
deltaV = {
"{100, 100, 0, 0, 0, 0}" = {
"62" = 0;
};
};
};
type = TTDelta;
},
{
horizontal = 1;
origin = (1,0);
settings = {
deltaV = {
"{100, 100, 0, 0, 0, 0}" = {
"62" = 0;
};
};
};
type = TTDelta;
}
);
layerId = "6F9C6BB4-2DCF-443B-A55D-9CE049090094";
shapes = (
{
attr = {
identifier = ID0x7fa77dec6560;
lineCapEnd = 1;
lineCapStart = 2;
strokeHeight = 60;
strokeWidth = 65;
};
closed = 0;
nodes = (
(444,210,l),
(489,237,o),
(510,270,o),
(508,332,cs),
(505,438,o),
(416,460,o),
(330,481,cs),
(244,499,o),
(163,519,o),
(159,617,cs),
(156,709,o),
(299,772,o),
(438,705,cs)
);
},
{
attr = {
identifier = ID0x7fa77dec6560;
lineCapEnd = "1";
lineCapStart = 2;
strokeHeight = 60;
strokeWidth = 65;
};
closed = 0;
nodes = (
(193,540,ls),
(141,518,o),
(100,472,o),
(102,417,cs),
(106,320,o),
(192,304,o),
(284,284,cs),
(423,253,o),
(468,203,o),
(469,152,cs),
(472,86,o),
(413,23,o),
(285,23,cs),
(195,23,o),
(113,52,o),
(110,131,cs),
(109,157,o),
(121,184,o),
(145,203,c)
);
}
);
width = 607;
}
);
unicode = 167;
},
{
glyphname = copyright;
lastChange = "2024-07-10 13:34:01 +0000";
layers = (
{
background = {
shapes = (
{
attr = {
identifier = ID0x7fa780fa43a0;
lineCapEnd = 1;
lineCapStart = 1;
};
closed = 0;
nodes = (
(551,527,l),
(514,535,o),
(482,538,o),
(453,538,cs),
(339,538,o),
(291,475,o),
(291,337,cs),
(291,236,o),
(338,162,o),
(424,162,cs),
(462,162,o),
(506,176,o),
(558,206,cs)
);
},
{
closed = 0;
nodes = (
(448,0,l),
(641,0,o),
(798,157,o),
(798,350,cs),
(798,543,o),
(641,700,o),
(448,700,cs),
(255,700,o),
(98,543,o),
(98,350,cs),
(98,157,o),
(255,0,o),
(448,0,c)
);
}
);
};
layerId = "6F9C6BB4-2DCF-443B-A55D-9CE049090094";
shapes = (
{
attr = {
identifier = ID0x7fa780fa43a0;
lineCapEnd = 1;
lineCapStart = 1;
strokeHeight = 60;
strokeWidth = 65;
};
closed = 0;
nodes = (
(551,552,l),
(514,560,o),
(482,563,o),
(453,563,cs),
(339,563,o),
(291,500,o),
(291,362,cs),
(291,261,o),
(338,187,o),
(424,187,cs),
(462,187,o),
(506,201,o),
(558,231,cs)
);
},
{
attr = {
strokeHeight = 50;
strokeWidth = 55;
};
closed = 0;
nodes = (
(442,25,l),
(635,25,o),
(795,182,o),
(798,375,cs),
(801,568,o),
(647,725,o),
(454,725,cs),
(261,725,o),
(101,568,o),
(98,375,cs),
(95,182,o),
(249,25,o),
(442,25,c)
);
}
);
width = 896;
}
);
unicode = 169;
},
{
glyphname = registered;
lastChange = "2024-07-10 13:34:01 +0000";
layers = (
{
layerId = "6F9C6BB4-2DCF-443B-A55D-9CE049090094";
shapes = (
{
attr = {
identifier = ID0x7fa77d0908b0;
lineCapEnd = 1;
lineCapStart = 1;
strokeHeight = 50;
strokeWidth = 55;
};
closed = 0;
nodes = (
(249,379,l),
(257,633,l),
(340,633,ls),
(389,633,o),
(422,619,o),
(422,585,cs),
(422,534,o),
(366,502,o),
(255,502,c)
);
},
{
attr = {
identifier = ID0x7fa77d0908b0;
lineCapEnd = 1;
lineCapStart = 4;
strokeHeight = 50;
strokeWidth = 55;
};
closed = 0;
nodes = (
(297,503,l),
(411,380,l)
);
},
{
attr = {
strokeHeight = 50;
strokeWidth = 55;
};
closed = 0;
nodes = (
(323,279,l),
(447,279,o),
(550,380,o),
(552,504,cs),
(554,629,o),
(455,730,o),
(330,730,cs),
(206,730,o),
(103,629,o),
(101,504,cs),
(99,380,o),
(198,279,o),
(323,279,c)
);
}
);
width = 653;
}
);
unicode = 174;
},
{
glyphname = trademark;
lastChange = "2024-07-10 18:00:59 +0000";
layers = (
{
guides = (
{
pos = (532,726);
},
{
pos = (532,323);
}
);
layerId = "6F9C6BB4-2DCF-443B-A55D-9CE049090094";
shapes = (
{
attr = {
identifier = ID0x7fc9e2faeca0;
lineCapEnd = 1;
lineCapStart = 2;
strokeHeight = 50;
strokeWidth = 55;
};
closed = 0;
nodes = (
(294,701,l),
(288,350,l)
);
},
{
attr = {
identifier = ID0x7fc9e2faeca0;
lineCapEnd = 1;
lineCapStart = 1;
strokeHeight = 50;
strokeWidth = 55;
};
closed = 0;
nodes = (
(143,701,l),
(434,701,l)
);
},
{
attr = {
identifier = ID0x7fc9e2faedc0;
lineCapEnd = 1;
lineCapStart = 1;
strokeHeight = 50;
strokeWidth = 55;
};
closed = 0;
nodes = (
(505,350,l),
(531,704,l)
);
},
{
attr = {
identifier = ID0x7fc9e2faedc0;
lineCapEnd = 1;
lineCapStart = 1;
strokeHeight = 50;
strokeWidth = 55;
};
closed = 0;
nodes = (
(700,391,l),
(874,704,l)
);
},
{
attr = {
identifier = ID0x7fc9e2faedc0;
lineCapEnd = 1;
lineCapStart = 1;
strokeHeight = 50;
strokeWidth = 55;
};
closed = 0;
nodes = (
(874,704,l),
(891,350,l)
);
},
{
attr = {
identifier = ID0x7fc9e2faedc0;
lineCapEnd = 1;
lineCapStart = 1;
strokeHeight = 50;
strokeWidth = 55;
};
closed = 0;
nodes = (
(532,704,l),
(695,391,l)
);
}
);
width = 1027;
}
);
metricLeft = T;
metricRight = M;
unicode = 8482;
},
{
glyphname = degree;
lastChange = "2024-07-10 18:01:23 +0000";
layers = (
{
layerId = "6F9C6BB4-2DCF-443B-A55D-9CE049090094";
shapes = (
{
attr = {
strokeHeight = 50;
strokeWidth = 55;
};
closed = 0;
nodes = (
(224,700,l),
(145,700,o),
(106,639,o),
(106,567,cs),
(106,492,o),
(145,433,o),
(224,433,cs),
(303,433,o),
(342,492,o),
(342,567,cs),
(342,639,o),
(303,700,o),
(224,700,c)
);
}
);
userData = {
assembly = "NPUSHB[ ]	/* 17 values pushed */
1 29 29 64 30 17 6 0 25 17 9 3 12 21 1 25 70 
SROUND[ ]	/* SuperRound */
MDAP[1]	/* MoveDirectAbsPt */
SHZ[1]	/* ShiftZoneByLastPoint */
RTG[ ]	/* RoundToGrid */
SVTCA[0]	/* SetFreedomAndProjectionVectorToAxis */
MDAP[1]	/* MoveDirectAbsPt */
MDAP[1]	/* MoveDirectAbsPt */
SVTCA[1]	/* SetFreedomAndProjectionVectorToAxis */
MDAP[0]	/* MoveDirectAbsPt */
MDAP[0]	/* MoveDirectAbsPt */
MDAP[0]	/* MoveDirectAbsPt */
MDAP[0]	/* MoveDirectAbsPt */
SVTCA[0]	/* SetFreedomAndProjectionVectorToAxis */
MDAP[0]	/* MoveDirectAbsPt */
MDAP[0]	/* MoveDirectAbsPt */
IUP[1]	/* InterpolateUntPts */
IUP[0]	/* InterpolateUntPts */
SVTCA[1]	/* SetFreedomAndProjectionVectorToAxis */
MD[0]	/* MeasureDistance */
ROUND[00]	/* Round */
PUSHW[ ]	/* 2 values pushed */
25 29 
MD[0]	/* MeasureDistance */
ROUND[00]	/* Round */
SUB[ ]	/* Subtract */
PUSHB[ ]	/* 1 value pushed */
64 
GT[ ]	/* GreaterThan */
IF[ ]	/* If */
SHPIX[ ]	/* ShiftZoneByPixel */
SRP1[ ]	/* SetRefPoint1 */
SHZ[1]	/* ShiftZoneByLastPoint */
PUSHW[ ]	/* 2 values pushed */
29 -64 
SHPIX[ ]	/* ShiftZoneByPixel */
EIF[ ]	/* EndIf */";
};
width = 449;
}
);
note = degree;
unicode = 176;
},
{
glyphname = bar;
lastChange = "2024-07-10 13:34:01 +0000";
layers = (
{
layerId = "6F9C6BB4-2DCF-443B-A55D-9CE049090094";
shapes = (
{
attr = {
lineCapEnd = "1";
lineCapStart = "1";
strokeHeight = 60;
strokeWidth = 65;
};
closed = 0;
nodes = (
(138,800,l),
(125,-100,l)
);
}
);
width = 263;
}
);
unicode = 124;
},
{
glyphname = brokenbar;
lastChange = "2024-07-10 13:34:03 +0000";
layers = (
{
background = {
shapes = (
{
pos = (-75,0);
ref = bar;
}
);
};
guides = (
{
pos = (75,449);
},
{
pos = (75,249);
}
);
layerId = "6F9C6BB4-2DCF-443B-A55D-9CE049090094";
shapes = (
{
attr = {
identifier = ID0x7fa77dd31a40;
lineCapEnd = 2;
lineCapStart = "1";
strokeHeight = 60;
strokeWidth = 65;
};
closed = 0;
nodes = (
(138,800,l),
(133,449,l)
);
},
{
attr = {
identifier = ID0x7fa77dd31a40;
lineCapEnd = "1";
lineCapStart = 2;
strokeHeight = 60;
strokeWidth = 65;
};
closed = 0;
nodes = (
(130,249,l),
(125,-100,l)
);
}
);
width = 263;
}
);
metricLeft = bar;
metricRight = bar;
unicode = 166;
},
{
glyphname = dagger;
lastChange = "2024-07-10 18:00:59 +0000";
layers = (
{
layerId = "6F9C6BB4-2DCF-443B-A55D-9CE049090094";
shapes = (
{
attr = {
lineCapEnd = 1;
lineCapStart = 1;
strokeHeight = 50;
strokeWidth = 55;
};
closed = 0;
nodes = (
(247,710,l),
(237,289,l)
);
},
{
attr = {
lineCapEnd = 1;
lineCapStart = 1;
strokeHeight = 50;
strokeWidth = 55;
};
closed = 0;
nodes = (
(95,528,l),
(395,528,l)
);
}
);
width = 491;
}
);
metricLeft = asterisk;
metricRight = asterisk;
unicode = 8224;
},
{
glyphname = daggerdbl;
lastChange = "2024-07-10 13:34:01 +0000";
layers = (
{
layerId = "6F9C6BB4-2DCF-443B-A55D-9CE049090094";
shapes = (
{
attr = {
lineCapEnd = "1";
lineCapStart = "1";
strokeHeight = 50;
strokeWidth = 55;
};
closed = 0;
nodes = (
(271,710,l),
(261,289,l)
);
},
{
attr = {
lineCapEnd = "1";
lineCapStart = "1";
strokeHeight = 50;
strokeWidth = 55;
};
closed = 0;
nodes = (
(119,558,l),
(419,558,l)
);
},
{
attr = {
lineCapEnd = "1";
lineCapStart = "1";
strokeHeight = 50;
strokeWidth = 55;
};
closed = 0;
nodes = (
(119,428,l),
(419,428,l)
);
}
);
width = 538;
}
);
unicode = 8225;
},
{
glyphname = ampersand.alt;
lastChange = "2024-07-10 13:34:01 +0000";
layers = (
{
background = {
shapes = (
{
attr = {
identifier = ID0x7fa77d1a5b30;
lineCapEnd = 1;
lineCapStart = 1;
};
closed = 0;
nodes = (
(513,679,l),
(454,693,o),
(403,700,o),
(358,700,cs),
(175,700,o),
(99,583,o),
(99,326,cs),
(99,138,o),
(173,0,o),
(311,0,cs),
(371,0,o),
(441,25,o),
(524,82,cs)
);
}
);
};
hints = (
{
horizontal = 1;
settings = {
deltaV = {
"{100, 100, 0, 0, 0, 0}" = {
"62" = 0;
};
};
};
type = TTDelta;
},
{
horizontal = 1;
settings = {
deltaV = {
"{100, 100, 0, 0, 0, 0}" = {
"62" = 0;
};
};
};
type = TTDelta;
},
{
horizontal = 1;
settings = {
deltaV = {
"{100, 100, 0, 0, 0, 0}" = {
"62" = 0;
};
};
};
type = TTDelta;
},
{
horizontal = 1;
origin = (2,9);
settings = {
deltaV = {
"{100, 100, 0, 0, 0, 0}" = {
"62" = 0;
};
};
};
type = TTDelta;
},
{
horizontal = 1;
settings = {
deltaV = {
"{100, 100, 0, 0, 0, 0}" = {
"62" = 0;
};
};
};
type = TTDelta;
},
{
horizontal = 1;
settings = {
deltaV = {
"{100, 100, 0, 0, 0, 0}" = {
"62" = 0;
};
};
};
type = TTDelta;
},
{
horizontal = 1;
settings = {
deltaV = {
"{100, 100, 0, 0, 0, 0}" = {
"62" = 0;
};
};
};
type = TTDelta;
},
{
horizontal = 1;
settings = {
deltaV = {
"{100, 100, 0, 0, 0, 0}" = {
"62" = 0;
};
};
};
type = TTDelta;
},
{
horizontal = 1;
settings = {
deltaV = {
"{100, 100, 0, 0, 0, 0}" = {
"62" = 0;
};
};
};
type = TTDelta;
},
{
horizontal = 1;
settings = {
deltaV = {
"{100, 100, 0, 0, 0, 0}" = {
"62" = 0;
};
};
};
type = TTDelta;
},
{
horizontal = 1;
settings = {
deltaV = {
"{100, 100, 0, 0, 0, 0}" = {
"62" = 0;
};
};
};
type = TTDelta;
},
{
horizontal = 1;
settings = {
deltaV = {
"{100, 100, 0, 0, 0, 0}" = {
"62" = 0;
};
};
};
type = TTDelta;
},
{
horizontal = 1;
settings = {
deltaV = {
"{100, 100, 0, 0, 0, 0}" = {
"62" = 0;
};
};
};
type = TTDelta;
}
);
layerId = "6F9C6BB4-2DCF-443B-A55D-9CE049090094";
shapes = (
{
attr = {
lineCapEnd = 2;
lineCapStart = 1;
strokeHeight = 60;
strokeWidth = 65;
};
closed = 0;
nodes = (
(709,25,l),
(589,25,o),
(563,95,o),
(563,377,cs),
(563,569,l)
);
},
{
attr = {
identifier = ID0x7fa77d1a5b30;
lineCapEnd = 1;
lineCapStart = 1;
strokeHeight = 60;
strokeWidth = 65;
};
closed = 0;
nodes = (
(513,709,l),
(454,723,o),
(403,730,o),
(358,730,cs),
(214,730,o),
(140,645,o),
(140,558,cs),
(140,443,o),
(249,408,o),
(325,408,cs),
(728,408,l)
);
},
{
attr = {
identifier = ID0x7fa77d1a5b30;
lineCapEnd = 1;
lineCapStart = 1;
strokeHeight = 60;
strokeWidth = 65;
};
closed = 0;
nodes = (
(413,408,l),
(212,414,o),
(100,339,o),
(100,199,cs),
(100,109,o),
(164,25,o),
(305,25,cs),
(423,25,o),
(545,101,o),
(563,320,cs)
);
},
{
pos = (709,0);
ref = _final;
}
);
width = 887;
}
);
},
{
glyphname = cent;
lastChange = "2024-07-10 13:34:01 +0000";
layers = (
{
background = {
shapes = (
{
attr = {
identifier = ID0x7fa77e051350;
lineCapEnd = "1";
lineCapStart = "1";
};
closed = 0;
nodes = (
(355,198,l),
(328,179,o),
(295,168,o),
(256,168,cs),
(158,168,o),
(103,236,o),
(101,322,cs),
(99,417,o),
(164,520,o),
(283,520,cs),
(317,520,o),
(345,512,o),
(368,498,c)
);
},
{
attr = {
lineCapEnd = "1";
lineCapStart = "1";
};
closed = 0;
nodes = (
(274,647,l),
(249,40,l)
);
}
);
};
layerId = "6F9C6BB4-2DCF-443B-A55D-9CE049090094";
shapes = (
{
attr = {
identifier = ID0x7fa77e051350;
lineCapEnd = "1";
lineCapStart = "1";
strokeHeight = 60;
strokeWidth = 65;
};
closed = 0;
nodes = (
(378,198,l),
(277,130,o),
(104,187,o),
(101,332,cs),
(97,501,o),
(268,559,o),
(368,498,c)
);
},
{
attr = {
lineCapEnd = "1";
lineCapStart = "1";
strokeHeight = 60;
strokeWidth = 65;
};
closed = 0;
nodes = (
(274,647,l),
(249,40,l)
);
}
);
width = 472;
}
);
unicode = 162;
},
{
glyphname = currency;
lastChange = "2024-07-10 13:34:01 +0000";
layers = (
{
background = {
shapes = (
{
closed = 0;
nodes = (
(327,509,l),
(230,509,o),
(152,431,o),
(152,335,cs),
(152,238,o),
(230,160,o),
(327,160,cs),
(423,160,o),
(501,238,o),
(501,335,cs),
(501,431,o),
(423,509,o),
(327,509,c)
);
},
{
attr = {
lineCapEnd = "1";
lineCapStart = "1";
};
closed = 0;
nodes = (
(110,566,l),
(543,103,l)
);
},
{
attr = {
lineCapEnd = "1";
lineCapStart = "1";
};
closed = 0;
nodes = (
(558,551,l),
(95,118,l)
);
}
);
};
layerId = "6F9C6BB4-2DCF-443B-A55D-9CE049090094";
shapes = (
{
attr = {
lineCapEnd = 2;
lineCapStart = "1";
strokeHeight = 60;
strokeWidth = 65;
};
closed = 0;
nodes = (
(110,566,l),
(207,463,l)
);
},
{
attr = {
lineCapEnd = 2;
lineCapStart = "1";
strokeHeight = 60;
strokeWidth = 65;
};
closed = 0;
nodes = (
(558,551,l),
(456,455,l)
);
},
{
attr = {
lineCapEnd = "1";
lineCapStart = 2;
strokeHeight = 60;
strokeWidth = 65;
};
closed = 0;
nodes = (
(444,209,l),
(543,103,l)
);
},
{
attr = {
lineCapEnd = "1";
lineCapStart = 2;
strokeHeight = 60;
strokeWidth = 65;
};
closed = 0;
nodes = (
(199,215,l),
(95,118,l)
);
},
{
attr = {
strokeHeight = 60;
strokeWidth = 65;
};
closed = 0;
nodes = (
(327,509,l),
(230,509,o),
(152,431,o),
(152,335,cs),
(152,238,o),
(230,160,o),
(327,160,cs),
(423,160,o),
(501,238,o),
(501,335,cs),
(501,431,o),
(423,509,o),
(327,509,c)
);
}
);
width = 653;
}
);
unicode = 164;
},
{
glyphname = dollar;
lastChange = "2024-07-10 18:01:24 +0000";
layers = (
{
background = {
shapes = (
{
attr = {
identifier = ID0x7fa77cce07f0;
lineCapEnd = 1;
lineCapStart = 1;
};
closed = 0;
nodes = (
(53,71,l),
(191,9,o),
(401,32,o),
(396,208,cs),
(392,363,o),
(60,359,o),
(60,516,cs),
(60,653,o),
(260,697,o),
(373,624,cs)
);
},
{
attr = {
lineCapEnd = "1";
lineCapStart = "1";
};
closed = 0;
nodes = (
(236,800,l),
(206,-100,l)
);
}
);
};
hints = (
{
horizontal = 1;
origin = (0,1);
settings = {
deltaV = {
"{100, 100, 0, 0, 0, 0}" = {
"62" = 0;
};
};
};
type = TTDelta;
},
{
horizontal = 1;
origin = (0,1);
settings = {
deltaV = {
"{100, 100, 0, 0, 0, 0}" = {
"62" = 0;
};
};
};
type = TTDelta;
},
{
horizontal = 1;
origin = (0,1);
settings = {
deltaV = {
"{100, 100, 0, 0, 0, 0}" = {
"62" = 0;
};
};
};
type = TTDelta;
},
{
horizontal = 1;
origin = (0,1);
settings = {
deltaV = {
"{100, 100, 0, 0, 0, 0}" = {
"62" = 0;
};
};
};
type = TTDelta;
},
{
horizontal = 1;
origin = (0,0);
settings = {
deltaV = {
"{100, 100, 0, 0, 0, 0}" = {
"62" = 0;
};
};
};
type = TTDelta;
},
{
horizontal = 1;
origin = (0,0);
settings = {
deltaV = {
"{100, 100, 0, 0, 0, 0}" = {
"62" = 0;
};
};
};
type = TTDelta;
},
{
horizontal = 1;
origin = (0,0);
settings = {
deltaV = {
"{100, 100, 0, 0, 0, 0}" = {
"62" = 0;
};
};
};
type = TTDelta;
},
{
horizontal = 1;
origin = (0,0);
settings = {
deltaV = {
"{100, 100, 0, 0, 0, 0}" = {
"62" = 0;
};
};
};
type = TTDelta;
},
{
horizontal = 1;
origin = (0,0);
settings = {
deltaV = {
"{100, 100, 0, 0, 0, 0}" = {
"62" = 0;
};
};
};
type = TTDelta;
},
{
horizontal = 1;
origin = (0,0);
settings = {
deltaV = {
"{100, 100, 0, 0, 0, 0}" = {
"62" = 0;
};
};
};
type = TTDelta;
},
{
horizontal = 1;
origin = (0,0);
settings = {
deltaV = {
"{100, 100, 0, 0, 0, 0}" = {
"62" = 0;
};
};
};
type = TTDelta;
},
{
horizontal = 1;
origin = (0,0);
settings = {
deltaV = {
"{100, 100, 0, 0, 0, 0}" = {
"62" = 0;
};
};
};
type = TTDelta;
},
{
horizontal = 1;
origin = (0,0);
settings = {
deltaV = {
"{100, 100, 0, 0, 0, 0}" = {
"62" = 0;
};
};
};
type = TTDelta;
}
);
layerId = "6F9C6BB4-2DCF-443B-A55D-9CE049090094";
shapes = (
{
attr = {
lineCapEnd = "1";
lineCapStart = "1";
strokeHeight = 50;
strokeWidth = 55;
};
closed = 0;
nodes = (
(276,840,l),
(206,-100,l)
);
},
{
pos = (-27,0);
ref = S;
}
);
width = 549;
}
);
unicode = 36;
},
{
glyphname = euro;
lastChange = "2024-07-10 18:01:24 +0000";
layers = (
{
anchors = (
{
name = bottom;
pos = (426,0);
},
{
name = center;
pos = (426,350);
},
{
name = ogonek;
pos = (721,10);
},
{
name = top;
pos = (426,650);
},
{
name = topleft;
pos = (76,700);
},
{
name = topright;
pos = (775,700);
}
);
background = {
shapes = (
{
pos = (88,0);
ref = O;
}
);
};
layerId = "6F9C6BB4-2DCF-443B-A55D-9CE049090094";
shapes = (
{
attr = {
identifier = ID0x7fa77e051350;
lineCapEnd = 1;
lineCapStart = 1;
strokeHeight = 60;
strokeWidth = 65;
};
closed = 0;
nodes = (
(612,86,l),
(569,49,o),
(516,27,o),
(454,27,cs),
(298,27,o),
(211,163,o),
(208,332,cs),
(204,521,o),
(307,727,o),
(497,727,cs),
(551,727,o),
(595,711,o),
(632,684,c)
);
},
{
attr = {
lineCapEnd = 1;
lineCapStart = 1;
strokeHeight = 50;
strokeWidth = 55;
};
closed = 0;
nodes = (
(119,468,l),
(545,468,l)
);
},
{
attr = {
lineCapEnd = 1;
lineCapStart = 1;
strokeHeight = 50;
strokeWidth = 55;
};
closed = 0;
nodes = (
(99,299,l),
(525,299,l)
);
}
);
width = 725;
}
);
unicode = 8364;
},
{
glyphname = hryvnia;
lastChange = "2024-07-10 13:34:01 +0000";
layers = (
{
hints = (
{
horizontal = 1;
origin = (0,14);
settings = {
deltaV = {
"{100, 100, 0, 0, 0, 0}" = {
"62" = 0;
};
};
};
type = TTDelta;
},
{
horizontal = 1;
origin = (0,14);
settings = {
deltaV = {
"{100, 100, 0, 0, 0, 0}" = {
"62" = 0;
};
};
};
type = TTDelta;
},
{
horizontal = 1;
origin = (0,14);
settings = {
deltaV = {
"{100, 100, 0, 0, 0, 0}" = {
"62" = 0;
};
};
};
type = TTDelta;
},
{
horizontal = 1;
origin = (0,8);
settings = {
deltaV = {
"{100, 100, 0, 0, 0, 0}" = {
"62" = 0;
};
};
};
type = TTDelta;
},
{
horizontal = 1;
origin = (0,2);
settings = {
deltaV = {
"{100, 100, 0, 0, 0, 0}" = {
"62" = 0;
};
};
};
type = TTDelta;
},
{
horizontal = 1;
origin = (0,2);
settings = {
deltaV = {
"{100, 100, 0, 0, 0, 0}" = {
"62" = 0;
};
};
};
type = TTDelta;
},
{
horizontal = 1;
origin = (0,2);
settings = {
deltaV = {
"{100, 100, 0, 0, 0, 0}" = {
"62" = 0;
};
};
};
type = TTDelta;
},
{
horizontal = 1;
origin = (0,18);
settings = {
deltaV = {
"{100, 100, 0, 0, 0, 0}" = {
"62" = 0;
};
};
};
type = TTDelta;
},
{
horizontal = 1;
origin = (0,18);
settings = {
deltaV = {
"{100, 100, 0, 0, 0, 0}" = {
"62" = 0;
};
};
};
type = TTDelta;
},
{
horizontal = 1;
origin = (0,18);
settings = {
deltaV = {
"{100, 100, 0, 0, 0, 0}" = {
"62" = 0;
};
};
};
type = TTDelta;
},
{
horizontal = 1;
origin = (0,18);
settings = {
deltaV = {
"{100, 100, 0, 0, 0, 0}" = {
"62" = 0;
};
};
};
type = TTDelta;
},
{
horizontal = 1;
origin = (0,18);
settings = {
deltaV = {
"{100, 100, 0, 0, 0, 0}" = {
"62" = 0;
};
};
};
type = TTDelta;
},
{
horizontal = 1;
origin = (0,18);
settings = {
deltaV = {
"{100, 100, 0, 0, 0, 0}" = {
"62" = 0;
};
};
};
type = TTDelta;
}
);
layerId = "6F9C6BB4-2DCF-443B-A55D-9CE049090094";
shapes = (
{
attr = {
identifier = ID0x7fadb08ecf00;
lineCapEnd = 1;
lineCapStart = 1;
strokeHeight = 60;
strokeWidth = 65;
};
closed = 0;
nodes = (
(222,690,l),
(259,714,o),
(304,725,o),
(348,725,cs),
(439,725,o),
(525,675,o),
(524,582,cs),
(522,485,o),
(439,437,o),
(356,390,cs),
(277,344,o),
(199,300,o),
(191,214,cs),
(178,75,o),
(294,26,o),
(399,26,cs),
(451,26,o),
(501,38,o),
(531,57,c)
);
},
{
attr = {
lineCapEnd = "1";
lineCapStart = "1";
strokeHeight = 50;
strokeWidth = 55;
};
closed = 0;
nodes = (
(172,468,l),
(598,468,l)
);
},
{
attr = {
lineCapEnd = "1";
lineCapStart = "1";
strokeHeight = 50;
strokeWidth = 55;
};
closed = 0;
nodes = (
(92,299,l),
(518,299,l)
);
}
);
width = 690;
}
);
unicode = 8372;
},
{
glyphname = ruble;
lastChange = "2024-07-10 13:34:01 +0000";
layers = (
{
background = {
shapes = (
{
closed = 0;
nodes = (
(152,135,l),
(568,135,l)
);
}
);
};
layerId = "6F9C6BB4-2DCF-443B-A55D-9CE049090094";
shapes = (
{
attr = {
identifier = ID0x7fbbd37768b0;
lineCapEnd = 2;
lineCapStart = 2;
strokeHeight = 60;
strokeWidth = 65;
};
closed = 0;
nodes = (
(270,-2,l),
(286,724,l),
(459,724,ls),
(577,724,o),
(638,671,o),
(638,571,cs),
(638,432,o),
(504,335,o),
(281,336,cs),
(95,337,l)
);
},
{
attr = {
lineCapEnd = "1";
lineCapStart = "1";
strokeHeight = 50;
strokeWidth = 55;
};
closed = 0;
nodes = (
(125,178,l),
(551,178,l)
);
}
);
width = 739;
}
);
unicode = 8381;
},
{
glyphname = rupeeIndian;
lastChange = "2024-07-10 13:34:01 +0000";
layers = (
{
layerId = "6F9C6BB4-2DCF-443B-A55D-9CE049090094";
shapes = (
{
attr = {
identifier = ID0x7fada9ba0a70;
lineCapEnd = 1;
lineCapStart = 1;
strokeHeight = 60;
strokeWidth = 65;
};
closed = 0;
nodes = (
(185,359,l),
(540,25,l)
);
},
{
attr = {
lineCapEnd = 1;
lineCapStart = 1;
strokeHeight = 50;
strokeWidth = 55;
};
closed = 0;
nodes = (
(271,729,l),
(654,729,l)
);
},
{
attr = {
lineCapEnd = 1;
lineCapStart = 1;
strokeHeight = 50;
strokeWidth = 55;
};
closed = 0;
nodes = (
(86,556,l),
(642,556,l)
);
},
{
attr = {
lineCapEnd = 1;
lineCapStart = 1;
strokeHeight = 60;
strokeWidth = 65;
};
closed = 0;
nodes = (
(178,725,l),
(353,725,l),
(453,725,o),
(521,686,o),
(521,594,cs),
(521,453,o),
(407,363,o),
(178,363,c)
);
}
);
width = 744;
}
);
unicode = 8377;
},
{
glyphname = sheqel;
lastChange = "2024-07-10 13:34:01 +0000";
layers = (
{
layerId = "6F9C6BB4-2DCF-443B-A55D-9CE049090094";
shapes = (
{
attr = {
lineCapEnd = "1";
lineCapStart = "1";
strokeHeight = 60;
strokeWidth = 65;
};
closed = 0;
nodes = (
(443,280,l),
(452,490,ls),
(456,591,o),
(395,680,o),
(296,680,cs),
(199,680,o),
(124,593,o),
(124,490,cs),
(123,80,l)
);
},
{
attr = {
lineCapEnd = "1";
lineCapStart = "1";
strokeHeight = 60;
strokeWidth = 65;
};
closed = 0;
nodes = (
(286,470,l),
(277,260,ls),
(273,159,o),
(334,70,o),
(433,70,cs),
(530,70,o),
(605,157,o),
(605,260,cs),
(606,670,l)
);
}
);
width = 729;
}
);
unicode = 8362;
},
{
glyphname = sterling;
lastChange = "2024-07-10 18:01:23 +0000";
layers = (
{
background = {
shapes = (
{
attr = {
identifier = ID0x7fadae460320;
lineCapEnd = 1;
lineCapStart = 1;
};
closed = 0;
nodes = (
(565,679,l),
(515,693,o),
(471,700,o),
(433,700,cs),
(278,700,o),
(213,583,o),
(213,326,c)
);
}
);
};
layerId = "6F9C6BB4-2DCF-443B-A55D-9CE049090094";
shapes = (
{
attr = {
identifier = ID0x7fadae460320;
lineCapEnd = "1";
lineCapStart = "1";
strokeWidth = 65;
};
closed = 0;
nodes = (
(565,705,l),
(515,719,o),
(471,726,o),
(433,726,cs),
(312,726,o),
(234,653,o),
(234,502,cs),
(234,460,o),
(240,412,o),
(253,358,cs),
(261,325,o),
(265,295,o),
(265,266,cs),
(265,122,o),
(174,32,o),
(93,32,c)
);
},
{
attr = {
lineCapEnd = 1;
lineCapStart = 1;
strokeHeight = 60;
strokeWidth = 65;
};
closed = 0;
nodes = (
(102,369,l),
(518,369,l)
);
},
{
attr = {
identifier = ID0x7fadae460320;
lineCapEnd = "1";
lineCapStart = "1";
strokeWidth = 65;
};
closed = 0;
nodes = (
(93,32,l),
(574,32,l)
);
}
);
width = 668;
}
);
unicode = 163;
},
{
glyphname = won;
lastChange = "2024-07-10 13:34:01 +0000";
layers = (
{
layerId = "6F9C6BB4-2DCF-443B-A55D-9CE049090094";
shapes = (
{
pos = (67,0);
ref = W;
},
{
attr = {
lineCapEnd = 1;
lineCapStart = 1;
strokeHeight = 50;
strokeWidth = 55;
};
closed = 0;
nodes = (
(108,391,l),
(1124,391,l)
);
},
{
attr = {
lineCapEnd = 1;
lineCapStart = 1;
strokeHeight = 50;
strokeWidth = 55;
};
closed = 0;
nodes = (
(88,222,l),
(1104,222,l)
);
}
);
width = 1212;
}
);
unicode = 8361;
},
{
glyphname = yen;
lastChange = "2024-07-10 18:01:23 +0000";
layers = (
{
layerId = "6F9C6BB4-2DCF-443B-A55D-9CE049090094";
shapes = (
{
pos = (44,0);
ref = Y;
},
{
attr = {
lineCapEnd = "1";
lineCapStart = "1";
strokeHeight = 50;
strokeWidth = 55;
};
closed = 0;
nodes = (
(87,391,l),
(603,391,l)
);
},
{
attr = {
lineCapEnd = "1";
lineCapStart = "1";
strokeHeight = 50;
strokeWidth = 55;
};
closed = 0;
nodes = (
(87,222,l),
(603,222,l)
);
}
);
width = 741;
}
);
unicode = 165;
},
{
glyphname = minus;
lastChange = "2024-07-10 13:40:19 +0000";
layers = (
{
layerId = "6F9C6BB4-2DCF-443B-A55D-9CE049090094";
shapes = (
{
attr = {
lineCapEnd = 1;
lineCapStart = 1;
strokeHeight = 60;
strokeWidth = 65;
};
closed = 0;
nodes = (
(140,250,l),
(570,250,l)
);
}
);
width = 710;
}
);
unicode = 8722;
},
{
glyphname = notequal;
lastChange = "2024-07-10 13:45:58 +0000";
layers = (
{
layerId = "6F9C6BB4-2DCF-443B-A55D-9CE049090094";
shapes = (
{
pos = (-46,0);
ref = equal;
},
{
attr = {
identifier = ID0x7fadae6cd790;
lineCapEnd = "1";
lineCapStart = "1";
strokeHeight = 60;
strokeWidth = 65;
};
closed = 0;
nodes = (
(399,512,l),
(204,0,l)
);
}
);
width = 618;
}
);
unicode = 8800;
},
{
glyphname = greater;
lastChange = "2024-07-10 13:45:58 +0000";
layers = (
{
layerId = "6F9C6BB4-2DCF-443B-A55D-9CE049090094";
shapes = (
{
attr = {
lineCapEnd = 1;
lineCapStart = 1;
strokeWidth = 65;
};
closed = 0;
nodes = (
(96,540,l),
(526,280,l)
);
},
{
attr = {
lineCapEnd = 1;
lineCapStart = 1;
strokeWidth = 65;
};
closed = 0;
nodes = (
(526,280,l),
(96,20,l)
);
}
);
width = 621;
}
);
unicode = 62;
},
{
glyphname = approxequal;
lastChange = "2024-07-10 13:46:02 +0000";
layers = (
{
anchors = (
{
name = top;
pos = (355,426);
}
);
background = {
shapes = (
{
closed = 0;
nodes = (
(139,350,l),
(569,350,l)
);
},
{
closed = 0;
nodes = (
(139,150,l),
(569,150,l)
);
}
);
};
layerId = "6F9C6BB4-2DCF-443B-A55D-9CE049090094";
shapes = (
{
pos = (-1,-75);
ref = asciitilde;
},
{
pos = (-1,125);
ref = asciitilde;
}
);
width = 646;
}
);
unicode = 8776;
},
{
glyphname = asciitilde;
lastChange = "2024-07-10 13:45:58 +0000";
layers = (
{
layerId = "6F9C6BB4-2DCF-443B-A55D-9CE049090094";
shapes = (
{
attr = {
identifier = ID0x7fadb1868510;
lineCapEnd = "1";
lineCapStart = "1";
strokeHeight = 60;
strokeWidth = 65;
};
closed = 0;
nodes = (
(105,209,l),
(136,263,o),
(151,296,o),
(211,296,cs),
(249,296,o),
(286,271,o),
(324,246,cs),
(362,221,o),
(399,196,o),
(437,196,cs),
(497,196,o),
(512,229,o),
(543,283,c)
);
}
);
width = 648;
}
);
unicode = 126;
},
{
glyphname = logicalnot;
lastChange = "2024-07-10 13:45:58 +0000";
layers = (
{
layerId = "6F9C6BB4-2DCF-443B-A55D-9CE049090094";
shapes = (
{
attr = {
lineCapEnd = 1;
lineCapStart = 1;
strokeHeight = 60;
strokeWidth = 65;
};
closed = 0;
nodes = (
(557,150,l),
(557,350,l),
(127,350,l)
);
}
);
width = 687;
}
);
unicode = 172;
},
{
glyphname = infinity;
lastChange = "2024-07-10 13:45:58 +0000";
layers = (
{
hints = (
{
horizontal = 1;
place = (637,0);
settings = {
deltaV = {
"{100, 100, 0, 0, 0, 0}" = {
"62" = 0;
};
};
};
type = TTDelta;
},
{
horizontal = 1;
place = (637,0);
settings = {
deltaV = {
"{100, 100, 0, 0, 0, 0}" = {
"62" = 0;
};
};
};
type = TTDelta;
},
{
horizontal = 1;
place = (637,0);
settings = {
deltaV = {
"{100, 100, 0, 0, 0, 0}" = {
"62" = 0;
};
};
};
type = TTDelta;
},
{
horizontal = 1;
place = (637,0);
settings = {
deltaV = {
"{100, 100, 0, 0, 0, 0}" = {
"62" = 0;
};
};
};
type = TTDelta;
},
{
horizontal = 1;
place = (637,0);
settings = {
deltaV = {
"{100, 100, 0, 0, 0, 0}" = {
"62" = 0;
};
};
};
type = TTDelta;
},
{
horizontal = 1;
place = (637,0);
settings = {
deltaV = {
"{100, 100, 0, 0, 0, 0}" = {
"62" = 0;
};
};
};
type = TTDelta;
},
{
horizontal = 1;
place = (637,0);
settings = {
deltaV = {
"{100, 100, 0, 0, 0, 0}" = {
"62" = 0;
};
};
};
type = TTDelta;
},
{
horizontal = 1;
place = (637,0);
settings = {
deltaV = {
"{100, 100, 0, 0, 0, 0}" = {
"62" = 0;
};
};
};
type = TTDelta;
},
{
horizontal = 1;
place = (637,0);
settings = {
deltaV = {
"{100, 100, 0, 0, 0, 0}" = {
"62" = 0;
};
};
};
type = TTDelta;
},
{
horizontal = 1;
place = (637,0);
settings = {
deltaV = {
"{100, 100, 0, 0, 0, 0}" = {
"62" = 0;
};
};
};
type = TTDelta;
},
{
horizontal = 1;
place = (637,0);
settings = {
deltaV = {
"{100, 100, 0, 0, 0, 0}" = {
"62" = 0;
};
};
};
type = TTDelta;
},
{
horizontal = 1;
place = (637,0);
settings = {
deltaV = {
"{100, 100, 0, 0, 0, 0}" = {
"62" = 0;
};
};
};
type = TTDelta;
},
{
horizontal = 1;
place = (637,0);
settings = {
deltaV = {
"{100, 100, 0, 0, 0, 0}" = {
"62" = 0;
};
};
};
type = TTDelta;
}
);
layerId = "6F9C6BB4-2DCF-443B-A55D-9CE049090094";
shapes = (
{
attr = {
identifier = ID0x7fadab42b840;
lineCapEnd = "1";
lineCapStart = "1";
strokeHeight = 60;
strokeWidth = 65;
};
closed = 0;
nodes = (
(477,380,ls),
(432,495,o),
(353,544,o),
(280,544,cs),
(189,544,o),
(107,469,o),
(107,351,cs),
(107,235,o),
(192,155,o),
(283,155,cs),
(350,155,o),
(421,199,o),
(462,304,cs),
(498,396,ls),
(540,501,o),
(610,545,o),
(677,545,cs),
(768,545,o),
(853,465,o),
(853,349,cs),
(853,231,o),
(771,156,o),
(680,156,cs),
(607,156,o),
(528,205,o),
(483,320,cs)
);
}
);
width = 961;
}
);
unicode = 8734;
},
{
glyphname = integral;
lastChange = "2024-07-10 13:45:58 +0000";
layers = (
{
layerId = "6F9C6BB4-2DCF-443B-A55D-9CE049090094";
shapes = (
{
attr = {
identifier = ID0x7fea05ea0240;
lineCapEnd = "1";
lineCapStart = "1";
strokeHeight = 60;
strokeWidth = 65;
};
closed = 0;
nodes = (
(509,836,l),
(416,836,o),
(371,796,o),
(355,700,cs),
(244,0,ls),
(228,-96,o),
(183,-136,o),
(90,-136,c)
);
}
);
width = 599;
}
);
unicode = 8747;
},
{
glyphname = product;
lastChange = "2024-07-10 13:45:58 +0000";
layers = (
{
layerId = "6F9C6BB4-2DCF-443B-A55D-9CE049090094";
shapes = (
{
attr = {
identifier = ID0x7fadae527ce0;
lineCapEnd = 1;
lineCapStart = 1;
strokeHeight = 60;
strokeWidth = 65;
};
closed = 0;
nodes = (
(123,724,l),
(683,724,l)
);
},
{
attr = {
identifier = ID0x7fadae527ce0;
lineCapEnd = 1;
lineCapStart = 2;
strokeHeight = 60;
strokeWidth = 65;
};
closed = 0;
nodes = (
(253,724,l),
(240,27,l)
);
},
{
attr = {
identifier = ID0x7fadae527ce0;
lineCapEnd = 1;
lineCapStart = 2;
strokeHeight = 60;
strokeWidth = 65;
};
closed = 0;
nodes = (
(553,724,l),
(540,27,l)
);
}
);
width = 806;
}
);
unicode = 8719;
},
{
glyphname = summation;
lastChange = "2024-07-10 13:45:58 +0000";
layers = (
{
layerId = "6F9C6BB4-2DCF-443B-A55D-9CE049090094";
shapes = (
{
attr = {
identifier = ID0x7fadae527ce0;
lineCapEnd = "1";
lineCapStart = "1";
strokeHeight = 60;
strokeWidth = 65;
};
closed = 0;
nodes = (
(514,724,l),
(114,724,l)
);
},
{
attr = {
identifier = ID0x7fadae527ce0;
lineCapEnd = "1";
lineCapStart = "1";
strokeHeight = 60;
strokeWidth = 65;
};
closed = 0;
nodes = (
(94,30,l),
(514,30,l)
);
},
{
attr = {
identifier = ID0x7fadae527ce0;
lineCapEnd = "1";
lineCapStart = "1";
strokeHeight = 60;
strokeWidth = 65;
};
closed = 0;
nodes = (
(339,395,l),
(94,32,l)
);
},
{
attr = {
identifier = ID0x7fadae527ce0;
lineCapEnd = "1";
lineCapStart = "1";
strokeHeight = 60;
strokeWidth = 65;
};
closed = 0;
nodes = (
(114,721,l),
(339,395,l)
);
}
);
width = 606;
}
);
unicode = 8721;
},
{
glyphname = radical;
lastChange = "2024-07-10 13:45:58 +0000";
layers = (
{
layerId = "6F9C6BB4-2DCF-443B-A55D-9CE049090094";
shapes = (
{
attr = {
lineCapEnd = 1;
lineCapStart = 1;
strokeHeight = 60;
strokeWidth = 65;
};
closed = 0;
nodes = (
(95,457,l),
(275,27,l)
);
},
{
attr = {
lineCapEnd = 1;
lineCapStart = 1;
strokeHeight = 60;
strokeWidth = 65;
};
closed = 0;
nodes = (
(275,27,l),
(509,724,l),
(959,724,l)
);
}
);
width = 1052;
}
);
unicode = 8730;
},
{
glyphname = percent;
lastChange = "2024-07-10 18:01:23 +0000";
layers = (
{
guides = (
{
angle = 90;
pos = (135,-530);
},
{
angle = 90;
pos = (635,-530);
}
);
layerId = "6F9C6BB4-2DCF-443B-A55D-9CE049090094";
shapes = (
{
attr = {
identifier = ID0x7fb89da4fcf0;
lineCapEnd = "1";
lineCapStart = "1";
strokeHeight = 60;
strokeWidth = 65;
};
closed = 0;
nodes = (
(652,700,l),
(155,0,l)
);
},
{
pos = (-12,0);
ref = degree;
},
{
pos = (400,-440);
ref = degree;
}
);
userData = {
assembly = "NPUSHB[ ]	/* 29 values pushed */
1 56 56 64 57 47 50 44 36 28 22 16 10 4 53 47 40 32 25 19 13 7 3 1 0 2 1 40 70 
SROUND[ ]	/* SuperRound */
MDAP[1]	/* MoveDirectAbsPt */
SHZ[1]	/* ShiftZoneByLastPoint */
RTG[ ]	/* RoundToGrid */
SVTCA[0]	/* SetFreedomAndProjectionVectorToAxis */
MDAP[1]	/* MoveDirectAbsPt */
MDAP[1]	/* MoveDirectAbsPt */
SVTCA[1]	/* SetFreedomAndProjectionVectorToAxis */
MDAP[0]	/* MoveDirectAbsPt */
MDAP[0]	/* MoveDirectAbsPt */
MDAP[0]	/* MoveDirectAbsPt */
MDAP[0]	/* MoveDirectAbsPt */
MDAP[0]	/* MoveDirectAbsPt */
MDAP[0]	/* MoveDirectAbsPt */
MDAP[0]	/* MoveDirectAbsPt */
MDAP[0]	/* MoveDirectAbsPt */
MDAP[0]	/* MoveDirectAbsPt */
MDAP[0]	/* MoveDirectAbsPt */
SVTCA[0]	/* SetFreedomAndProjectionVectorToAxis */
MDAP[0]	/* MoveDirectAbsPt */
MDAP[0]	/* MoveDirectAbsPt */
MDAP[0]	/* MoveDirectAbsPt */
MDAP[0]	/* MoveDirectAbsPt */
MDAP[0]	/* MoveDirectAbsPt */
MDAP[0]	/* MoveDirectAbsPt */
MDAP[0]	/* MoveDirectAbsPt */
MDAP[0]	/* MoveDirectAbsPt */
IUP[1]	/* InterpolateUntPts */
IUP[0]	/* InterpolateUntPts */
SVTCA[1]	/* SetFreedomAndProjectionVectorToAxis */
MD[0]	/* MeasureDistance */
ROUND[00]	/* Round */
PUSHW[ ]	/* 2 values pushed */
40 56 
MD[0]	/* MeasureDistance */
ROUND[00]	/* Round */
SUB[ ]	/* Subtract */
PUSHB[ ]	/* 1 value pushed */
64 
GT[ ]	/* GreaterThan */
IF[ ]	/* If */
SHPIX[ ]	/* ShiftZoneByPixel */
SRP1[ ]	/* SetRefPoint1 */
SHZ[1]	/* ShiftZoneByLastPoint */
PUSHW[ ]	/* 2 values pushed */
56 -64 
SHPIX[ ]	/* ShiftZoneByPixel */
EIF[ ]	/* EndIf */";
};
width = 837;
}
);
note = percent;
unicode = 37;
},
{
glyphname = leftArrow;
lastChange = "2024-07-10 13:55:17 +0000";
layers = (
{
layerId = "6F9C6BB4-2DCF-443B-A55D-9CE049090094";
shapes = (
{
attr = {
lineCapEnd = 2;
lineCapStart = 2;
strokeHeight = 60;
strokeWidth = 65;
};
closed = 0;
nodes = (
(124,320,l),
(703,320,l)
);
},
{
attr = {
lineCapEnd = 2;
lineCapStart = 2;
strokeHeight = 60;
strokeWidth = 65;
};
closed = 0;
nodes = (
(443,69,l),
(113,319,l),
(443,569,l)
);
}
);
width = 770;
}
);
unicode = 8592;
},
{
glyphname = dottedCircle;
lastChange = "2024-07-10 16:54:34 +0000";
layers = (
{
layerId = "6F9C6BB4-2DCF-443B-A55D-9CE049090094";
shapes = (
{
closed = 1;
nodes = (
(617,-3,o),
(775,155,o),
(775,349,cs),
(775,542,o),
(617,700,o),
(424,700,cs),
(230,700,o),
(72,542,o),
(72,349,cs),
(72,155,o),
(230,-3,o),
(424,-3,cs)
);
}
);
width = 847;
}
);
unicode = 9676;
},
{
glyphname = dotaccentcomb;
lastChange = "2024-07-10 16:54:34 +0000";
layers = (
{
anchors = (
{
name = _top;
pos = (30,360);
},
{
name = top;
pos = (30,545);
}
);
background = {
shapes = (
{
attr = {
lineCapEnd = 1;
lineCapStart = 1;
strokeHeight = 50;
strokeWidth = 55;
};
closed = 0;
nodes = (
(29,530,l),
(29,486,l)
);
}
);
};
layerId = "6F9C6BB4-2DCF-443B-A55D-9CE049090094";
shapes = (
{
closed = 1;
nodes = (
(55,459,o),
(69,479,o),
(69,507,cs),
(69,534,o),
(55,554,o),
(29,554,cs),
(2,554,o),
(-12,534,o),
(-12,507,cs),
(-12,479,o),
(2,459,o),
(29,459,cs)
);
}
);
width = 59;
}
);
unicode = 775;
},
{
glyphname = grave;
lastChange = "2024-07-09 16:24:59 +0000";
layers = (
{
layerId = "6F9C6BB4-2DCF-443B-A55D-9CE049090094";
shapes = (
{
attr = {
lineCapEnd = "1";
lineCapStart = "1";
strokeHeight = 50;
strokeWidth = 55;
};
closed = 0;
nodes = (
(20,604,l),
(138,484,l)
);
}
);
width = 158;
}
);
unicode = 96;
},
{
glyphname = acute;
lastChange = "2024-07-09 16:24:45 +0000";
layers = (
{
background = {
shapes = (
{
pos = (-259,0);
ref = a;
}
);
};
layerId = "6F9C6BB4-2DCF-443B-A55D-9CE049090094";
shapes = (
{
attr = {
lineCapEnd = 1;
lineCapStart = 1;
strokeHeight = 50;
strokeWidth = 55;
};
closed = 0;
nodes = (
(20,484,l),
(138,604,l)
);
}
);
width = 158;
}
);
unicode = 180;
},
{
glyphname = circumflex;
lastChange = "2024-07-09 16:26:25 +0000";
layers = (
{
layerId = "6F9C6BB4-2DCF-443B-A55D-9CE049090094";
shapes = (
{
attr = {
identifier = ID0x7fa2c539d010;
lineCapEnd = 1;
lineCapStart = 1;
strokeHeight = 50;
strokeWidth = 55;
};
closed = 0;
nodes = (
(0,484,l),
(98,604,l)
);
},
{
attr = {
identifier = ID0x7fa2c539d010;
lineCapEnd = 1;
lineCapStart = 1;
strokeHeight = 50;
strokeWidth = 55;
};
closed = 0;
nodes = (
(98,604,l),
(196,484,l)
);
}
);
width = 196;
}
);
unicode = 710;
},
{
glyphname = breve;
lastChange = "2024-07-09 16:26:44 +0000";
layers = (
{
layerId = "6F9C6BB4-2DCF-443B-A55D-9CE049090094";
shapes = (
{
attr = {
lineCapEnd = 1;
lineCapStart = 1;
strokeHeight = 50;
strokeWidth = 55;
};
closed = 0;
nodes = (
(0,602,l),
(0,531,o),
(58,473,o),
(129,473,cs),
(198,473,o),
(256,531,o),
(256,602,c)
);
}
);
width = 256;
}
);
unicode = 728;
},
{
glyphname = ring;
lastChange = "2024-07-09 16:28:08 +0000";
layers = (
{
layerId = "6F9C6BB4-2DCF-443B-A55D-9CE049090094";
shapes = (
{
attr = {
strokeHeight = 50;
strokeWidth = 55;
};
closed = 0;
nodes = (
(98,669,ls),
(44,669,o),
(0,625,o),
(0,571,cs),
(0,517,o),
(44,473,o),
(98,473,cs),
(152,473,o),
(196,517,o),
(196,571,cs),
(196,625,o),
(152,669,o),
(98,669,c)
);
}
);
width = 196;
}
);
unicode = 730;
},
{
glyphname = tilde;
lastChange = "2024-07-09 16:24:31 +0000";
layers = (
{
background = {
shapes = (
{
attr = {
lineCapEnd = "1";
lineCapStart = "1";
};
closed = 0;
nodes = (
(25,507,l),
(44,539,o),
(54,558,o),
(92,558,cs),
(139,558,o),
(185,498,o),
(235,498,cs),
(270,498,o),
(281,521,o),
(300,550,c)
);
}
);
};
layerId = "6F9C6BB4-2DCF-443B-A55D-9CE049090094";
shapes = (
{
attr = {
lineCapEnd = "1";
lineCapStart = "1";
strokeHeight = 50;
strokeWidth = 55;
};
closed = 0;
nodes = (
(33,507,l),
(51,539,o),
(60,558,o),
(95,558,cs),
(117,558,o),
(139,543,o),
(162,528,cs),
(184,513,o),
(207,498,o),
(231,498,cs),
(264,498,o),
(274,521,o),
(293,550,c)
);
}
);
width = 325;
}
);
unicode = 732;
},
{
glyphname = macron;
lastChange = "2024-07-09 16:28:16 +0000";
layers = (
{
layerId = "6F9C6BB4-2DCF-443B-A55D-9CE049090094";
shapes = (
{
attr = {
lineCapEnd = "1";
lineCapStart = "1";
strokeHeight = 50;
strokeWidth = 55;
};
closed = 0;
nodes = (
(0,500,l),
(260,500,l)
);
}
);
width = 260;
}
);
unicode = 175;
},
{
glyphname = cedilla;
lastChange = "2024-07-09 16:25:29 +0000";
layers = (
{
background = {
shapes = (
{
pos = (-153,0);
ref = c;
}
);
};
layerId = "6F9C6BB4-2DCF-443B-A55D-9CE049090094";
shapes = (
{
attr = {
lineCapEnd = 1;
lineCapStart = 1;
strokeHeight = 50;
strokeWidth = 55;
};
closed = 0;
nodes = (
(172,109,l),
(144,34,o),
(105,-42,o),
(30,-120,c)
);
}
);
width = 182;
}
);
unicode = 184;
},
{
glyphname = ogonek;
lastChange = "2024-07-09 16:28:38 +0000";
layers = (
{
layerId = "6F9C6BB4-2DCF-443B-A55D-9CE049090094";
shapes = (
{
attr = {
lineCapEnd = "1";
lineCapStart = "1";
strokeHeight = 50;
strokeWidth = 55;
};
closed = 0;
nodes = (
(162,0,l),
(98,-34,o),
(32,-122,o),
(32,-175,cs),
(32,-201,o),
(48,-218,o),
(86,-218,cs),
(100,-218,o),
(117,-216,o),
(137,-211,c)
);
}
);
width = 300;
}
);
unicode = 731;
},
{
export = 0;
glyphname = _part.bucle;
lastChange = "2024-07-10 09:11:09 +0000";
layers = (
{
background = {
shapes = (
{
attr = {
lineCapEnd = 1;
lineCapStart = 1;
};
closed = 0;
nodes = (
(286,355,l),
(257,361,o),
(220,364,o),
(194,364,cs),
(88,364,o),
(17,311,o),
(17,180,cs),
(17,42,o),
(81,-5,o),
(150,-5,cs),
(214,-5,o),
(278,50,o),
(288,150,c)
);
},
{
closed = 1;
nodes = (
(255,-14,o),
(325,71,o),
(323,191,c),
(338,191,l),
(338,370,l),
(326,374,o),
(315,376,o),
(303,376,cs),
(289,376,o),
(276,373,o),
(267,370,c),
(267,175,ls),
(267,103,o),
(223,53,o),
(157,53,cs),
(98,53,o),
(62,98,o),
(62,172,cs),
(62,252,o),
(110,310,o),
(177,310,cs),
(219,310,o),
(263,281,o),
(279,242,c),
(279,323,l),
(257,356,o),
(212,377,o),
(168,377,cs),
(65,377,o),
(-11,290,o),
(-11,172,cs),
(-11,62,o),
(56,-14,o),
(154,-14,cs)
);
}
);
};
layerId = "6F9C6BB4-2DCF-443B-A55D-9CE049090094";
shapes = (
{
attr = {
lineCapEnd = 1;
lineCapStart = 1;
strokeHeight = 60;
strokeWidth = 65;
};
closed = 0;
nodes = (
(286,385,l),
(257,391,o),
(220,394,o),
(194,394,cs),
(88,394,o),
(17,341,o),
(17,210,cs),
(17,72,o),
(81,25,o),
(150,25,cs),
(214,25,o),
(278,80,o),
(288,180,c)
);
}
);
width = 296;
}
);
},
{
export = 0;
glyphname = _arco1;
lastChange = "2024-07-10 09:48:48 +0000";
layers = (
{
background = {
shapes = (
{
closed = 0;
nodes = (
(-30,360,ls),
(34,360,o),
(69,327,o),
(69,237,cs),
(69,0,ls)
);
}
);
};
layerId = "6F9C6BB4-2DCF-443B-A55D-9CE049090094";
shapes = (
{
attr = {
lineCapEnd = 1;
lineCapStart = 1;
strokeHeight = 60;
strokeWidth = 65;
};
closed = 0;
nodes = (
(0,393,ls),
(57,393,o),
(79,366,o),
(79,290,cs),
(79,27,ls)
);
}
);
width = 79;
}
);
},
{
export = 0;
glyphname = _arco2;
lastChange = "2024-07-10 09:48:36 +0000";
layers = (
{
background = {
shapes = (
{
attr = {
lineCapEnd = "1";
lineCapStart = "1";
};
closed = 0;
nodes = (
(0,171,l),
(6,305,o),
(76,360,o),
(135,360,cs),
(199,360,o),
(234,327,o),
(234,237,cs),
(234,0,ls)
);
}
);
};
layerId = "6F9C6BB4-2DCF-443B-A55D-9CE049090094";
shapes = (
{
attr = {
lineCapEnd = "1";
lineCapStart = "1";
strokeHeight = 60;
strokeWidth = 65;
};
closed = 0;
nodes = (
(0,235,l),
(6,359,o),
(76,394,o),
(135,394,cs),
(199,394,o),
(234,361,o),
(234,271,cs),
(234,27,ls)
);
}
);
width = 234;
}
);
},
{
export = 0;
glyphname = _arco3;
lastChange = "2024-07-10 09:47:45 +0000";
layers = (
{
background = {
shapes = (
{
attr = {
lineCapEnd = 1;
lineCapStart = 1;
};
closed = 0;
nodes = (
(0,171,l),
(6,305,o),
(76,360,o),
(135,360,cs),
(199,360,o),
(234,327,o),
(234,237,cs),
(234,150,l)
);
},
{
pos = (234,0);
ref = _conect.right;
},
{
pos = (313,0);
ref = _conect.left;
}
);
};
layerId = "6F9C6BB4-2DCF-443B-A55D-9CE049090094";
shapes = (
{
attr = {
lineCapEnd = 1;
lineCapStart = 1;
strokeHeight = 60;
strokeWidth = 65;
};
closed = 0;
nodes = (
(0,235,l),
(6,359,o),
(76,394,o),
(135,394,cs),
(199,394,o),
(234,361,o),
(234,271,cs),
(234,204,l)
);
}
);
width = 234;
}
);
},
{
export = 0;
glyphname = _arco_v;
lastChange = "2024-07-10 09:57:34 +0000";
layers = (
{
background = {
shapes = (
{
closed = 0;
nodes = (
(0,-5,l),
(187,-5,o),
(111,360,o),
(290,360,cs)
);
}
);
};
layerId = "6F9C6BB4-2DCF-443B-A55D-9CE049090094";
shapes = (
{
attr = {
lineCapEnd = 1;
lineCapStart = 1;
strokeHeight = 60;
strokeWidth = 65;
};
closed = 0;
nodes = (
(0,25,l),
(108,25,o),
(156,147,o),
(194,250,cs),
(223,329,o),
(248,394,o),
(290,394,cs)
);
}
);
width = 290;
}
);
},
{
export = 0;
glyphname = _entra_s;
lastChange = "2024-07-10 09:54:18 +0000";
layers = (
{
background = {
shapes = (
{
ref = _conect.left;
}
);
};
layerId = "6F9C6BB4-2DCF-443B-A55D-9CE049090094";
shapes = (
{
attr = {
identifier = ID0x7fc21b80f700;
lineCapEnd = "1";
lineCapStart = "1";
strokeHeight = 60;
strokeWidth = 65;
};
closed = 0;
nodes = (
(0,25,l),
(150,25,o),
(180,187,o),
(236,390,c)
);
}
);
width = 236;
}
);
},
{
export = 0;
glyphname = _final;
lastChange = "2024-07-10 17:37:14 +0000";
layers = (
{
background = {
shapes = (
{
attr = {
identifier = ID0x7f8322cab0f0;
lineCapEnd = "1";
lineCapStart = "1";
};
closed = 0;
nodes = (
(0,-5,l),
(72,-5,o),
(115,41,o),
(123,93,c)
);
}
);
};
layerId = "6F9C6BB4-2DCF-443B-A55D-9CE049090094";
shapes = (
{
attr = {
identifier = ID0x7f80efeab990;
lineCapEnd = "1";
lineCapStart = "1";
strokeHeight = 60;
strokeWidth = 65;
};
closed = 0;
nodes = (
(0,25,l),
(40,25,o),
(66,33,o),
(86,46,c)
);
}
);
width = 147;
}
);
},
{
export = 0;
glyphname = _a.master;
lastChange = "2024-07-10 16:45:50 +0000";
layers = (
{
anchors = (
{
name = top;
pos = (178,419);
}
);
background = {
shapes = (
{
attr = {
identifier = ID0x7f7de989f3a0;
lineCapEnd = "1";
lineCapStart = "1";
};
closed = 0;
nodes = (
(271,357,l),
(271,150,l)
);
}
);
};
layerId = "6F9C6BB4-2DCF-443B-A55D-9CE049090094";
shapes = (
{
alignment = -1;
pos = (-17,0);
ref = _part.bucle;
},
{
attr = {
identifier = ID0x7f7de989f3a0;
lineCapEnd = "1";
lineCapStart = "1";
strokeHeight = 60;
strokeWidth = 65;
};
closed = 0;
nodes = (
(271,381,l),
(271,177,l)
);
}
);
width = 271;
}
);
},
{
export = 0;
glyphname = _ae.master;
lastChange = "2024-07-10 10:12:48 +0000";
layers = (
{
anchors = (
{
name = top;
pos = (278,419);
}
);
layerId = "6F9C6BB4-2DCF-443B-A55D-9CE049090094";
shapes = (
{
alignment = -1;
pos = (-17,0);
ref = _part.bucle;
},
{
attr = {
identifier = ID0x7f80efde6920;
lineCapEnd = "1";
lineCapStart = "1";
strokeHeight = 60;
strokeWidth = 65;
};
closed = 0;
nodes = (
(271,380,l),
(271,198,ls),
(271,79,o),
(333,25,o),
(472,25,cs)
);
},
{
attr = {
strokeHeight = 60;
strokeWidth = 65;
};
closed = 0;
nodes = (
(271,198,l),
(482,188,o),
(524,394,o),
(409,394,cs),
(352,394,o),
(271,334,o),
(271,205,cs)
);
}
);
width = 472;
}
);
},
{
export = 0;
glyphname = _arco.h;
lastChange = "2024-07-10 09:41:32 +0000";
layers = (
{
background = {
shapes = (
{
attr = {
identifier = ID0x7f8325d1e2e0;
lineCapEnd = "1";
lineCapStart = "1";
};
closed = 0;
nodes = (
(128,150,l),
(128,267,ls),
(128,327,o),
(106,360,o),
(67,360,cs),
(8,360,o),
(-95,257,o),
(-127,180,c)
);
}
);
};
layerId = "6F9C6BB4-2DCF-443B-A55D-9CE049090094";
shapes = (
{
attr = {
identifier = ID0x7f8325d1e2e0;
lineCapEnd = "1";
lineCapStart = "1";
strokeHeight = 60;
strokeWidth = 65;
};
closed = 0;
nodes = (
(128,180,l),
(128,297,ls),
(128,363,o),
(103,389,o),
(68,389,cs),
(14,389,o),
(-61,329,o),
(-102,257,cs),
(-127,213,l)
);
}
);
width = 128;
}
);
},
{
export = 0;
glyphname = _arco.v;
lastChange = "2024-07-10 09:57:49 +0000";
layers = (
{
layerId = "6F9C6BB4-2DCF-443B-A55D-9CE049090094";
shapes = (
{
attr = {
identifier = ID0x7fe6d54ed9c0;
lineCapEnd = 1;
lineCapStart = 1;
strokeHeight = 60;
strokeWidth = 65;
};
closed = 0;
nodes = (
(60,184,l),
(60,271,ls),
(60,360,o),
(49,394,o),
(0,394,cs)
);
}
);
width = 70;
}
);
},
{
export = 0;
glyphname = _arcos.w;
lastChange = "2024-07-10 09:59:55 +0000";
layers = (
{
background = {
shapes = (
{
pos = (-110,0);
ref = v;
}
);
};
layerId = "6F9C6BB4-2DCF-443B-A55D-9CE049090094";
shapes = (
{
attr = {
identifier = ID0x7f88630096e0;
lineCapEnd = 1;
lineCapStart = 1;
strokeHeight = 60;
strokeWidth = 65;
};
closed = 0;
nodes = (
(250,386,l),
(250,241,ls),
(250,164,o),
(177,25,o),
(78,25,cs),
(5,25,o),
(-10,80,o),
(-10,181,cs)
);
},
{
attr = {
identifier = ID0x7fdbcacde340;
lineCapEnd = "1";
lineCapStart = "1";
strokeHeight = 60;
strokeWidth = 65;
};
closed = 0;
nodes = (
(250,249,l),
(250,121,o),
(307,25,o),
(381,25,c)
);
}
);
width = 381;
}
);
},
{
export = 0;
glyphname = _brazo.b;
lastChange = "2024-07-10 09:24:12 +0000";
layers = (
{
background = {
shapes = (
{
attr = {
identifier = ID0x7fdbca0add30;
lineCapEnd = "1";
lineCapStart = "1";
};
closed = 0;
nodes = (
(-69,323,l),
(-36,303,o),
(48,268,o),
(98,268,cs)
);
}
);
};
layerId = "6F9C6BB4-2DCF-443B-A55D-9CE049090094";
shapes = (
{
attr = {
identifier = ID0x7fd5a626cf40;
lineCapEnd = "1";
lineCapStart = "1";
strokeHeight = 60;
strokeWidth = 65;
};
closed = 0;
nodes = (
(-70,354,l),
(-36,323,o),
(38,248,o),
(118,248,cs)
);
}
);
width = 118;
}
);
},
{
export = 0;
glyphname = _bucle.ascendente;
lastChange = "2024-07-10 09:24:01 +0000";
layers = (
{
background = {
shapes = (
{
closed = 0;
nodes = (
(6,164,l),
(42,236,o),
(120,445,o),
(118,570,cs),
(117,645,o),
(97,701,o),
(44,701,cs),
(-10,701,o),
(-42,610,o),
(-40,502,cs),
(-36,293,o),
(7,-5,o),
(161,-5,c)
);
}
);
};
guides = (
{
pos = (106,164);
}
);
layerId = "6F9C6BB4-2DCF-443B-A55D-9CE049090094";
shapes = (
{
attr = {
strokeHeight = 60;
strokeWidth = 65;
};
closed = 0;
nodes = (
(7,194,l),
(53,285,o),
(117,501,o),
(117,635,cs),
(117,709,o),
(97,761,o),
(44,761,cs),
(-18,761,o),
(-39,662,o),
(-39,545,cs),
(-39,418,o),
(-15,260,o),
(6,194,c)
);
}
);
width = 161;
}
);
},
{
export = 0;
glyphname = _bucle.decendente;
lastChange = "2024-07-10 09:44:03 +0000";
layers = (
{
background = {
shapes = (
{
attr = {
identifier = ID0x7fe6d54b4b70;
lineCapEnd = "1";
lineCapStart = "1";
};
closed = 0;
nodes = (
(0,360,l),
(0,-129,ls),
(0,-310,o),
(-17,-373,o),
(-69,-373,cs),
(-119,-373,o),
(-139,-330,o),
(-139,-278,cs),
(-139,-117,o),
(-24,-99,o),
(103,0,cs),
(288,145,o),
(254,360,o),
(367,360,cs)
);
}
);
};
layerId = "6F9C6BB4-2DCF-443B-A55D-9CE049090094";
shapes = (
{
attr = {
identifier = ID0x7fe6d54b4b70;
lineCapEnd = "1";
lineCapStart = "1";
strokeHeight = 60;
strokeWidth = 65;
};
closed = 0;
nodes = (
(0,381,l),
(0,-99,ls),
(0,-280,o),
(-17,-343,o),
(-69,-343,cs),
(-119,-343,o),
(-139,-300,o),
(-139,-248,cs),
(-139,-87,o),
(-24,-69,o),
(103,30,c)
);
}
);
width = 103;
}
);
},
{
export = 0;
glyphname = _c.master;
lastChange = "2024-07-10 09:38:18 +0000";
layers = (
{
anchors = (
{
name = bottom;
pos = (118,0);
},
{
name = top;
pos = (190,419);
}
);
background = {
shapes = (
{
attr = {
identifier = ID0x7fba9c16c3a0;
lineCapEnd = 1;
lineCapStart = 1;
strokeHeight = 60;
strokeWidth = 65;
};
closed = 0;
nodes = (
(236,364,l),
(203,384,o),
(171,393,o),
(141,393,cs),
(62,393,o),
(0,329,o),
(0,218,cs),
(0,123,o),
(58,25,o),
(188,25,cs),
(296,25,o),
(413,93,o),
(433,210,c)
);
}
);
};
layerId = "6F9C6BB4-2DCF-443B-A55D-9CE049090094";
shapes = (
{
attr = {
identifier = ID0x7fba9c16c3a0;
lineCapEnd = 1;
lineCapStart = 1;
strokeHeight = 60;
strokeWidth = 65;
};
closed = 0;
nodes = (
(236,364,l),
(203,384,o),
(171,393,o),
(141,393,cs),
(62,393,o),
(0,329,o),
(0,218,cs),
(0,123,o),
(58,25,o),
(188,25,cs)
);
}
);
width = 188;
}
);
},
{
export = 0;
glyphname = _conect.arco;
lastChange = "2024-07-10 10:02:53 +0000";
layers = (
{
background = {
shapes = (
{
closed = 0;
nodes = (
(0,-5,l),
(222,-5,o),
(148,360,o),
(330,360,cs)
);
}
);
};
layerId = "6F9C6BB4-2DCF-443B-A55D-9CE049090094";
shapes = (
{
attr = {
lineCapEnd = 1;
lineCapStart = 1;
strokeHeight = 60;
strokeWidth = 65;
};
closed = 0;
nodes = (
(0,25,l),
(113,25,o),
(153,115,o),
(174,207,cs),
(200,321,o),
(235,394,o),
(330,394,cs)
);
}
);
width = 330;
}
);
},
{
export = 0;
glyphname = _conect.left;
kernLeft = a;
lastChange = "2024-07-10 17:10:45 +0000";
layers = (
{
background = {
shapes = (
{
attr = {
lineCapEnd = 1;
lineCapStart = 1;
strokeHeight = 60;
strokeWidth = 65;
};
closed = 0;
nodes = (
(0,25,ls),
(89,25,o),
(170,94,o),
(180,210,c)
);
}
);
};
layerId = "6F9C6BB4-2DCF-443B-A55D-9CE049090094";
shapes = (
{
attr = {
lineCapEnd = 1;
lineCapStart = 1;
strokeHeight = 60;
strokeWidth = 65;
};
closed = 0;
nodes = (
(0,25,ls),
(89,25,o),
(160,94,o),
(180,210,c)
);
}
);
width = 180;
}
);
},
{
export = 0;
glyphname = _conect.right;
lastChange = "2024-07-10 09:12:12 +0000";
layers = (
{
background = {
shapes = (
{
closed = 0;
nodes = (
(0,180,l),
(0,47,o),
(44,-5,o),
(120,-5,cs)
);
}
);
};
layerId = "6F9C6BB4-2DCF-443B-A55D-9CE049090094";
shapes = (
{
attr = {
lineCapEnd = 1;
lineCapStart = 1;
strokeHeight = 60;
strokeWidth = 65;
};
closed = 0;
nodes = (
(0,200,l),
(0,100,o),
(30,25,o),
(130,25,cs)
);
}
);
width = 130;
}
);
},
{
export = 0;
glyphname = _d.master;
lastChange = "2024-07-09 14:21:27 +0000";
layers = (
{
layerId = "6F9C6BB4-2DCF-443B-A55D-9CE049090094";
shapes = (
{
ref = _a.master;
},
{
attr = {
identifier = ID0x7fb9850b6300;
lineCapEnd = "1";
lineCapStart = "1";
strokeHeight = 60;
strokeWidth = 65;
};
closed = 0;
nodes = (
(271,731,l),
(271,357,l)
);
}
);
width = 271;
}
);
},
{
export = 0;
glyphname = _e.master;
lastChange = "2024-07-10 09:39:33 +0000";
layers = (
{
anchors = (
{
name = bottom;
pos = (41,0);
},
{
name = ogonek;
pos = (141,10);
},
{
name = top;
pos = (41,419);
}
);
background = {
shapes = (
{
attr = {
identifier = ID0x7f9d1baad8f0;
lineCapEnd = "1";
lineCapStart = "1";
};
closed = 0;
nodes = (
(0,55,l),
(127,162,o),
(132,364,o),
(21,364,cs),
(-106,364,o),
(-123,-5,o),
(155,-5,cs)
);
}
);
};
layerId = "6F9C6BB4-2DCF-443B-A55D-9CE049090094";
shapes = (
{
attr = {
identifier = ID0x7f9d1baad8f0;
lineCapEnd = "1";
lineCapStart = "1";
strokeHeight = 60;
strokeWidth = 65;
};
closed = 0;
nodes = (
(-5,82,l),
(164,199,o),
(151,394,o),
(40,394,cs),
(-14,394,o),
(-55,335,o),
(-60,257,cs),
(-65,154,o),
(-26,25,o),
(155,25,cs)
);
}
);
width = 155;
}
);
},
{
export = 0;
glyphname = _f.master;
lastChange = "2024-07-10 09:40:34 +0000";
layers = (
{
background = {
shapes = (
{
pos = (-376,0);
ref = g;
},
{
attr = {
identifier = ID0x7f80ed21baf0;
lineCapEnd = "1";
lineCapStart = "1";
};
closed = 0;
nodes = (
(54,360,l),
(54,-129,ls),
(54,-310,o),
(37,-373,o),
(-15,-373,cs),
(-65,-373,o),
(-85,-330,o),
(-85,-278,cs),
(-85,-117,o),
(30,-99,o),
(157,0,c)
);
}
);
};
layerId = "6F9C6BB4-2DCF-443B-A55D-9CE049090094";
shapes = (
{
pos = (-1,0);
ref = _bucle.ascendente;
},
{
attr = {
identifier = ID0x7f82cd9921d0;
lineCapEnd = "1";
lineCapStart = "1";
strokeHeight = 60;
strokeWidth = 65;
};
closed = 0;
nodes = (
(6,190,l),
(23,112,o),
(52,-39,o),
(52,-160,cs),
(52,-261,o),
(46,-342,o),
(-19,-342,cs),
(-54,-342,o),
(-83,-315,o),
(-83,-248,cs),
(-83,-87,o),
(33,-56,o),
(145,30,c)
);
}
);
width = 145;
}
);
},
{
export = 0;
glyphname = _k.brazos;
lastChange = "2024-07-10 09:45:31 +0000";
layers = (
{
layerId = "6F9C6BB4-2DCF-443B-A55D-9CE049090094";
shapes = (
{
attr = {
lineCapEnd = "1";
lineCapStart = "1";
strokeHeight = 60;
strokeWidth = 65;
};
closed = 0;
nodes = (
(140,390,l),
(118,347,o),
(-11,213,o),
(-120,171,c)
);
},
{
attr = {
identifier = ID0x7f8323181190;
lineCapEnd = "1";
lineCapStart = "1";
strokeHeight = 60;
strokeWidth = 65;
};
closed = 0;
nodes = (
(142,25,l),
(62,25,o),
(-46,118,o),
(-120,169,c)
);
}
);
width = 142;
}
);
},
{
export = 0;
glyphname = _l.master;
lastChange = "2024-07-10 09:45:49 +0000";
layers = (
{
background = {
shapes = (
{
closed = 0;
nodes = (
(6,174,l),
(42,246,o),
(120,445,o),
(118,570,cs),
(117,645,o),
(97,701,o),
(44,701,cs),
(-10,701,o),
(-42,610,o),
(-40,502,cs),
(-36,293,o),
(7,-5,o),
(161,-5,c)
);
}
);
};
layerId = "6F9C6BB4-2DCF-443B-A55D-9CE049090094";
shapes = (
{
attr = {
lineCapEnd = 1;
lineCapStart = 1;
strokeHeight = 60;
strokeWidth = 65;
};
closed = 0;
nodes = (
(7,193,ls),
(28,99,o),
(77,25,o),
(161,25,c)
);
},
{
ref = _bucle.ascendente;
}
);
width = 161;
}
);
},
{
export = 0;
glyphname = _o.master;
lastChange = "2024-07-10 10:11:44 +0000";
layers = (
{
anchors = (
{
name = bottom;
pos = (117,0);
},
{
name = center;
pos = (117,180);
},
{
name = ogonek;
pos = (240,49);
},
{
name = top;
pos = (153,419);
},
{
name = topright;
pos = (373,360);
}
);
background = {
shapes = (
{
closed = 0;
nodes = (
(541,180,l),
(524,119,o),
(456,90,o),
(380,90,cs),
(265,90,o),
(132,157,o),
(132,276,cs),
(132,322,o),
(155,359,o),
(186,359,cs),
(234,359,o),
(304,289,o),
(304,180,cs),
(304,61,o),
(229,-6,o),
(154,-6,cs),
(54,-6,o),
(0,86,o),
(0,178,cs),
(0,286,o),
(58,364,o),
(154,364,cs),
(166,364,o),
(178,362,o),
(188,359,c)
);
}
);
};
layerId = "6F9C6BB4-2DCF-443B-A55D-9CE049090094";
shapes = (
{
attr = {
strokeHeight = 60;
strokeWidth = 65;
};
closed = 0;
nodes = (
(186,389,l),
(234,389,o),
(304,319,o),
(304,210,cs),
(304,91,o),
(229,24,o),
(154,24,cs),
(54,24,o),
(0,116,o),
(0,208,cs),
(0,316,o),
(58,394,o),
(154,394,cs),
(166,394,o),
(178,392,o),
(188,389,c)
);
}
);
width = 360;
}
);
},
{
export = 0;
glyphname = _or.master;
lastChange = "2024-07-10 11:26:44 +0000";
layers = (
{
anchors = (
{
name = bottom;
pos = (250,0);
},
{
name = center;
pos = (250,180);
},
{
name = ogonek;
pos = (450,10);
},
{
name = top;
pos = (313,419);
},
{
name = topright;
pos = (480,360);
}
);
layerId = "6F9C6BB4-2DCF-443B-A55D-9CE049090094";
shapes = (
{
attr = {
lineCapEnd = 1;
lineCapStart = 1;
strokeHeight = 60;
strokeWidth = 65;
};
closed = 0;
nodes = (
(188,389,l),
(178,392,o),
(166,394,o),
(154,394,cs),
(58,394,o),
(0,316,o),
(0,208,cs),
(0,116,o),
(54,24,o),
(154,24,cs),
(229,24,o),
(304,91,o),
(304,210,cs),
(304,376,o),
(141,453,o),
(141,325,cs),
(141,211,o),
(220,166,o),
(307,166,cs),
(380,166,o),
(505,237,o),
(505,332,cs),
(505,367,o),
(484,394,o),
(442,394,cs),
(385,394,o),
(304,334,o),
(304,205,cs),
(304,89,o),
(400,25,o),
(505,25,c)
);
}
);
width = 505;
}
);
},
{
export = 0;
glyphname = _p.master;
lastChange = "2024-07-10 09:51:59 +0000";
layers = (
{
layerId = "6F9C6BB4-2DCF-443B-A55D-9CE049090094";
shapes = (
{
attr = {
identifier = ID0x7f9510d0edf0;
lineCapEnd = 1;
lineCapStart = 1;
strokeHeight = 60;
strokeWidth = 65;
};
closed = 0;
nodes = (
(0,41,l),
(8,272,o),
(99,394,o),
(165,394,cs),
(214,394,o),
(234,359,o),
(234,277,cs),
(234,180,l)
);
},
{
attr = {
identifier = ID0x7fe6d54b4b70;
lineCapEnd = "1";
lineCapStart = "1";
strokeHeight = 60;
strokeWidth = 65;
};
closed = 0;
nodes = (
(0,391,l),
(0,-340,l)
);
}
);
width = 234;
}
);
},
{
export = 0;
glyphname = _panza.b;
lastChange = "2024-07-10 09:59:15 +0000";
layers = (
{
background = {
shapes = (
{
closed = 0;
nodes = (
(0,-5,l),
(139,-5,o),
(193,230,o),
(31,324,c)
);
},
{
closed = 1;
nodes = (
(34,97,l),
(97,97,l),
(97,205,l),
(34,205,l)
);
}
);
};
layerId = "6F9C6BB4-2DCF-443B-A55D-9CE049090094";
shapes = (
{
attr = {
lineCapEnd = 1;
lineCapStart = 1;
strokeHeight = 60;
strokeWidth = 65;
};
closed = 0;
nodes = (
(0,25,l),
(85,25,o),
(150,102,o),
(150,190,cs),
(150,246,o),
(124,306,o),
(61,354,c)
);
}
);
width = 130;
}
);
},
{
export = 0;
glyphname = _q.master;
lastChange = "2024-07-10 09:52:54 +0000";
layers = (
{
layerId = "6F9C6BB4-2DCF-443B-A55D-9CE049090094";
shapes = (
{
attr = {
lineCapEnd = 1;
lineCapStart = 1;
strokeHeight = 60;
strokeWidth = 65;
};
closed = 0;
nodes = (
(271,150,l),
(271,-340,l)
);
},
{
ref = _a.master;
}
);
width = 271;
}
);
},
{
export = 0;
glyphname = _r.master;
lastChange = "2024-07-10 09:53:49 +0000";
layers = (
{
background = {
shapes = (
{
attr = {
lineCapEnd = 1;
lineCapStart = 1;
};
closed = 0;
nodes = (
(20,389,l),
(47,359,o),
(81,349,o),
(168,359,cs),
(197,363,o),
(207,364,o),
(205,348,cs),
(197,295,o),
(184,219,o),
(184,151,cs),
(184,67,o),
(214,-5,o),
(299,-5,cs)
);
}
);
};
layerId = "6F9C6BB4-2DCF-443B-A55D-9CE049090094";
shapes = (
{
attr = {
lineCapEnd = 1;
lineCapStart = 1;
strokeHeight = 60;
strokeWidth = 65;
};
closed = 0;
nodes = (
(0,404,l),
(47,374,o),
(101,382,o),
(168,392,cs),
(197,396,o),
(207,397,o),
(205,381,cs),
(197,328,o),
(184,249,o),
(184,181,cs),
(184,97,o),
(214,25,o),
(299,25,cs)
);
}
);
width = 299;
}
);
},
{
export = 0;
glyphname = _rulo.o;
lastChange = "2024-07-10 09:50:14 +0000";
layers = (
{
layerId = "6F9C6BB4-2DCF-443B-A55D-9CE049090094";
shapes = (
{
attr = {
lineCapEnd = 1;
lineCapStart = 1;
strokeHeight = 60;
strokeWidth = 65;
};
closed = 0;
nodes = (
(0,120,l),
(-135,120,o),
(-230,187,o),
(-230,306,cs),
(-230,352,o),
(-207,389,o),
(-176,389,cs)
);
}
);
width = 0;
}
);
},
{
export = 0;
glyphname = _s.master;
lastChange = "2024-07-10 10:32:15 +0000";
layers = (
{
background = {
shapes = (
{
attr = {
lineCapEnd = "1";
lineCapStart = "1";
strokeHeight = 60;
strokeWidth = 65;
};
closed = 0;
nodes = (
(0,369,l),
(121,286,o),
(248,234,o),
(243,121,cs),
(236,-31,o),
(93,-11,o),
(35,30,c)
);
},
{
attr = {
lineCapEnd = 2;
lineCapStart = 2;
strokeHeight = 60;
strokeWidth = 65;
};
closed = 0;
nodes = (
(265,-5,l),
(231,-5,o),
(177,0,o),
(153,2,c)
);
}
);
};
layerId = "6F9C6BB4-2DCF-443B-A55D-9CE049090094";
shapes = (
{
attr = {
lineCapEnd = "1";
lineCapStart = "1";
strokeHeight = 60;
strokeWidth = 65;
};
closed = 0;
nodes = (
(0,399,l),
(121,316,o),
(248,264,o),
(243,151,cs),
(236,-8,o),
(93,9,o),
(35,60,c)
);
},
{
attr = {
lineCapEnd = 2;
lineCapStart = 1;
strokeHeight = 60;
strokeWidth = 65;
};
closed = 0;
nodes = (
(280,25,l),
(246,25,o),
(112,25,o),
(112,25,c)
);
}
);
width = 265;
}
);
},
{
export = 0;
glyphname = _t.master;
lastChange = "2024-07-10 09:56:08 +0000";
layers = (
{
guides = (
{
pos = (89,577);
}
);
layerId = "6F9C6BB4-2DCF-443B-A55D-9CE049090094";
shapes = (
{
attr = {
identifier = ID0x7fe6d6dc0d10;
lineCapEnd = 1;
lineCapStart = 1;
strokeWidth = 65;
};
closed = 0;
nodes = (
(-104,451,l),
(185,451,l)
);
},
{
attr = {
lineCapEnd = 1;
lineCapStart = 1;
strokeHeight = 60;
strokeWidth = 65;
};
closed = 0;
nodes = (
(166,25,ls),
(26,25,o),
(0,95,o),
(0,377,cs),
(0,725,l)
);
}
);
width = 166;
}
);
},
{
export = 0;
glyphname = _top.fina;
lastChange = "2024-07-10 17:48:53 +0000";
layers = (
{
layerId = "6F9C6BB4-2DCF-443B-A55D-9CE049090094";
shapes = (
{
attr = {
identifier = ID0x7f97191ac190;
lineCapEnd = 2;
lineCapStart = 1;
strokeHeight = 60;
strokeWidth = 65;
};
closed = 0;
nodes = (
(0,248,ls),
(29,248,o),
(50,263,o),
(61,297,cs)
);
}
);
width = 110;
}
);
},
{
export = 0;
glyphname = _u.master;
lastChange = "2024-07-10 09:56:45 +0000";
layers = (
{
anchors = (
{
name = bottom;
pos = (-17,0);
},
{
name = ogonek;
pos = (174,10);
},
{
name = top;
pos = (127,419);
},
{
name = topright;
pos = (242,360);
}
);
layerId = "6F9C6BB4-2DCF-443B-A55D-9CE049090094";
shapes = (
{
attr = {
identifier = ID0x7fe6d6dc1620;
lineCapEnd = "1";
lineCapStart = "1";
strokeHeight = 60;
strokeWidth = 65;
};
closed = 0;
nodes = (
(271,391,l),
(271,180,l)
);
},
{
attr = {
identifier = ID0x7fba9a1830a0;
lineCapEnd = 1;
lineCapStart = 1;
strokeHeight = 60;
strokeWidth = 65;
};
closed = 0;
nodes = (
(270,180,l),
(244,85,o),
(174,25,o),
(111,25,cs),
(52,25,o),
(0,57,o),
(0,180,cs),
(0,391,l)
);
}
);
width = 271;
}
);
},
{
export = 0;
glyphname = _v.master;
lastChange = "2024-07-10 09:58:00 +0000";
layers = (
{
background = {
shapes = (
{
attr = {
identifier = ID0x7fdbcacddb30;
lineCapEnd = "1";
lineCapStart = "1";
};
closed = 0;
nodes = (
(0,360,l),
(49,360,o),
(50,319,o),
(50,265,cs),
(50,150,ls),
(50,42,o),
(94,-5,o),
(176,-5,c)
);
},
{
pos = (176,0);
ref = _panza.b;
}
);
};
guides = (
{
pos = (178,323);
}
);
layerId = "6F9C6BB4-2DCF-443B-A55D-9CE049090094";
shapes = (
{
ref = _arco.v;
},
{
attr = {
identifier = ID0x7fbe1ecb5cb0;
lineCapEnd = 1;
lineCapStart = 1;
strokeHeight = 60;
strokeWidth = 65;
};
closed = 0;
nodes = (
(247,354,l),
(296,317,o),
(323,274,o),
(323,225,cs),
(323,128,o),
(238,25,o),
(148,25,cs),
(75,25,o),
(60,80,o),
(60,181,cs)
);
}
);
width = 317;
}
);
},
{
export = 0;
glyphname = _x.master;
lastChange = "2024-07-10 10:02:18 +0000";
layers = (
{
background = {
shapes = (
{
closed = 0;
nodes = (
(-20,360,l),
(98,360,o),
(153,299,o),
(153,179,cs),
(153,48,o),
(92,-5,o),
(-54,-5,c),
(-118,36,l)
);
}
);
};
guides = (
{
pos = (220,-5);
}
);
layerId = "6F9C6BB4-2DCF-443B-A55D-9CE049090094";
shapes = (
{
attr = {
lineCapEnd = 1;
lineCapStart = 1;
strokeHeight = 60;
strokeWidth = 65;
};
closed = 0;
nodes = (
(-70,42,l),
(-51,31,o),
(-24,25,o),
(-2,25,cs),
(120,25,o),
(153,114,o),
(153,219,cs),
(153,324,o),
(105,394,o),
(0,394,c)
);
},
{
pos = (158,0);
ref = _c.master;
scale = (0.8803,1);
}
);
width = 314;
}
);
metricRight = c;
},
{
export = 0;
glyphname = _z.master;
lastChange = "2024-07-10 10:03:34 +0000";
layers = (
{
background = {
shapes = (
{
pos = (-241,0);
ref = _conect.left;
},
{
pos = (-81,0);
ref = _a.master;
},
{
attr = {
identifier = ID0x7f80efc3ce40;
lineCapEnd = "1";
lineCapStart = "1";
};
closed = 0;
nodes = (
(190,360,l),
(190,-129,ls),
(190,-310,o),
(173,-373,o),
(121,-373,cs),
(71,-373,o),
(51,-330,o),
(51,-278,cs),
(51,-117,o),
(166,-99,o),
(293,0,c)
);
}
);
};
layerId = "6F9C6BB4-2DCF-443B-A55D-9CE049090094";
shapes = (
{
attr = {
lineCapEnd = 1;
lineCapStart = 1;
strokeHeight = 60;
strokeWidth = 65;
};
closed = 0;
nodes = (
(0,405,l),
(38,387,o),
(101,385,o),
(129,385,cs),
(212,385,o),
(275,394,o),
(275,394,cs),
(283,395,o),
(286,391,o),
(279,379,cs),
(257,341,o),
(171,201,o),
(106,78,c)
);
},
{
attr = {
lineCapEnd = 1;
lineCapStart = 1;
strokeHeight = 60;
strokeWidth = 65;
};
closed = 0;
nodes = (
(106,76,l),
(227,62,o),
(275,-60,o),
(275,-170,cs),
(275,-293,o),
(232,-343,o),
(190,-343,cs),
(150,-343,o),
(112,-299,o),
(112,-234,cs),
(112,-158,o),
(166,-69,o),
(293,30,c)
);
}
);
width = 293;
}
);
},
{
export = 0;
glyphname = _bucle.ascendente.b;
lastChange = "2024-07-10 10:07:27 +0000";
layers = (
{
background = {
shapes = (
{
closed = 0;
nodes = (
(0,194,l),
(57,276,o),
(129,445,o),
(129,570,cs),
(129,645,o),
(110,701,o),
(57,701,cs),
(3,701,o),
(-20,620,o),
(-20,512,cs),
(-20,303,o),
(-12,-5,o),
(142,-5,c)
);
}
);
};
layerId = "6F9C6BB4-2DCF-443B-A55D-9CE049090094";
shapes = (
{
attr = {
lineCapEnd = 1;
lineCapStart = 1;
strokeHeight = 60;
strokeWidth = 65;
};
closed = 0;
nodes = (
(6,193,l),
(28,96,o),
(68,25,o),
(142,25,c)
);
},
{
pos = (-2,0);
ref = _bucle.ascendente;
}
);
width = 142;
}
);
metricLeft = "-4t2";
},
{
export = 0;
glyphname = _bucle.ascendente.h;
lastChange = "2024-07-10 10:27:48 +0000";
layers = (
{
background = {
shapes = (
{
attr = {
identifier = ID0x7fc21b80f700;
lineCapEnd = "1";
lineCapStart = "1";
};
closed = 0;
nodes = (
(6,184,l),
(94,362,o),
(138,472,o),
(128,625,cs),
(125,674,o),
(95,701,o),
(63,701,cs),
(29,701,o),
(0,670,o),
(0,602,cs),
(2,271,l),
(2,0,l)
);
}
);
};
layerId = "6F9C6BB4-2DCF-443B-A55D-9CE049090094";
shapes = (
{
attr = {
identifier = ID0x7fc21b80f700;
lineCapEnd = "1";
lineCapStart = "1";
strokeHeight = 60;
strokeWidth = 65;
};
closed = 0;
nodes = (
(2,210,l),
(36,272,ls),
(142,465,o),
(219,758,o),
(63,758,cs),
(29,758,o),
(0,727,o),
(0,659,cs),
(2,298,l),
(2,27,l)
);
}
);
width = 129;
}
);
},
{
export = 0;
glyphname = _c.fina.master;
lastChange = "2024-06-17 11:44:37 +0000";
layers = (
{
background = {
shapes = (
{
attr = {
identifier = ID0x7fba9c16c3a0;
lineCapEnd = "1";
lineCapStart = "1";
};
closed = 0;
nodes = (
(188,-5,l),
(246,-5,o),
(301,17,o),
(324,58,c)
);
}
);
};
layerId = "6F9C6BB4-2DCF-443B-A55D-9CE049090094";
shapes = (
{
ref = _c.master;
}
);
width = 188;
}
);
},
{
export = 0;
glyphname = _conect.from.bottom;
lastChange = "2024-07-10 10:19:47 +0000";
layers = (
{
background = {
shapes = (
{
attr = {
identifier = ID0x7f80f008d8c0;
lineCapEnd = "1";
lineCapStart = "1";
};
closed = 0;
nodes = (
(-103,360,l),
(-103,-129,ls),
(-103,-310,o),
(-120,-373,o),
(-172,-373,cs),
(-222,-373,o),
(-242,-330,o),
(-242,-278,cs),
(-242,-117,o),
(-133,-103,o),
(0,0,cs),
(69,53,o),
(119,94,o),
(160,178,c)
);
}
);
};
layerId = "6F9C6BB4-2DCF-443B-A55D-9CE049090094";
shapes = (
{
attr = {
identifier = ID0x7f80f008d8c0;
lineCapEnd = "1";
lineCapStart = "1";
strokeHeight = 60;
strokeWidth = 65;
};
closed = 0;
nodes = (
(0,30,l),
(69,83,o),
(119,124,o),
(160,208,c)
);
}
);
width = 160;
}
);
},
{
export = 0;
glyphname = _conect.from.middle;
lastChange = "2024-07-10 10:24:04 +0000";
layers = (
{
layerId = "6F9C6BB4-2DCF-443B-A55D-9CE049090094";
shapes = (
{
attr = {
lineCapEnd = 1;
lineCapStart = 1;
strokeHeight = 60;
strokeWidth = 65;
};
closed = 0;
nodes = (
(181,220,l),
(164,159,o),
(76,120,o),
(0,120,cs)
);
}
);
width = 181;
}
);
},
{
export = 0;
glyphname = _conect.from.top;
lastChange = "2024-07-10 10:59:31 +0000";
layers = (
{
background = {
shapes = (
{
pos = (-915,0);
ref = o;
}
);
};
layerId = "6F9C6BB4-2DCF-443B-A55D-9CE049090094";
shapes = (
{
attr = {
lineCapEnd = 2;
lineCapStart = 1;
strokeHeight = 60;
strokeWidth = 65;
};
closed = 0;
nodes = (
(0,248,ls),
(29,248,o),
(50,263,o),
(61,297,cs)
);
}
);
width = 44;
}
);
},
{
export = 0;
glyphname = _conect.left.ascendente;
kernLeft = l;
lastChange = "2024-07-10 09:23:43 +0000";
layers = (
{
background = {
shapes = (
{
closed = 0;
nodes = (
(222,180,l),
(173,54,o),
(81,-5,o),
(0,-5,cs),
(-84,-5,o),
(-156,58,o),
(-156,175,cs),
(-156,304,o),
(-75,364,o),
(-18,364,cs),
(106,364,o),
(74,128,o),
(-156,168,c)
);
}
);
};
layerId = "6F9C6BB4-2DCF-443B-A55D-9CE049090094";
shapes = (
{
attr = {
lineCapEnd = 1;
lineCapStart = 1;
strokeHeight = 60;
strokeWidth = 65;
};
closed = 0;
nodes = (
(182,210,l),
(147,109,o),
(91,25,o),
(0,25,c)
);
}
);
width = 182;
}
);
},
{
export = 0;
glyphname = _conect.left.long;
lastChange = "2024-07-10 09:42:16 +0000";
layers = (
{
background = {
shapes = (
{
ref = _conect.left;
}
);
};
layerId = "6F9C6BB4-2DCF-443B-A55D-9CE049090094";
shapes = (
{
attr = {
identifier = ID0x7fc21b80f700;
lineCapEnd = "1";
lineCapStart = "1";
strokeHeight = 60;
strokeWidth = 65;
};
closed = 0;
nodes = (
(0,25,l),
(170,25,o),
(180,187,o),
(186,390,c)
);
}
);
width = 186;
}
);
},
{
export = 0;
glyphname = _conect.right.e;
lastChange = "2024-07-10 09:36:39 +0000";
layers = (
{
background = {
anchors = (
{
name = bottom;
pos = (130,0);
},
{
name = ogonek;
pos = (6,10);
},
{
name = top;
pos = (66,360);
}
);
shapes = (
{
pos = (285,0);
ref = _conect.right.e;
scale = (-1,1);
},
{
pos = (135,0);
ref = _e.master;
scale = (-1,1);
}
);
};
guides = (
{
angle = 90;
pos = (143,84);
}
);
layerId = "6F9C6BB4-2DCF-443B-A55D-9CE049090094";
shapes = (
{
attr = {
identifier = ID0x7f8322cab0f0;
lineCapEnd = "1";
lineCapStart = "1";
strokeHeight = 60;
strokeWidth = 65;
};
closed = 0;
nodes = (
(0,25,l),
(73,25,o),
(142,38,o),
(206,85,c)
);
}
);
width = 206;
}
);
},
{
export = 0;
glyphname = _conector.b.m;
lastChange = "2024-07-10 10:57:34 +0000";
layers = (
{
layerId = "6F9C6BB4-2DCF-443B-A55D-9CE049090094";
shapes = (
{
attr = {
lineCapEnd = 1;
lineCapStart = 1;
strokeHeight = 60;
strokeWidth = 65;
};
closed = 0;
nodes = (
(0,248,l),
(32,248,o),
(53,278,o),
(75,310,cs),
(101,348,o),
(130,393,o),
(185,393,cs)
);
}
);
width = 185;
}
);
},
{
export = 0;
glyphname = _final.base.long;
lastChange = "2024-07-10 17:37:33 +0000";
layers = (
{
background = {
shapes = (
{
closed = 0;
nodes = (
(0,-5,l),
(23,-5,o),
(65,0,o),
(96,15,c)
);
}
);
};
layerId = "6F9C6BB4-2DCF-443B-A55D-9CE049090094";
shapes = (
{
attr = {
lineCapEnd = 1;
lineCapStart = 1;
strokeHeight = 60;
strokeWidth = 65;
};
closed = 0;
nodes = (
(-3,25,l),
(58,25,o),
(96,45,o),
(116,65,c)
);
}
);
width = 177;
}
);
},
{
export = 0;
glyphname = _k.alt.master;
lastChange = "2024-07-10 10:05:42 +0000";
layers = (
{
layerId = "6F9C6BB4-2DCF-443B-A55D-9CE049090094";
shapes = (
{
attr = {
lineCapEnd = 1;
lineCapStart = 1;
strokeHeight = 60;
strokeWidth = 65;
};
closed = 0;
nodes = (
(284,29,l),
(199,19,o),
(112,111,o),
(67,178,c)
);
},
{
ref = _bucle.ascendente.h;
},
{
attr = {
lineCapEnd = 1;
lineCapStart = 1;
strokeHeight = 60;
strokeWidth = 65;
};
closed = 0;
nodes = (
(78,178,l),
(195,197,o),
(265,266,o),
(265,330,cs),
(265,365,o),
(243,394,o),
(222,394,cs),
(167,394,o),
(39,233,o),
(6,145,cs)
);
}
);
width = 244;
}
);
},
{
export = 0;
glyphname = _l.from.top;
lastChange = "2024-07-10 10:57:18 +0000";
layers = (
{
background = {
shapes = (
{
pos = (-50,0);
ref = b.from.top;
}
);
};
layerId = "6F9C6BB4-2DCF-443B-A55D-9CE049090094";
shapes = (
{
attr = {
lineCapEnd = 1;
lineCapStart = 1;
strokeHeight = 60;
strokeWidth = 65;
};
closed = 0;
nodes = (
(0,248,l),
(117,248,o),
(176,513,o),
(176,642,cs),
(176,711,o),
(145,730,o),
(116,730,cs),
(38,730,o),
(37,502,o),
(37,434,cs),
(37,152,o),
(84,25,o),
(185,25,c)
);
}
);
width = 185;
}
);
},
{
export = 0;
glyphname = _rulo.o.fina;
lastChange = "2024-07-10 17:56:31 +0000";
layers = (
{
layerId = "6F9C6BB4-2DCF-443B-A55D-9CE049090094";
shapes = (
{
attr = {
lineCapEnd = 1;
lineCapStart = 1;
strokeHeight = 60;
strokeWidth = 65;
};
closed = 0;
nodes = (
(71,193,l),
(45,146,o),
(-2,125,o),
(-51,125,cs),
(-137,125,o),
(-230,192,o),
(-230,306,cs),
(-230,352,o),
(-207,389,o),
(-176,389,cs)
);
}
);
width = 133;
}
);
},
{
export = 0;
glyphname = _s.master.fina;
lastChange = "2024-07-10 17:43:13 +0000";
layers = (
{
background = {
shapes = (
{
attr = {
identifier = ID0x7f80efd2dd80;
lineCapEnd = "1";
lineCapStart = "1";
strokeHeight = 60;
strokeWidth = 65;
};
closed = 0;
nodes = (
(0,399,l),
(121,316,o),
(248,264,o),
(243,151,cs),
(236,-1,o),
(93,19,o),
(35,60,c)
);
},
{
attr = {
identifier = ID0x7f80eea59370;
lineCapEnd = "1";
lineCapStart = "1";
strokeHeight = 60;
strokeWidth = 65;
};
closed = 0;
nodes = (
(37,58,l),
(93,19,o),
(160,25,o),
(197,25,cs),
(268,25,o),
(352,43,o),
(405,122,c)
);
}
);
};
layerId = "6F9C6BB4-2DCF-443B-A55D-9CE049090094";
shapes = (
{
attr = {
identifier = ID0x7f80efd2dd80;
lineCapEnd = "1";
lineCapStart = "1";
strokeHeight = 60;
strokeWidth = 65;
};
closed = 0;
nodes = (
(0,399,l),
(24,383,o),
(47,368,o),
(70,353,cs),
(163,294,o),
(243,243,o),
(243,157,cs),
(243,64,o),
(188,30,o),
(130,30,cs),
(96,30,o),
(60,42,o),
(35,60,c)
);
},
{
attr = {
identifier = ID0x7f80eea59370;
lineCapEnd = "1";
lineCapStart = 1;
strokeHeight = 60;
strokeWidth = 65;
};
closed = 0;
nodes = (
(405,122,l),
(352,43,o),
(268,25,o),
(197,25,cs),
(175,25,o),
(130,30,o),
(130,30,c)
);
}
);
width = 467;
}
);
},
{
export = 0;
glyphname = _ascendente.h.from.top;
lastChange = "2024-07-10 10:48:31 +0000";
layers = (
{
background = {
shapes = (
{
closed = 0;
nodes = (
(80,290,l),
(150,362,o),
(189,474,o),
(189,586,cs),
(189,630,o),
(182,701,o),
(122,701,cs),
(88,701,o),
(59,670,o),
(59,602,cs),
(61,271,l),
(61,0,l)
);
}
);
};
layerId = "6F9C6BB4-2DCF-443B-A55D-9CE049090094";
shapes = (
{
attr = {
lineCapEnd = 1;
lineCapStart = 1;
strokeHeight = 60;
strokeWidth = 65;
};
closed = 0;
nodes = (
(70,308,l),
(140,380,o),
(189,504,o),
(189,616,cs),
(189,660,o),
(182,729,o),
(122,729,cs),
(88,729,o),
(59,697,o),
(59,629,cs),
(61,27,l)
);
},
{
attr = {
lineCapEnd = 1;
lineCapStart = 1;
strokeHeight = 60;
strokeWidth = 65;
};
closed = 0;
nodes = (
(0,248,l),
(29,248,o),
(49,266,o),
(61,296,cs)
);
}
);
width = 189;
}
);
},
{
export = 0;
glyphname = _b.from.top.master;
lastChange = "2024-07-10 10:47:09 +0000";
layers = (
{
background = {
shapes = (
{
pos = (-103,0);
ref = _conect.left.ascendente;
},
{
pos = (67,0);
ref = _b.master;
}
);
};
layerId = "6F9C6BB4-2DCF-443B-A55D-9CE049090094";
shapes = (
{
attr = {
identifier = ID0x7fa6a9b49560;
lineCapEnd = 1;
lineCapStart = 1;
strokeHeight = 60;
strokeWidth = 65;
};
closed = 0;
nodes = (
(78,279,l),
(151,344,o),
(201,495,o),
(201,606,cs),
(201,685,o),
(179,729,o),
(134,729,cs),
(63,729,o),
(59,630,o),
(59,434,cs),
(59,114,o),
(98,25,o),
(213,25,c)
);
},
{
alignment = -1;
pos = (213,0);
ref = _panza.b;
},
{
pos = (345,0);
ref = _brazo.b;
},
{
attr = {
lineCapEnd = 1;
lineCapStart = 1;
strokeHeight = 60;
strokeWidth = 65;
};
closed = 0;
nodes = (
(0,248,ls),
(29,248,o),
(49,256,o),
(74,276,cs)
);
}
);
width = 463;
}
);
},
{
export = 0;
glyphname = _conect.fina.from.bottom;
lastChange = "2024-07-10 17:54:05 +0000";
layers = (
{
background = {
shapes = (
{
closed = 0;
nodes = (
(-228,-278,ls),
(-228,-117,o),
(-112,-86,o),
(0,0,c),
(14,8,o),
(61,57,o),
(68,68,c)
);
}
);
};
layerId = "6F9C6BB4-2DCF-443B-A55D-9CE049090094";
shapes = (
{
attr = {
lineCapEnd = 1;
lineCapStart = 1;
strokeHeight = 60;
strokeWidth = 65;
};
closed = 0;
nodes = (
(0,30,l),
(13,40,o),
(61,87,o),
(68,98,c)
);
}
);
width = 130;
}
);
},
{
export = 0;
glyphname = _conect.from.base.long;
lastChange = "2024-07-10 09:33:38 +0000";
layers = (
{
background = {
shapes = (
{
attr = {
lineCapEnd = 1;
lineCapStart = 1;
strokeHeight = 60;
strokeWidth = 62;
};
closed = 0;
nodes = (
(0,25,ls),
(128,25,o),
(231,87,o),
(252,210,c)
);
}
);
};
layerId = "6F9C6BB4-2DCF-443B-A55D-9CE049090094";
shapes = (
{
attr = {
identifier = ID0x7fba9c16c3a0;
lineCapEnd = "1";
lineCapStart = "1";
strokeHeight = 60;
strokeWidth = 65;
};
closed = 0;
nodes = (
(0,25,l),
(108,25,o),
(232,93,o),
(252,210,c)
);
}
);
width = 252;
}
);
},
{
export = 0;
glyphname = _conect.from.bottom.long;
lastChange = "2024-07-10 10:21:00 +0000";
layers = (
{
background = {
shapes = (
{
attr = {
identifier = ID0x7fe6d54b4b70;
lineCapEnd = "1";
lineCapStart = "1";
};
closed = 0;
nodes = (
(-103,360,l),
(-103,-129,ls),
(-103,-310,o),
(-120,-373,o),
(-172,-373,cs),
(-222,-373,o),
(-242,-330,o),
(-242,-278,cs),
(-242,-117,o),
(-134,-103,o),
(0,0,cs),
(95,73,o),
(186,136,o),
(196,360,cs)
);
}
);
};
layerId = "6F9C6BB4-2DCF-443B-A55D-9CE049090094";
shapes = (
{
attr = {
identifier = ID0x7fe6d54b4b70;
lineCapEnd = "1";
lineCapStart = "1";
strokeHeight = 60;
strokeWidth = 65;
};
closed = 0;
nodes = (
(0,30,l),
(95,103,o),
(196,166,o),
(206,390,cs)
);
}
);
width = 206;
}
);
},
{
export = 0;
glyphname = _conect.from.top.002;
lastChange = "2024-07-10 10:59:31 +0000";
layers = (
{
background = {
shapes = (
{
pos = (-915,0);
ref = o;
}
);
};
layerId = "6F9C6BB4-2DCF-443B-A55D-9CE049090094";
shapes = (
{
attr = {
lineCapEnd = 2;
lineCapStart = 1;
strokeHeight = 60;
strokeWidth = 65;
};
closed = 0;
nodes = (
(0,248,ls),
(29,248,o),
(50,263,o),
(61,297,cs)
);
}
);
width = 44;
}
);
},
{
export = 0;
glyphname = _conect.from.top.i;
lastChange = "2024-07-10 10:49:21 +0000";
layers = (
{
background = {
shapes = (
{
pos = (-518,0);
ref = o;
}
);
};
layerId = "6F9C6BB4-2DCF-443B-A55D-9CE049090094";
shapes = (
{
attr = {
identifier = ID0x7f88624aed60;
lineCapEnd = "1";
lineCapStart = "1";
strokeHeight = 60;
strokeWidth = 65;
};
closed = 0;
nodes = (
(0,248,l),
(46,248,o),
(68,317,o),
(68,390,c)
);
}
);
width = 68;
}
);
},
{
export = 0;
glyphname = _conect.left.long.o;
lastChange = "2024-07-10 10:25:38 +0000";
layers = (
{
layerId = "6F9C6BB4-2DCF-443B-A55D-9CE049090094";
shapes = (
{
attr = {
lineCapEnd = 1;
lineCapStart = 1;
strokeHeight = 60;
strokeWidth = 65;
};
closed = 0;
nodes = (
(208,390,l),
(188,182,o),
(98,120,o),
(0,120,cs)
);
}
);
width = 208;
}
);
},
{
export = 0;
glyphname = _f.from.top.master;
lastChange = "2024-07-10 10:48:02 +0000";
layers = (
{
background = {
shapes = (
{
closed = 0;
nodes = (
(0,218,l),
(95,218,o),
(160,438,o),
(166,563,cs),
(170,640,o),
(153,700,o),
(98,700,cs),
(45,700,o),
(11,631,o),
(6,531,cs),
(0,415,o),
(36,274,o),
(65,160,c),
(82,82,o),
(111,-39,o),
(111,-190,cs),
(111,-291,o),
(105,-372,o),
(40,-372,cs),
(5,-372,o),
(-24,-345,o),
(-24,-278,cs),
(-24,-117,o),
(92,-86,o),
(204,0,c)
);
}
);
};
layerId = "6F9C6BB4-2DCF-443B-A55D-9CE049090094";
shapes = (
{
attr = {
lineCapEnd = 1;
lineCapStart = 1;
strokeHeight = 60;
strokeWidth = 65;
};
closed = 0;
nodes = (
(0,248,l),
(95,248,o),
(166,501,o),
(166,635,cs),
(166,709,o),
(146,761,o),
(93,761,cs),
(31,761,o),
(10,662,o),
(10,545,cs),
(10,418,o),
(37,261,o),
(55,194,cs),
(75,117,o),
(102,-39,o),
(102,-160,cs),
(102,-261,o),
(96,-342,o),
(31,-342,cs),
(-4,-342,o),
(-33,-315,o),
(-33,-248,cs),
(-33,-87,o),
(83,-56,o),
(195,30,c)
);
}
);
width = 195;
}
);
},
{
export = 0;
glyphname = _trazo.salida.b.e;
lastChange = "2024-07-09 16:30:06 +0000";
layers = (
{
background = {
shapes = (
{
closed = 0;
nodes = (
(-128,-5,ls),
(-20,-5,o),
(28,84,o),
(28,162,cs),
(28,212,o),
(0,267,o),
(-50,305,cs),
(-93,338,l)
);
},
{
attr = {
identifier = ID0x7fd5a626cf40;
lineCapEnd = "1";
lineCapStart = "1";
};
closed = 0;
nodes = (
(-19,276,l),
(21,231,o),
(66,178,o),
(147,168,cs)
);
}
);
};
guides = (
{
pos = (157,336);
}
);
layerId = "6F9C6BB4-2DCF-443B-A55D-9CE049090094";
shapes = (
{
attr = {
identifier = ID0x7fd5a626cf40;
lineCapEnd = "1";
lineCapStart = "1";
strokeHeight = 60;
strokeWidth = 65;
};
closed = 0;
nodes = (
(-21,276,l),
(19,231,o),
(64,168,o),
(135,168,cs)
);
}
);
width = 135;
}
);
},
{
export = 0;
glyphname = _conect.arco.from.base.long;
lastChange = "2024-07-10 11:21:50 +0000";
layers = (
{
background = {
shapes = (
{
closed = 0;
nodes = (
(0,-5,l),
(222,-5,o),
(148,360,o),
(330,360,cs)
);
}
);
};
layerId = "6F9C6BB4-2DCF-443B-A55D-9CE049090094";
shapes = (
{
attr = {
lineCapEnd = 1;
lineCapStart = 1;
strokeHeight = 60;
strokeWidth = 65;
};
closed = 0;
nodes = (
(0,25,l),
(113,25,o),
(184,115,o),
(204,207,cs),
(230,324,o),
(265,393,o),
(360,393,cs)
);
}
);
width = 360;
}
);
},
{
export = 0;
glyphname = _conect.left.long.arco.g;
lastChange = "2024-07-10 11:16:17 +0000";
layers = (
{
background = {
shapes = (
{
attr = {
identifier = ID0x7fe6d54b4b70;
lineCapEnd = "1";
lineCapStart = "1";
};
closed = 0;
nodes = (
(0,0,l),
(90,71,o),
(140,158,o),
(181,229,cs),
(224,303,o),
(256,360,o),
(314,360,cs)
);
},
{
pos = (-374,0);
ref = _a.master;
},
{
attr = {
identifier = ID0x7f954cd342b0;
lineCapEnd = "1";
lineCapStart = "1";
};
closed = 0;
nodes = (
(-103,360,l),
(-103,-129,ls),
(-103,-310,o),
(-120,-373,o),
(-172,-373,cs),
(-222,-373,o),
(-242,-330,o),
(-242,-278,cs),
(-242,-117,o),
(-127,-99,o),
(0,0,c)
);
}
);
};
layerId = "6F9C6BB4-2DCF-443B-A55D-9CE049090094";
shapes = (
{
attr = {
identifier = ID0x7f954cd342b0;
lineCapEnd = "1";
lineCapStart = "1";
strokeHeight = 60;
strokeWidth = 65;
};
closed = 0;
nodes = (
(0,30,l),
(92,102,o),
(138,187,o),
(172,257,cs),
(211,336,o),
(241,394,o),
(314,394,cs)
);
}
);
width = 314;
}
);
},
{
export = 0;
glyphname = _conect.left.long.arco.o;
lastChange = "2024-07-10 10:28:22 +0000";
layers = (
{
layerId = "6F9C6BB4-2DCF-443B-A55D-9CE049090094";
shapes = (
{
attr = {
lineCapEnd = 1;
lineCapStart = 1;
strokeHeight = 60;
strokeWidth = 65;
};
closed = 0;
nodes = (
(282,393,l),
(212,393,o),
(179,328,o),
(146,258,cs),
(114,190,o),
(77,120,o),
(0,120,cs)
);
}
);
width = 282;
}
);
},
{
export = 0;
glyphname = _conect.from.base.long.to.arco;
lastChange = "2024-07-10 11:27:58 +0000";
layers = (
{
background = {
shapes = (
{
closed = 0;
nodes = (
(20,-5,l),
(133,-5,o),
(173,85,o),
(194,177,cs),
(220,291,o),
(255,360,o),
(350,360,cs)
);
}
);
};
layerId = "6F9C6BB4-2DCF-443B-A55D-9CE049090094";
shapes = (
{
attr = {
lineCapEnd = 1;
lineCapStart = 1;
strokeHeight = 60;
strokeWidth = 65;
};
closed = 0;
nodes = (
(0,25,l),
(145,25,o),
(195,136,o),
(236,236,cs),
(271,321,o),
(303,394,o),
(380,394,cs)
);
}
);
width = 380;
}
);
},
{
export = 0;
glyphname = _conect.from.base.long.to.e;
lastChange = "2024-07-09 16:31:25 +0000";
layers = (
{
background = {
anchors = (
{
name = bottom;
pos = (130,0);
},
{
name = ogonek;
pos = (6,10);
},
{
name = top;
pos = (66,360);
}
);
shapes = (
{
pos = (285,0);
ref = _conect.right.e;
scale = (-1,1);
},
{
pos = (135,0);
ref = _e.master;
scale = (-1,1);
}
);
};
guides = (
{
angle = 90;
pos = (143,84);
}
);
layerId = "6F9C6BB4-2DCF-443B-A55D-9CE049090094";
shapes = (
{
attr = {
identifier = ID0x7f8322cab0f0;
lineCapEnd = "1";
lineCapStart = "1";
strokeHeight = 60;
strokeWidth = 65;
};
closed = 0;
nodes = (
(0,-5,l),
(83,-5,o),
(162,8,o),
(226,55,c)
);
}
);
width = 226;
}
);
},
{
export = 0;
glyphname = _conect.from.base.long.to.i;
lastChange = "2024-07-10 09:55:41 +0000";
layers = (
{
background = {
shapes = (
{
closed = 0;
nodes = (
(0,-5,ls),
(98,-5,o),
(201,57,o),
(222,180,c)
);
}
